<svg width="24" height="24" viewBox="0 0 24 24" fill="none" xmlns="http://www.w3.org/2000/svg">
<path d="M12 22C17.5228 22 22 17.5228 22 12C22 6.47715 17.5228 2 12 2C6.47715 2 2 6.47715 2 12C2 17.5228 6.47715 22 12 22Z" fill="#FF4500"/>
<path d="M18.6666 12C18.6666 11.193 18.0117 10.538 17.2046 10.538C16.807 10.538 16.4561 10.6901 16.1988 10.9474C15.2046 10.2339 13.8245 9.76611 12.3041 9.70763L12.9707 6.58483L15.1345 7.04097C15.1579 7.59067 15.614 8.03512 16.1754 8.03512C16.7485 8.03512 17.2163 7.56728 17.2163 6.99418C17.2163 6.42108 16.7485 5.95325 16.1754 5.95325C15.766 5.95325 15.4152 6.18717 15.2514 6.53804L12.8304 6.02342C12.7602 6.01173 12.69 6.02342 12.6315 6.05851C12.5731 6.0936 12.538 6.15208 12.5146 6.22225L11.7777 9.70763C10.2222 9.75442 8.83037 10.2106 7.82453 10.9474C7.56722 10.7018 7.20464 10.538 6.81868 10.538C6.01166 10.538 5.35669 11.193 5.35669 12C5.35669 12.5965 5.70757 13.0994 6.22219 13.3334C6.19879 13.4737 6.1871 13.6258 6.1871 13.7778C6.1871 16.0234 8.79529 17.8363 12.0234 17.8363C15.2514 17.8363 17.8596 16.0234 17.8596 13.7778C17.8596 13.6258 17.8479 13.4854 17.8245 13.3451C18.3041 13.1111 18.6666 12.5965 18.6666 12ZM8.66663 13.041C8.66663 12.4679 9.13447 12 9.70757 12C10.2807 12 10.7485 12.4679 10.7485 13.041C10.7485 13.6141 10.2807 14.0819 9.70757 14.0819C9.13447 14.0819 8.66663 13.6141 8.66663 13.041ZM14.4795 15.7895C13.766 16.503 12.4093 16.5497 12.0117 16.5497C11.614 16.5497 10.2456 16.4913 9.54382 15.7895C9.43856 15.6842 9.43856 15.5088 9.54382 15.4035C9.64909 15.2983 9.82453 15.2983 9.92979 15.4035C10.3742 15.848 11.3333 16.0117 12.0234 16.0117C12.7134 16.0117 13.6608 15.848 14.1169 15.4035C14.2222 15.2983 14.3976 15.2983 14.5029 15.4035C14.5848 15.5205 14.5848 15.6842 14.4795 15.7895ZM14.2924 14.0819C13.7193 14.0819 13.2514 13.6141 13.2514 13.041C13.2514 12.4679 13.7193 12 14.2924 12C14.8655 12 15.3333 12.4679 15.3333 13.041C15.3333 13.6141 14.8655 14.0819 14.2924 14.0819Z" fill="white"/>
</svg>
