<svg width="28" height="28" viewBox="0 0 28 28" fill="none" xmlns="http://www.w3.org/2000/svg">
<path d="M9.54752 23.7526C18.6042 23.7526 23.5578 16.2492 23.5578 9.74235C23.5578 9.52923 23.5578 9.31707 23.5434 9.10587C24.507 8.40883 25.3389 7.54576 26 6.55707C25.1013 6.95528 24.148 7.21643 23.1718 7.33179C24.1998 6.71641 24.9691 5.74853 25.3366 4.60827C24.3701 5.18183 23.3126 5.58604 22.2099 5.80347C21.4675 5.01405 20.4856 4.49131 19.4162 4.31616C18.3468 4.141 17.2494 4.32319 16.294 4.83452C15.3385 5.34586 14.5782 6.15784 14.1307 7.14482C13.6833 8.13179 13.5735 9.23874 13.8186 10.2944C11.8609 10.1962 9.94572 9.68747 8.19741 8.80116C6.4491 7.91485 4.90672 6.67078 3.6704 5.14971C3.04073 6.23371 2.84787 7.51694 3.1311 8.73813C3.41433 9.95933 4.15234 11.0267 5.19488 11.7228C4.41127 11.6996 3.64475 11.4882 2.96 11.1065C2.96 11.1267 2.96 11.1478 2.96 11.1689C2.96031 12.3058 3.35385 13.4075 4.07387 14.2873C4.79389 15.167 5.79606 15.7707 6.9104 15.9958C6.18548 16.1935 5.42488 16.2224 4.68704 16.0803C5.00169 17.0587 5.61427 17.9143 6.43911 18.5274C7.26395 19.1405 8.25979 19.4805 9.28736 19.4998C7.54375 20.8701 5.38982 21.614 3.17216 21.6118C2.78039 21.611 2.389 21.5873 2 21.5407C4.25181 22.9858 6.87192 23.7523 9.54752 23.7487" fill="#1DA1F2"/>
</svg>
