<svg width="28" height="28" viewBox="0 0 28 28" fill="none" xmlns="http://www.w3.org/2000/svg">
<path d="M24.7848 14.2529C24.7848 13.5052 24.7242 12.7534 24.5948 12.0178H14.2197V16.2536H20.161C19.9145 17.6197 19.1223 18.8282 17.9623 19.5961V22.3445H21.5069C23.5884 20.4287 24.7848 17.5995 24.7848 14.2529Z" fill="#4285F4"/>
<path d="M14.2196 25C17.1863 25 19.6881 24.026 21.511 22.3446L17.9663 19.5962C16.9802 20.2671 15.707 20.647 14.2237 20.647C11.354 20.647 8.92089 18.711 8.04787 16.1082H4.39008V18.9414C6.25737 22.6558 10.0607 25 14.2196 25Z" fill="#34A853"/>
<path d="M8.04384 16.1081C7.58308 14.742 7.58308 13.2627 8.04384 11.8966V9.06335H4.39009C2.82997 12.1715 2.82997 15.8333 4.39009 18.9414L8.04384 16.1081Z" fill="#FBBC04"/>
<path d="M14.2196 7.35371C15.7878 7.32946 17.3035 7.91956 18.4392 9.00275L21.5797 5.8623C19.5911 3.99501 16.9519 2.96841 14.2196 3.00074C10.0607 3.00074 6.25737 5.34496 4.39008 9.06338L8.04383 11.8966C8.91281 9.28971 11.35 7.35371 14.2196 7.35371Z" fill="#EA4335"/>
</svg>
