<svg width="24" height="24" viewBox="0 0 24 24" fill="none" xmlns="http://www.w3.org/2000/svg">
<mask id="mask0" mask-type="alpha" maskUnits="userSpaceOnUse" x="2" y="2" width="20" height="20">
<path d="M2 2H21.9988V21.8777H2V2Z" fill="white"/>
</mask>
<g mask="url(#mask0)">
<path fill-rule="evenodd" clip-rule="evenodd" d="M21.9988 11.9993C21.9988 6.47642 17.5217 1.99927 11.9988 1.99927C6.47597 1.99927 1.99883 6.47642 1.99883 11.9993C1.99883 16.9906 5.65568 21.1276 10.4363 21.8778V14.8899H7.89726V11.9993H10.4363V9.79614C10.4363 7.28989 11.9293 5.90552 14.2135 5.90552C15.3076 5.90552 16.452 6.10083 16.452 6.10083V8.56177H15.191C13.9487 8.56177 13.5613 9.33261 13.5613 10.1234V11.9993H16.3348L15.8914 14.8899H13.5613V21.8778C18.342 21.1276 21.9988 16.9906 21.9988 11.9993Z" fill="#1877F2"/>
</g>
<path fill-rule="evenodd" clip-rule="evenodd" d="M15.8914 14.8899L16.3348 11.9993H13.5613V10.1234C13.5613 9.33261 13.9487 8.56177 15.191 8.56177H16.452V6.10083C16.452 6.10083 15.3076 5.90552 14.2135 5.90552C11.9293 5.90552 10.4363 7.28989 10.4363 9.79614V11.9993H7.89726V14.8899H10.4363V21.8778C10.9454 21.9577 11.4673 21.9993 11.9988 21.9993C12.5304 21.9993 13.0522 21.9577 13.5613 21.8778V14.8899H15.8914Z" fill="white"/>
</svg>
