<svg width="28" height="28" viewBox="0 0 28 28" fill="none" xmlns="http://www.w3.org/2000/svg">
<path fill-rule="evenodd" clip-rule="evenodd" d="M4.8118 25H23.1882C24.1885 25 25 24.1887 25 23.1882V4.8118C25 3.81155 24.1887 3 23.1882 3H4.8118C3.81155 3 3 3.8113 3 4.8118V23.1882C3 24.1885 3.8113 25 4.8118 25Z" fill="#0073B0"/>
<path d="M14.4853 11.412H11.4117L11.4122 21.7648H14.6474V16.578C14.6474 15.2081 15.2434 13.9192 16.9393 13.9192C18.1938 13.9192 18.5296 14.8593 18.5296 16.578V21.7648H21.7648V15.8909C21.7648 12.6251 20.7274 11.2501 17.6851 11.2501C16.0977 11.2501 14.8975 12.1328 14.4853 12.959V11.412Z" fill="white"/>
<path d="M9.47062 21.7648H6.23543V11.412H9.47062V21.7648Z" fill="white"/>
<path d="M7.8529 9.82676C8.94262 9.82676 9.82653 8.94286 9.82653 7.85314C9.82653 6.76268 8.94262 5.87952 7.8529 5.87952C6.76318 5.87952 5.87928 6.76293 5.87928 7.85314C5.87928 8.94286 6.76318 9.82676 7.8529 9.82676Z" fill="white"/>
</svg>
