<svg width="24" height="24" viewBox="0 0 24 24" fill="none" xmlns="http://www.w3.org/2000/svg">
<path fill-rule="evenodd" clip-rule="evenodd" d="M4.1244 21.4286H19.8756C20.733 21.4286 21.4286 20.7332 21.4286 19.8756V4.12438C21.4286 3.26702 20.7332 2.57141 19.8756 2.57141H4.1244C3.26704 2.57141 2.57143 3.26681 2.57143 4.12438V19.8756C2.57143 20.7329 3.26683 21.4286 4.1244 21.4286Z" fill="#0073B0"/>
<path d="M12.416 9.78165H9.78148L9.7819 18.6555H12.5549V14.2097C12.5549 13.0355 13.0657 11.9307 14.5194 11.9307C15.5947 11.9307 15.8825 12.7365 15.8825 14.2097V18.6555H18.6556V13.6207C18.6556 10.8215 17.7663 9.64295 15.1586 9.64295C13.798 9.64295 12.7693 10.3995 12.416 11.1077V9.78165Z" fill="white"/>
<path d="M8.11767 18.6555H5.34466V9.78165H8.11767V18.6555Z" fill="white"/>
<path d="M6.73106 8.4229C7.66511 8.4229 8.42274 7.66527 8.42274 6.73123C8.42274 5.79655 7.66511 5.03955 6.73106 5.03955C5.79701 5.03955 5.03938 5.79676 5.03938 6.73123C5.03938 7.66527 5.79701 8.4229 6.73106 8.4229Z" fill="white"/>
</svg>
