<svg width="24" height="24" viewBox="0 0 24 24" fill="none" xmlns="http://www.w3.org/2000/svg">
<mask id="mask0" mask-type="alpha" maskUnits="userSpaceOnUse" x="1" y="5" width="22" height="15">
<path d="M1.7213 5.14746H22.2857V19.6363H1.7213V5.14746Z" fill="white"/>
</mask>
<g mask="url(#mask0)">
<path fill-rule="evenodd" clip-rule="evenodd" d="M21.8558 7.40603C21.6192 6.51515 20.9223 5.81361 20.0371 5.57552C18.4329 5.14282 12 5.14282 12 5.14282C12 5.14282 5.5671 5.14282 3.96288 5.57552C3.07785 5.81361 2.38075 6.51515 2.14418 7.40603C1.71429 9.02065 1.71429 12.3896 1.71429 12.3896C1.71429 12.3896 1.71429 15.7584 2.14418 17.3732C2.38075 18.264 3.07785 18.9655 3.96288 19.2037C5.5671 19.6363 12 19.6363 12 19.6363C12 19.6363 18.4329 19.6363 20.0371 19.2037C20.9223 18.9655 21.6192 18.264 21.8558 17.3732C22.2857 15.7584 22.2857 12.3896 22.2857 12.3896C22.2857 12.3896 22.2857 9.02065 21.8558 7.40603Z" fill="#D9252A"/>
</g>
<path fill-rule="evenodd" clip-rule="evenodd" d="M9.89611 15.4482L15.2727 12.3896L9.89611 9.33081V15.4482Z" fill="#FFFFFE"/>
</svg>
