<svg width="24" height="24" viewBox="0 0 24 24" fill="none" xmlns="http://www.w3.org/2000/svg">
<path d="M16.1114 9.31886C17.3567 10.2086 18.8822 10.732 20.5298 10.732V7.56317C20.218 7.56323 19.907 7.53074 19.6019 7.46614V9.96048C17.9544 9.96048 16.4291 9.437 15.1836 8.54738V15.0141C15.1836 18.2491 12.5598 20.8714 9.32332 20.8714C8.11573 20.8714 6.99332 20.5065 6.06094 19.8807C7.1251 20.9682 8.60916 21.6428 10.251 21.6428C13.4876 21.6428 16.1116 19.0206 16.1116 15.7854V9.31886H16.1114ZM17.2561 6.12187C16.6197 5.42697 16.2019 4.52894 16.1114 3.53612V3.12854H15.2321C15.4535 4.3904 16.2084 5.46847 17.2561 6.12187ZM8.10798 17.3982C7.75242 16.9323 7.56028 16.3623 7.56114 15.7762C7.56114 14.2966 8.76125 13.097 10.2419 13.097C10.5178 13.0969 10.7921 13.1391 11.055 13.2225V9.98285C10.7477 9.94076 10.4376 9.92289 10.1276 9.92944V12.451C9.8644 12.3677 9.58999 12.3253 9.31399 12.3256C7.83337 12.3256 6.63333 13.5251 6.63333 15.0048C6.63333 16.0511 7.23318 16.957 8.10798 17.3982Z" fill="#FF004F"/>
<path d="M15.1836 8.54731C16.4291 9.43694 17.9544 9.96041 19.6019 9.96041V7.46607C18.6823 7.27029 17.8682 6.78997 17.2561 6.12187C16.2083 5.4684 15.4535 4.39034 15.2321 3.12854H12.9225V15.7853C12.9172 17.2608 11.7192 18.4556 10.2417 18.4556C9.3711 18.4556 8.59763 18.0408 8.10778 17.3982C7.23304 16.957 6.63318 16.0511 6.63318 15.0049C6.63318 13.5253 7.83323 12.3256 9.31384 12.3256C9.59752 12.3256 9.87095 12.3698 10.1274 12.4511V9.9295C6.94784 9.99516 4.39069 12.5918 4.39069 15.7854C4.39069 17.3796 5.02748 18.8248 6.06099 19.8807C6.99338 20.5065 8.11578 20.8714 9.32338 20.8714C12.5599 20.8714 15.1836 18.249 15.1836 15.0141V8.54731H15.1836Z" fill="black"/>
<path d="M19.6019 7.46612V6.79167C18.7726 6.79293 17.9596 6.56081 17.2561 6.12186C17.8789 6.80339 18.699 7.27332 19.6019 7.46612ZM15.2321 3.12859C15.211 3.008 15.1948 2.88661 15.1835 2.76476V2.35718H11.9945V15.0141C11.9894 16.4894 10.7914 17.6842 9.31384 17.6842C8.88005 17.6842 8.47048 17.5812 8.10777 17.3984C8.59763 18.0408 9.37109 18.4556 10.2417 18.4556C11.719 18.4556 12.9173 17.2609 12.9225 15.7854V3.12859H15.2321ZM10.1276 9.92956V9.21156C9.86108 9.17515 9.59243 9.15688 9.32344 9.15702C6.08667 9.15702 3.46287 11.7794 3.46287 15.0141C3.46287 17.0421 4.49407 18.8293 6.06106 19.8806C5.02754 18.8248 4.39075 17.3795 4.39075 15.7854C4.39075 12.5919 6.94784 9.99522 10.1276 9.92956Z" fill="#00F2EA"/>
</svg>
