<svg width="24" height="24" viewBox="0 0 24 24" fill="none" xmlns="http://www.w3.org/2000/svg">
<g clip-path="url(#clip0)">
<path d="M12 21.4286C17.2073 21.4286 21.4286 17.2072 21.4286 12C21.4286 6.79273 17.2073 2.57141 12 2.57141C6.79274 2.57141 2.57143 6.79273 2.57143 12C2.57143 17.2072 6.79274 21.4286 12 21.4286Z" fill="white"/>
<path d="M12 2.57141C6.79294 2.57141 2.57143 6.79293 2.57143 12C2.57143 15.9965 5.05467 19.4109 8.56226 20.7845C8.47689 20.0395 8.40705 18.891 8.5933 18.0762C8.76402 17.339 9.69524 13.389 9.69524 13.389C9.69524 13.389 9.41587 12.8226 9.41587 11.9922C9.41587 10.6808 10.1764 9.70298 11.1231 9.70298C11.9302 9.70298 12.3182 10.3083 12.3182 11.03C12.3182 11.837 11.806 13.0476 11.5344 14.1728C11.3093 15.1118 12.0078 15.8801 12.9312 15.8801C14.6074 15.8801 15.8956 14.1107 15.8956 11.5654C15.8956 9.30721 14.2737 7.7319 11.9534 7.7319C9.26843 7.7319 7.69312 9.74178 7.69312 11.8215C7.69312 12.6286 8.00353 13.4977 8.39153 13.9711C8.46913 14.0642 8.47689 14.1495 8.45361 14.2427C8.38377 14.5375 8.22081 15.1816 8.18977 15.3136C8.15097 15.4843 8.05009 15.5231 7.8716 15.4377C6.69206 14.8868 5.95485 13.1718 5.95485 11.7827C5.95485 8.81056 8.11217 6.07899 12.1862 6.07899C15.4533 6.07899 17.9986 8.40704 17.9986 11.5266C17.9986 14.7781 15.9499 17.3933 13.1097 17.3933C12.1552 17.3933 11.255 16.8966 10.9524 16.3069C10.9524 16.3069 10.479 18.1072 10.3626 18.5495C10.1531 19.3721 9.57883 20.3965 9.19083 21.025C10.0755 21.2966 11.0067 21.4441 11.9845 21.4441C17.1915 21.4441 21.4131 17.2226 21.4131 12.0155C21.4286 6.79293 17.2071 2.57141 12 2.57141Z" fill="#E60023"/>
</g>
<defs>
<clipPath id="clip0">
<rect width="18.8571" height="18.8571" fill="white" transform="translate(2.57143 2.57141)"/>
</clipPath>
</defs>
</svg>
