<svg width="24" height="24" viewBox="0 0 24 24" fill="none" xmlns="http://www.w3.org/2000/svg">
<path fill-rule="evenodd" clip-rule="evenodd" d="M11.997 2.57837C9.43719 2.57837 9.1162 2.58922 8.11086 2.63509C7.10762 2.68085 6.42244 2.8402 5.8229 3.07322C5.20308 3.31406 4.67744 3.63635 4.15341 4.16035C3.62941 4.68438 3.30712 5.21003 3.06628 5.82984C2.83326 6.42938 2.67391 7.11456 2.62815 8.11781C2.58228 9.12315 2.57143 9.44413 2.57143 12.004C2.57143 14.5638 2.58228 14.8848 2.62815 15.8901C2.67391 16.8934 2.83326 17.5786 3.06628 18.1781C3.30712 18.7979 3.62941 19.3235 4.15341 19.8476C4.67744 20.3716 5.20308 20.6939 5.8229 20.9348C6.42244 21.1677 7.10762 21.3271 8.11086 21.3728C9.1162 21.4187 9.43719 21.4296 11.997 21.4296C14.5569 21.4296 14.8778 21.4187 15.8832 21.3728C16.8864 21.3271 17.5716 21.1677 18.1711 20.9348C18.791 20.6939 19.3166 20.3716 19.8406 19.8476C20.3646 19.3235 20.6869 18.7979 20.9278 18.1781C21.1608 17.5786 21.3201 16.8934 21.3659 15.8901C21.4118 14.8848 21.4226 14.5638 21.4226 12.004C21.4226 9.44413 21.4118 9.12315 21.3659 8.11781C21.3201 7.11456 21.1608 6.42938 20.9278 5.82984C20.6869 5.21003 20.3646 4.68438 19.8406 4.16035C19.3166 3.63635 18.791 3.31406 18.1711 3.07322C17.5716 2.8402 16.8864 2.68085 15.8832 2.63509C14.8778 2.58922 14.5569 2.57837 11.997 2.57837ZM11.997 4.27667C14.5138 4.27667 14.8119 4.28629 15.8058 4.33163C16.7248 4.37354 17.2238 4.52709 17.556 4.65617C17.9959 4.82716 18.3099 5.03141 18.6397 5.36126C18.9696 5.69107 19.1738 6.00506 19.3448 6.44502C19.4739 6.77715 19.6275 7.27623 19.6694 8.19522C19.7147 9.18911 19.7243 9.48723 19.7243 12.004C19.7243 14.5207 19.7147 14.8188 19.6694 15.8127C19.6275 16.7317 19.4739 17.2308 19.3448 17.5629C19.1738 18.0029 18.9696 18.3169 18.6397 18.6467C18.3099 18.9765 17.9959 19.1808 17.556 19.3518C17.2238 19.4808 16.7248 19.6344 15.8058 19.6763C14.812 19.7216 14.5139 19.7313 11.997 19.7313C9.4801 19.7313 9.18205 19.7216 8.18827 19.6763C7.26929 19.6344 6.77021 19.4808 6.43808 19.3518C5.99811 19.1808 5.68413 18.9765 5.35431 18.6467C5.0245 18.3169 4.82022 18.0029 4.64923 17.5629C4.52015 17.2308 4.3666 16.7317 4.32469 15.8127C4.27934 14.8188 4.26973 14.5207 4.26973 12.004C4.26973 9.48723 4.27934 9.18911 4.32469 8.19522C4.3666 7.27623 4.52015 6.77715 4.64923 6.44502C4.82022 6.00506 5.02446 5.69107 5.35431 5.36126C5.68413 5.03141 5.99811 4.82716 6.43808 4.65617C6.77021 4.52709 7.26929 4.37354 8.18827 4.33163C9.18216 4.28629 9.48029 4.27667 11.997 4.27667ZM11.997 15.1448C10.2618 15.1448 8.85516 13.7382 8.85516 12.003C8.85516 10.2677 10.2618 8.86108 11.997 8.86108C13.7322 8.86108 15.1389 10.2677 15.1389 12.003C15.1389 13.7382 13.7322 15.1448 11.997 15.1448ZM11.997 7.16277C9.32386 7.16277 7.15686 9.32977 7.15686 12.003C7.15686 14.6761 9.32386 16.8431 11.997 16.8431C14.6702 16.8431 16.8372 14.6761 16.8372 12.003C16.8372 9.32977 14.6702 7.16277 11.997 7.16277ZM17.0284 8.10269C17.6531 8.10269 18.1595 7.59631 18.1595 6.97163C18.1595 6.34695 17.6531 5.84054 17.0284 5.84054C16.4038 5.84054 15.8974 6.34695 15.8974 6.97163C15.8974 7.59631 16.4038 8.10269 17.0284 8.10269Z" fill="url(#paint0_linear)"/>
<defs>
<linearGradient id="paint0_linear" x1="12" y1="3" x2="3" y2="21" gradientUnits="userSpaceOnUse">
<stop stop-color="#BA35B0"/>
<stop offset="0.510417" stop-color="#FF2E71"/>
<stop offset="1" stop-color="#FFA637"/>
</linearGradient>
</defs>
</svg>
