<svg width="24" height="24" viewBox="0 0 24 24" fill="none" xmlns="http://www.w3.org/2000/svg">
<g clip-path="url(#clip0)">
<path d="M8.18358 20.3593C15.9464 20.3593 20.1924 13.9278 20.1924 8.3505C20.1924 8.16782 20.1924 7.98597 20.18 7.80494C21.006 7.20748 21.719 6.4677 22.2857 5.62026C21.5154 5.96158 20.6983 6.18542 19.8616 6.2843C20.7426 5.75684 21.4021 4.92723 21.7171 3.94986C20.8886 4.44148 19.9822 4.78795 19.0371 4.97432C18.4007 4.29767 17.5591 3.84961 16.6424 3.69947C15.7258 3.54934 14.7852 3.7055 13.9662 4.14379C13.1473 4.58208 12.4956 5.27807 12.1121 6.12404C11.7285 6.97002 11.6345 7.91883 11.8445 8.82364C10.1665 8.73952 8.5249 8.30346 7.02635 7.54376C5.5278 6.78407 4.20576 5.71772 3.14605 4.41395C2.60633 5.34309 2.44103 6.443 2.68379 7.48974C2.92656 8.53648 3.55914 9.45134 4.45275 10.0481C3.78108 10.0281 3.12406 9.84696 2.53714 9.51978C2.53714 9.53706 2.53714 9.55516 2.53714 9.57326C2.5374 10.5477 2.87472 11.4921 3.49188 12.2461C4.10904 13.0002 4.96805 13.5176 5.92319 13.7106C5.30183 13.88 4.64989 13.9048 4.01746 13.783C4.28715 14.6216 4.81222 15.355 5.51923 15.8805C6.22623 16.4061 7.07981 16.6975 7.96059 16.714C6.46606 17.8886 4.61984 18.5262 2.71899 18.5243C2.38318 18.5237 2.0477 18.5033 1.71428 18.4634C3.6444 19.702 5.89021 20.359 8.18358 20.356" fill="#1DA1F2"/>
</g>
<defs>
<clipPath id="clip0">
<rect width="20.5714" height="20.5714" fill="white" transform="translate(1.71428 1.71423)"/>
</clipPath>
</defs>
</svg>
