<svg width="28" height="28" viewBox="0 0 28 28" fill="none" xmlns="http://www.w3.org/2000/svg">
<mask id="mask0" mask-type="alpha" maskUnits="userSpaceOnUse" x="2" y="2" width="24" height="24">
<path d="M2.33333 2.33337H25.6653V25.5241H2.33333V2.33337Z" fill="white"/>
</mask>
<g mask="url(#mask0)">
<path fill-rule="evenodd" clip-rule="evenodd" d="M25.6653 13.9992C25.6653 7.55586 20.442 2.33252 13.9986 2.33252C7.55531 2.33252 2.33197 7.55586 2.33197 13.9992C2.33197 19.8224 6.5983 24.6489 12.1757 25.5241V17.3716H9.21348V13.9992H12.1757V11.4289C12.1757 8.50492 13.9175 6.88981 16.5824 6.88981C17.8588 6.88981 19.194 7.11768 19.194 7.11768V9.98877H17.7228C16.2735 9.98877 15.8216 10.8881 15.8216 11.8107V13.9992H19.0572L18.54 17.3716H15.8216V25.5241C21.399 24.6489 25.6653 19.8224 25.6653 13.9992Z" fill="#1877F2"/>
</g>
<path fill-rule="evenodd" clip-rule="evenodd" d="M18.54 17.3715L19.0572 13.9991H15.8215V11.8107C15.8215 10.888 16.2735 9.98873 17.7228 9.98873H19.1939V7.11764C19.1939 7.11764 17.8588 6.88977 16.5824 6.88977C13.9175 6.88977 12.1757 8.50487 12.1757 11.4288V13.9991H9.21347V17.3715H12.1757V25.5241C12.7697 25.6173 13.3785 25.6658 13.9986 25.6658C14.6188 25.6658 15.2276 25.6173 15.8215 25.5241V17.3715H18.54Z" fill="white"/>
</svg>
