<svg width="28" height="28" viewBox="0 0 28 28" fill="none" xmlns="http://www.w3.org/2000/svg">
<g clip-path="url(#clip0)">
<path d="M14 25C20.0751 25 25 20.0751 25 14C25 7.92487 20.0751 3 14 3C7.92487 3 3 7.92487 3 14C3 20.0751 7.92487 25 14 25Z" fill="white"/>
<path d="M14 3C7.9251 3 3 7.9251 3 14C3 18.6626 5.89712 22.6461 9.9893 24.2486C9.88971 23.3794 9.80823 22.0395 10.0255 21.0889C10.2247 20.2288 11.3111 15.6206 11.3111 15.6206C11.3111 15.6206 10.9852 14.9597 10.9852 13.9909C10.9852 12.4609 11.8724 11.3202 12.977 11.3202C13.9185 11.3202 14.3712 12.0263 14.3712 12.8683C14.3712 13.8099 13.7737 15.2222 13.4568 16.535C13.1942 17.6305 14.0091 18.5267 15.0864 18.5267C17.042 18.5267 18.5449 16.4626 18.5449 13.493C18.5449 10.8584 16.6527 9.02058 13.9457 9.02058C10.8132 9.02058 8.97531 11.3654 8.97531 13.7918C8.97531 14.7333 9.33745 15.7473 9.79012 16.2996C9.88066 16.4082 9.88971 16.5078 9.86255 16.6165C9.78107 16.9605 9.59095 17.7119 9.55473 17.8658C9.50947 18.065 9.39177 18.1103 9.18354 18.0107C7.80741 17.3679 6.94732 15.3671 6.94732 13.7465C6.94732 10.279 9.4642 7.09218 14.2173 7.09218C18.0288 7.09218 20.9984 9.80823 20.9984 13.4477C20.9984 17.2412 18.6082 20.2922 15.2947 20.2922C14.1811 20.2922 13.1309 19.7128 12.7778 19.0247C12.7778 19.0247 12.2255 21.1251 12.0897 21.6412C11.8453 22.6008 11.1753 23.7959 10.7226 24.5292C11.7547 24.8461 12.8412 25.0181 13.9819 25.0181C20.0568 25.0181 24.9819 20.093 24.9819 14.0181C25 7.9251 20.0749 3 14 3Z" fill="#E60023"/>
</g>
<defs>
<clipPath id="clip0">
<rect width="22" height="22" fill="white" transform="translate(3 3)"/>
</clipPath>
</defs>
</svg>
