<svg width="28" height="28" viewBox="0 0 28 28" fill="none" xmlns="http://www.w3.org/2000/svg">
<mask id="mask0" mask-type="alpha" maskUnits="userSpaceOnUse" x="2" y="6" width="24" height="17">
<path d="M2.00818 6.00537H26V22.909H2.00818V6.00537Z" fill="white"/>
</mask>
<g mask="url(#mask0)">
<path fill-rule="evenodd" clip-rule="evenodd" d="M25.4985 8.64041C25.2225 7.60105 24.4093 6.78259 23.3766 6.50482C21.505 6 14 6 14 6C14 6 6.49495 6 4.62336 6.50482C3.59082 6.78259 2.77755 7.60105 2.50155 8.64041C2 10.5241 2 14.4545 2 14.4545C2 14.4545 2 18.3848 2.50155 20.2688C2.77755 21.308 3.59082 22.1265 4.62336 22.4044C6.49495 22.9091 14 22.9091 14 22.9091C14 22.9091 21.505 22.9091 23.3766 22.4044C24.4093 22.1265 25.2225 21.308 25.4985 20.2688C26 18.3848 26 14.4545 26 14.4545C26 14.4545 26 10.5241 25.4985 8.64041Z" fill="#D9252A"/>
</g>
<path fill-rule="evenodd" clip-rule="evenodd" d="M11.5455 18.023L17.8182 14.4546L11.5455 10.886V18.023Z" fill="#FFFFFE"/>
</svg>
