<svg width="24" height="24" viewBox="0 0 24 24" fill="none" xmlns="http://www.w3.org/2000/svg">
<path fill-rule="evenodd" clip-rule="evenodd" d="M10.1772 9.30106V8.52052C9.90632 8.48215 9.63313 8.46225 9.35954 8.46094C6.01371 8.46094 3.29166 11.1834 3.29166 14.5293C3.29166 16.5817 4.31741 18.3985 5.88217 19.4971C4.83443 18.3767 4.25195 16.8997 4.25279 15.3657C4.25279 12.0676 6.89737 9.37806 10.1772 9.30106" fill="#00F2EA"/>
<path fill-rule="evenodd" clip-rule="evenodd" d="M10.3202 18.1367C11.813 18.1367 13.0308 16.9491 13.0862 15.4692L13.0913 2.25772H15.5049C15.4533 1.98188 15.4273 1.70188 15.427 1.42126H12.1306L12.1251 14.6332C12.0701 16.1127 10.8519 17.2998 9.35954 17.2998C8.9115 17.2999 8.47018 17.1908 8.07391 16.9817C8.32979 17.3387 8.66697 17.6296 9.05758 17.8305C9.44818 18.0313 9.88099 18.1363 10.3202 18.1367V18.1367ZM20.0135 6.74206V6.00781C19.1265 6.00863 18.2585 5.75058 17.516 5.26531C18.167 6.01482 19.0435 6.53299 20.0139 6.74206" fill="#00F2EA"/>
<path fill-rule="evenodd" clip-rule="evenodd" d="M17.516 5.26485C16.7884 4.43227 16.3876 3.36392 16.3881 2.25818H15.5049C15.6192 2.86934 15.8564 3.45094 16.2021 3.96775C16.5478 4.48456 16.9948 4.92583 17.516 5.26485V5.26485ZM9.35955 11.7576C8.62487 11.7584 7.92053 12.0507 7.40103 12.5702C6.88154 13.0897 6.58931 13.794 6.58846 14.5287C6.58895 15.0341 6.72755 15.5297 6.98927 15.962C7.251 16.3944 7.6259 16.747 8.07346 16.9817C7.73268 16.5117 7.54916 15.9461 7.54913 15.3656C7.54986 14.6308 7.84203 13.9264 8.36154 13.4068C8.88104 12.8872 9.58546 12.5949 10.3202 12.5941C10.6058 12.5941 10.8794 12.6413 11.1379 12.7224V9.35685C10.867 9.31848 10.5938 9.29857 10.3202 9.29726C10.2721 9.29726 10.2249 9.30001 10.1772 9.30093V11.8859C9.91278 11.8018 9.63705 11.7585 9.35955 11.7576" fill="#FF004F"/>
<path fill-rule="evenodd" clip-rule="evenodd" d="M20.0135 6.74216V9.30424C18.3039 9.30424 16.7204 8.75745 15.4269 7.82932V14.5288C15.4269 17.8746 12.7054 20.5967 9.35953 20.5967C8.06657 20.5967 6.86757 20.1887 5.88216 19.4967C6.4487 20.1076 7.13533 20.595 7.89902 20.9282C8.6627 21.2614 9.48698 21.4333 10.3202 21.4331C13.666 21.4331 16.3881 18.7111 16.3881 15.3657V8.66624C17.7242 9.62705 19.3289 10.1431 20.9746 10.1412V6.84391C20.6446 6.84391 20.3238 6.80816 20.0135 6.7417" fill="#FF004F"/>
<path fill-rule="evenodd" clip-rule="evenodd" d="M15.427 14.5287V7.82922C16.7631 8.79014 18.3677 9.30616 20.0135 9.30414V6.74205C19.0431 6.53277 18.1668 6.01444 17.516 5.26485C16.9948 4.92583 16.5478 4.48456 16.2021 3.96775C15.8564 3.45094 15.6192 2.86934 15.5049 2.25818H13.0913L13.0863 15.4696C13.0308 16.9491 11.813 18.1367 10.3202 18.1367C9.881 18.1362 9.44821 18.0312 9.05761 17.8304C8.66701 17.6296 8.32982 17.3386 8.07392 16.9817C7.62627 16.747 7.25127 16.3945 6.98946 15.9621C6.72765 15.5298 6.58899 15.0341 6.58846 14.5287C6.58931 13.794 6.88153 13.0897 7.40103 12.5702C7.92052 12.0507 8.62487 11.7584 9.35954 11.7576C9.64463 11.7576 9.91825 11.8043 10.1772 11.8859V9.30093C6.89738 9.37793 4.25279 12.0674 4.25279 15.3656C4.25279 16.9606 4.87246 18.4126 5.88217 19.497C6.90006 20.2136 8.11473 20.5977 9.35954 20.5966C12.7054 20.5966 15.427 17.8745 15.427 14.5287" fill="black"/>
</svg>
