<svg width="24" height="24" viewBox="0 0 24 24" fill="none" xmlns="http://www.w3.org/2000/svg">
<path d="M21.2441 12.2168C21.2441 11.5759 21.1922 10.9315 21.0813 10.301H12.1883V13.9317H17.2809C17.0696 15.1026 16.3906 16.1385 15.3963 16.7967V19.1525H18.4345C20.2187 17.5104 21.2441 15.0853 21.2441 12.2168Z" fill="#4285F4"/>
<path d="M12.1883 21.4286C14.7311 21.4286 16.8755 20.5937 18.438 19.1525L15.3997 16.7968C14.5544 17.3718 13.4631 17.6975 12.1917 17.6975C9.73203 17.6975 7.64648 16.0381 6.89818 13.807H3.76293V16.2355C5.36347 19.4193 8.62343 21.4286 12.1883 21.4286Z" fill="#34A853"/>
<path d="M6.89472 13.8069C6.49978 12.636 6.49978 11.368 6.89472 10.1971V7.76855H3.76293C2.42569 10.4326 2.42569 13.5714 3.76293 16.2355L6.89472 13.8069Z" fill="#FBBC04"/>
<path d="M12.1883 6.30317C13.5324 6.28238 14.8316 6.78818 15.8051 7.71663L18.4969 5.02482C16.7924 3.42428 14.5302 2.54433 12.1883 2.57205C8.62343 2.57205 5.36347 4.58138 3.76293 7.76859L6.89472 10.1971C7.63955 7.9626 9.72857 6.30317 12.1883 6.30317Z" fill="#EA4335"/>
</svg>
