<svg width="24" height="24" viewBox="0 0 24 24" fill="none" xmlns="http://www.w3.org/2000/svg">
<path d="M20.0607 16.3542C17.1514 14.9458 16.6877 12.7714 16.6671 12.6102C16.6421 12.4148 16.6138 12.2612 16.8293 12.0625C17.0371 11.8705 17.9592 11.2998 18.2151 11.1212C18.6379 10.8255 18.8242 10.5303 18.6869 10.1674C18.5909 9.91641 18.3571 9.82185 18.1109 9.82185C18.0332 9.82209 17.9558 9.83078 17.88 9.84777C17.4154 9.94857 16.9642 10.1814 16.7031 10.2442C16.6717 10.2523 16.6395 10.2567 16.6071 10.2572C16.4679 10.2572 16.4151 10.1953 16.4285 10.0278C16.4611 9.51993 16.5303 8.52873 16.4501 7.60281C16.3402 6.32889 15.9293 5.69769 15.4421 5.13945C15.2064 4.86873 14.112 3.70569 12 3.70569C9.88802 3.70569 8.79506 4.86873 8.56082 5.13609C8.07218 5.69433 7.66178 6.32553 7.55282 7.59945C7.47266 8.52537 7.54466 9.51609 7.57442 10.0244C7.58402 10.1838 7.53506 10.2538 7.39586 10.2538C7.36347 10.2533 7.33125 10.2489 7.29986 10.2409C7.03922 10.178 6.58802 9.94521 6.12338 9.84441C6.04759 9.82742 5.97018 9.81873 5.8925 9.81849C5.6453 9.81849 5.4125 9.91449 5.3165 10.1641C5.17922 10.527 5.3645 10.8222 5.78882 11.1178C6.04466 11.2964 6.96674 11.8666 7.17458 12.0591C7.38962 12.2578 7.36178 12.4114 7.33682 12.6068C7.31618 12.7705 6.85202 14.9449 3.94322 16.3508C3.77282 16.4334 3.4829 16.6081 3.9941 16.8903C4.79666 17.3338 5.3309 17.2863 5.7461 17.5537C6.09842 17.7807 5.8901 18.2703 6.14642 18.447C6.4613 18.6644 7.39202 18.4316 8.59442 18.8286C9.60242 19.1607 10.2149 20.0991 12.0024 20.0991C13.7899 20.0991 14.4202 19.1564 15.4104 18.8286C16.6104 18.4316 17.5431 18.6644 17.8584 18.447C18.1143 18.2703 17.9064 17.7807 18.2587 17.5537C18.6739 17.2863 19.2077 17.3338 20.0107 16.8903C20.521 16.6114 20.2311 16.4367 20.0607 16.3542Z" fill="white"/>
<path d="M21.3264 16.1885C21.1959 15.8333 20.9472 15.6432 20.664 15.4858C20.6107 15.4546 20.5618 15.4296 20.52 15.4104C20.4355 15.3668 20.3491 15.3245 20.2632 15.2799C19.3805 14.8119 18.6912 14.2215 18.2131 13.5216C18.0774 13.3246 17.9596 13.1158 17.8613 12.8976C17.8205 12.781 17.8224 12.7148 17.8517 12.6543C17.8807 12.6077 17.9191 12.5676 17.9645 12.5367C18.1162 12.4364 18.2727 12.3346 18.3787 12.266C18.5679 12.1436 18.7176 12.0466 18.8141 11.978C19.1765 11.7245 19.4299 11.4552 19.5883 11.1543C19.6988 10.9463 19.7633 10.7171 19.7773 10.482C19.7913 10.2469 19.7545 10.0116 19.6695 9.79203C19.4295 9.16035 18.8328 8.76819 18.1099 8.76819C17.9575 8.76805 17.8054 8.78414 17.6563 8.81619C17.6165 8.82483 17.5767 8.83395 17.5378 8.84403C17.5445 8.41203 17.5349 7.95603 17.4965 7.50723C17.3602 5.92947 16.8077 5.10244 16.2317 4.44292C15.8628 4.02963 15.4284 3.67998 14.9458 3.40804C14.0717 2.90884 13.0805 2.6554 12 2.6554C10.9195 2.6554 9.93313 2.90884 9.05809 3.40804C8.57431 3.68007 8.13897 4.03042 7.76977 4.44484C7.19377 5.10436 6.64129 5.93284 6.50497 7.50915C6.46657 7.95795 6.45697 8.41635 6.46321 8.84595C6.42433 8.83587 6.38497 8.82676 6.34513 8.81812C6.19606 8.78606 6.04401 8.76997 5.89153 8.77011C5.16817 8.77011 4.57057 9.16227 4.33153 9.79395C4.24609 10.0136 4.20894 10.2491 4.2226 10.4844C4.23627 10.7197 4.30043 10.9493 4.41073 11.1576C4.56961 11.4586 4.82305 11.7279 5.18545 11.9813C5.28145 12.0485 5.43169 12.1455 5.62081 12.2693C5.72305 12.3356 5.87233 12.4325 6.01873 12.5295C6.06995 12.5626 6.11349 12.6063 6.14641 12.6576C6.17713 12.7205 6.17809 12.7882 6.13249 12.913C6.0355 13.1265 5.91968 13.331 5.78641 13.524C5.31889 14.208 4.64977 14.7879 3.79537 15.252C3.34273 15.492 2.87233 15.6524 2.67361 16.1924C2.52385 16.5999 2.62177 17.0636 3.00241 17.4543C3.14211 17.6001 3.30414 17.7228 3.48241 17.8176C3.85335 18.0215 4.24779 18.1793 4.65697 18.2876C4.74141 18.3093 4.82158 18.3452 4.89409 18.3936C5.03281 18.5151 5.01313 18.698 5.19793 18.9658C5.2907 19.1042 5.40857 19.224 5.54545 19.3191C5.93329 19.5869 6.36913 19.6037 6.83089 19.6215C7.24801 19.6373 7.72081 19.6556 8.26081 19.8336C8.48449 19.9076 8.71681 20.0506 8.98609 20.2176C9.63265 20.6151 10.5178 21.1589 11.9991 21.1589C13.4803 21.1589 14.3717 20.6122 15.0231 20.2133C15.2904 20.0492 15.5213 19.9076 15.7387 19.8356C16.2787 19.657 16.7515 19.6392 17.1687 19.6234C17.6304 19.6056 18.0663 19.5888 18.4541 19.321C18.6162 19.208 18.7513 19.0604 18.8496 18.889C18.9826 18.6629 18.9792 18.505 19.104 18.3946C19.172 18.3485 19.2473 18.3141 19.3267 18.2928C19.7415 18.1842 20.1413 18.025 20.5171 17.8186C20.7065 17.717 20.877 17.5835 21.0211 17.424L21.0259 17.4183C21.3831 17.0362 21.4728 16.586 21.3264 16.1885ZM20.0098 16.896C19.2067 17.3396 18.673 17.292 18.2578 17.5594C17.905 17.7864 18.1138 18.276 17.8575 18.4527C17.5426 18.6701 16.6119 18.4373 15.4095 18.8343C14.4178 19.1621 13.7851 20.1048 12.0015 20.1048C10.2178 20.1048 9.60001 19.164 8.59201 18.8319C7.39201 18.4349 6.45937 18.6677 6.14401 18.4503C5.88817 18.2736 6.09601 17.784 5.74369 17.557C5.32801 17.2896 4.79425 17.3372 3.99169 16.896C3.48049 16.6138 3.77041 16.4391 3.94081 16.3565C6.84961 14.9482 7.31377 12.7738 7.33441 12.6125C7.35937 12.4172 7.38721 12.2636 7.17217 12.0648C6.96433 11.8728 6.04225 11.3021 5.78641 11.1236C5.36305 10.8279 5.17681 10.5327 5.31409 10.1698C5.41009 9.91875 5.64433 9.82419 5.89009 9.82419C5.96776 9.82443 6.04518 9.83312 6.12097 9.85012C6.58561 9.95092 7.03681 10.1837 7.29745 10.2466C7.32884 10.2546 7.36106 10.259 7.39345 10.2596C7.53265 10.2596 7.58161 10.1895 7.57201 10.0301C7.54225 9.5218 7.47025 8.53107 7.55041 7.60515C7.66033 6.33124 8.07073 5.70004 8.55841 5.1418C8.79265 4.87348 9.89329 3.71044 11.9981 3.71044C14.1029 3.71044 15.2064 4.86868 15.4407 5.13604C15.9288 5.69428 16.3397 6.32548 16.4487 7.5994C16.5288 8.52532 16.4597 9.51651 16.4271 10.0244C16.416 10.1919 16.4664 10.2538 16.6056 10.2538C16.638 10.2533 16.6702 10.2489 16.7016 10.2408C16.9627 10.178 17.4139 9.94515 17.8786 9.84435C17.9544 9.82736 18.0318 9.81867 18.1095 9.81843C18.3567 9.81843 18.5895 9.91443 18.6855 10.164C18.8227 10.5269 18.6375 10.8221 18.2136 11.1178C17.9578 11.2964 17.0357 11.8666 16.8279 12.0591C16.6123 12.2578 16.6407 12.4114 16.6656 12.6068C16.6863 12.7704 17.1499 14.9448 20.0592 16.3508C20.2311 16.4367 20.521 16.6114 20.0098 16.896Z" fill="black"/>
</svg>
