<svg width="24" height="24" viewBox="0 0 24 24" fill="none" xmlns="http://www.w3.org/2000/svg">
<path d="M20.0607 16.3543C17.1514 14.946 16.6877 12.7716 16.6671 12.6103C16.6421 12.4149 16.6138 12.2613 16.8293 12.0626C17.0371 11.8706 17.9592 11.2999 18.2151 11.1213C18.6379 10.8257 18.8242 10.5305 18.6869 10.1676C18.5909 9.91653 18.3571 9.82197 18.1109 9.82197C18.0332 9.82221 17.9558 9.8309 17.88 9.84789C17.4154 9.94869 16.9642 10.1815 16.7031 10.2444C16.6717 10.2525 16.6395 10.2568 16.6071 10.2573C16.4679 10.2573 16.4151 10.1954 16.4285 10.0279C16.4611 9.52005 16.5303 8.52885 16.4501 7.60293C16.3402 6.32901 15.9293 5.69781 15.4421 5.13957C15.2064 4.86885 14.112 3.70581 12 3.70581C9.88802 3.70581 8.79506 4.86885 8.56082 5.13621C8.07218 5.69445 7.66178 6.32565 7.55282 7.59957C7.47266 8.52549 7.54466 9.51621 7.57442 10.0245C7.58402 10.1839 7.53506 10.254 7.39586 10.254C7.36347 10.2534 7.33125 10.2491 7.29986 10.241C7.03922 10.1781 6.58802 9.94533 6.12338 9.84453C6.04759 9.82754 5.97018 9.81885 5.8925 9.81861C5.6453 9.81861 5.4125 9.91461 5.3165 10.1642C5.17922 10.5271 5.3645 10.8223 5.78882 11.118C6.04466 11.2965 6.96674 11.8668 7.17458 12.0593C7.38962 12.258 7.36178 12.4116 7.33682 12.6069C7.31618 12.7706 6.85202 14.945 3.94322 16.3509C3.77282 16.4335 3.4829 16.6082 3.9941 16.8905C4.79666 17.334 5.3309 17.2865 5.7461 17.5538C6.09842 17.7809 5.8901 18.2704 6.14642 18.4471C6.4613 18.6645 7.39202 18.4317 8.59442 18.8287C9.60242 19.1609 10.2149 20.0993 12.0024 20.0993C13.7899 20.0993 14.4202 19.1565 15.4104 18.8287C16.6104 18.4317 17.5431 18.6645 17.8584 18.4471C18.1143 18.2704 17.9064 17.7809 18.2587 17.5538C18.6739 17.2865 19.2077 17.334 20.0107 16.8905C20.521 16.6116 20.2311 16.4369 20.0607 16.3543Z" fill="white"/>
<path d="M21.3264 16.1886C21.1959 15.8334 20.9472 15.6434 20.664 15.4859C20.6107 15.4547 20.5618 15.4298 20.52 15.4106C20.4355 15.3669 20.3491 15.3246 20.2632 15.28C19.3805 14.812 18.6912 14.2216 18.2131 13.5218C18.0774 13.3247 17.9596 13.1159 17.8613 12.8978C17.8205 12.7811 17.8224 12.7149 17.8517 12.6544C17.8807 12.6078 17.9191 12.5678 17.9645 12.5368C18.1162 12.4365 18.2727 12.3347 18.3787 12.2661C18.5679 12.1437 18.7176 12.0467 18.8141 11.9781C19.1765 11.7246 19.4299 11.4554 19.5883 11.1544C19.6988 10.9465 19.7633 10.7172 19.7773 10.4821C19.7913 10.2471 19.7545 10.0117 19.6695 9.79216C19.4295 9.16048 18.8328 8.76832 18.1099 8.76832C17.9575 8.76817 17.8054 8.78426 17.6563 8.81632C17.6165 8.82496 17.5767 8.83408 17.5378 8.84416C17.5445 8.41216 17.5349 7.95616 17.4965 7.50736C17.3602 5.9296 16.8077 5.10256 16.2317 4.44304C15.8628 4.02975 15.4284 3.68011 14.9458 3.40816C14.0717 2.90896 13.0805 2.65552 12 2.65552C10.9195 2.65552 9.93313 2.90896 9.05809 3.40816C8.57431 3.68019 8.13897 4.03054 7.76977 4.44496C7.19377 5.10448 6.64129 5.93296 6.50497 7.50928C6.46657 7.95808 6.45697 8.41648 6.46321 8.84608C6.42433 8.836 6.38497 8.82688 6.34513 8.81824C6.19606 8.78618 6.04401 8.77009 5.89153 8.77024C5.16817 8.77024 4.57057 9.1624 4.33153 9.79408C4.24609 10.0137 4.20894 10.2492 4.2226 10.4845C4.23627 10.7198 4.30043 10.9495 4.41073 11.1578C4.56961 11.4587 4.82305 11.728 5.18545 11.9814C5.28145 12.0486 5.43169 12.1456 5.62081 12.2694C5.72305 12.3357 5.87233 12.4326 6.01873 12.5296C6.06995 12.5627 6.11349 12.6064 6.14641 12.6578C6.17713 12.7206 6.17809 12.7883 6.13249 12.9131C6.0355 13.1267 5.91968 13.3312 5.78641 13.5242C5.31889 14.2082 4.64977 14.788 3.79537 15.2522C3.34273 15.4922 2.87233 15.6525 2.67361 16.1925C2.52385 16.6 2.62177 17.0637 3.00241 17.4544C3.14211 17.6002 3.30414 17.7229 3.48241 17.8178C3.85335 18.0216 4.24779 18.1794 4.65697 18.2877C4.74141 18.3095 4.82158 18.3453 4.89409 18.3938C5.03281 18.5152 5.01313 18.6981 5.19793 18.9659C5.2907 19.1043 5.40857 19.2242 5.54545 19.3192C5.93329 19.587 6.36913 19.6038 6.83089 19.6216C7.24801 19.6374 7.72081 19.6557 8.26081 19.8338C8.48449 19.9077 8.71681 20.0507 8.98609 20.2178C9.63265 20.6152 10.5178 21.159 11.9991 21.159C13.4803 21.159 14.3717 20.6123 15.0231 20.2134C15.2904 20.0493 15.5213 19.9077 15.7387 19.8357C16.2787 19.6571 16.7515 19.6394 17.1687 19.6235C17.6304 19.6058 18.0663 19.589 18.4541 19.3211C18.6162 19.2081 18.7513 19.0605 18.8496 18.8891C18.9826 18.663 18.9792 18.5051 19.104 18.3947C19.172 18.3486 19.2473 18.3142 19.3267 18.293C19.7415 18.1844 20.1413 18.0251 20.5171 17.8187C20.7065 17.7171 20.877 17.5836 21.0211 17.4242L21.0259 17.4184C21.3831 17.0363 21.4728 16.5861 21.3264 16.1886ZM20.0098 16.8962C19.2067 17.3397 18.673 17.2922 18.2578 17.5595C17.905 17.7866 18.1138 18.2762 17.8575 18.4528C17.5426 18.6702 16.6119 18.4374 15.4095 18.8344C14.4178 19.1622 13.7851 20.105 12.0015 20.105C10.2178 20.105 9.60001 19.1642 8.59201 18.832C7.39201 18.435 6.45937 18.6678 6.14401 18.4504C5.88817 18.2738 6.09601 17.7842 5.74369 17.5571C5.32801 17.2898 4.79425 17.3373 3.99169 16.8962C3.48049 16.6139 3.77041 16.4392 3.94081 16.3566C6.84961 14.9483 7.31377 12.7739 7.33441 12.6126C7.35937 12.4173 7.38721 12.2637 7.17217 12.065C6.96433 11.873 6.04225 11.3022 5.78641 11.1237C5.36305 10.828 5.17681 10.5328 5.31409 10.1699C5.41009 9.91888 5.64433 9.82432 5.89009 9.82432C5.96776 9.82455 6.04518 9.83325 6.12097 9.85024C6.58561 9.95104 7.03681 10.1838 7.29745 10.2467C7.32884 10.2548 7.36106 10.2591 7.39345 10.2597C7.53265 10.2597 7.58161 10.1896 7.57201 10.0302C7.54225 9.52192 7.47025 8.5312 7.55041 7.60528C7.66033 6.33136 8.07073 5.70016 8.55841 5.14192C8.79265 4.8736 9.89329 3.71056 11.9981 3.71056C14.1029 3.71056 15.2064 4.8688 15.4407 5.13616C15.9288 5.6944 16.3397 6.3256 16.4487 7.59952C16.5288 8.52544 16.4597 9.51664 16.4271 10.0245C16.416 10.192 16.4664 10.2539 16.6056 10.2539C16.638 10.2534 16.6702 10.249 16.7016 10.241C16.9627 10.1781 17.4139 9.94528 17.8786 9.84448C17.9544 9.82748 18.0318 9.81879 18.1095 9.81856C18.3567 9.81856 18.5895 9.91456 18.6855 10.1642C18.8227 10.527 18.6375 10.8222 18.2136 11.1179C17.9578 11.2965 17.0357 11.8667 16.8279 12.0592C16.6123 12.2579 16.6407 12.4115 16.6656 12.6069C16.6863 12.7706 17.1499 14.945 20.0592 16.3509C20.2311 16.4368 20.521 16.6115 20.0098 16.8962Z" fill="white"/>
</svg>
