<svg width="28" height="28" viewBox="0 0 28 28" fill="none" xmlns="http://www.w3.org/2000/svg">
<path opacity="0.4" d="M18.7967 10.8721C20.2495 11.91 22.0292 12.5208 23.9514 12.5208V8.82376C23.5876 8.82384 23.2248 8.78592 22.8689 8.71056V11.6206C20.9468 11.6206 19.1673 11.0099 17.7141 9.972V17.5165C17.7141 21.2906 14.653 24.35 10.8772 24.35C9.46832 24.35 8.15885 23.9243 7.07107 23.1942C8.31259 24.463 10.044 25.25 11.9595 25.25C15.7356 25.25 18.7968 22.1907 18.7968 18.4164V10.8721H18.7967ZM20.1321 7.14224C19.3896 6.33152 18.9021 5.28382 18.7967 4.12554V3.65002H17.7708C18.029 5.1222 18.9098 6.37994 20.1321 7.14224ZM9.45929 20.298C9.04447 19.7544 8.8203 19.0894 8.82131 18.4056C8.82131 16.6795 10.2214 15.2799 11.9488 15.2799C12.2707 15.2798 12.5907 15.3291 12.8975 15.4263V11.6467C12.539 11.5976 12.1772 11.5768 11.8155 11.5844V14.5263C11.5084 14.429 11.1883 14.3796 10.8663 14.3799C9.13891 14.3799 7.73886 15.7793 7.73886 17.5057C7.73886 18.7264 8.43869 19.7832 9.45929 20.298Z" fill="black"/>
<path d="M17.7141 9.97192C19.1673 11.0098 20.9468 11.6205 22.8689 11.6205V8.71048C21.796 8.48207 20.8462 7.92169 20.1321 7.14224C18.9097 6.37986 18.029 5.12212 17.7708 3.65002H15.0762V18.4163C15.0701 20.1377 13.6723 21.5316 11.9487 21.5316C10.9329 21.5316 10.0306 21.0476 9.45906 20.298C8.43853 19.7832 7.7387 18.7263 7.7387 17.5058C7.7387 15.7795 9.13875 14.38 10.8661 14.38C11.1971 14.38 11.5161 14.4315 11.8153 14.5264V11.5845C8.1058 11.6611 5.12245 14.6905 5.12245 18.4163C5.12245 20.2762 5.86537 21.9623 7.07114 23.1942C8.15892 23.9243 9.4684 24.3501 10.8773 24.3501C14.6532 24.3501 17.7142 21.2906 17.7142 17.5165V9.97192H17.7141Z" fill="black"/>
<path opacity="0.2" d="M22.8689 8.71044V7.92358C21.9014 7.92505 20.9529 7.65424 20.1321 7.14213C20.8587 7.93725 21.8155 8.4855 22.8689 8.71044ZM17.7708 3.64998C17.7462 3.50929 17.7273 3.36767 17.7141 3.22551V2.75H13.9936V17.5164C13.9876 19.2376 12.59 20.6315 10.8661 20.6315C10.36 20.6315 9.88222 20.5114 9.45906 20.298C10.0306 21.0476 10.9329 21.5315 11.9487 21.5315C13.6722 21.5315 15.0702 20.1377 15.0762 18.4163V3.64998H17.7708ZM11.8155 11.5844V10.7468C11.5046 10.7043 11.1912 10.683 10.8773 10.6831C7.10111 10.6831 4.04 13.7426 4.04 17.5164C4.04 19.8824 5.24307 21.9675 7.07122 23.1941C5.86545 21.9622 5.12253 20.276 5.12253 18.4162C5.12253 14.6905 8.1058 11.661 11.8155 11.5844Z" fill="black"/>
</svg>
