<svg width="28" height="28" viewBox="0 0 28 28" fill="none" xmlns="http://www.w3.org/2000/svg">
<mask id="path-1-inside-1" fill="white">
<path fill-rule="evenodd" clip-rule="evenodd" d="M23.1882 25H4.8118C3.8113 25 3 24.1885 3 23.1882V4.8118C3 3.8113 3.81155 3 4.8118 3H23.1882C24.1887 3 25 3.81155 25 4.8118V23.1882C25 24.1887 24.1885 25 23.1882 25ZM9.82653 7.85314C9.82653 8.94286 8.94262 9.82676 7.8529 9.82676C6.76318 9.82676 5.87928 8.94286 5.87928 7.85314C5.87928 6.76293 6.76318 5.87952 7.8529 5.87952C8.94262 5.87952 9.82653 6.76268 9.82653 7.85314ZM14.4853 11.412H11.4117L11.4122 21.7648H14.6474V16.578C14.6474 15.2081 15.2434 13.9192 16.9393 13.9192C18.1938 13.9192 18.5296 14.8593 18.5296 16.578V21.7648H21.7648V15.8909C21.7648 12.6251 20.7274 11.2501 17.6851 11.2501C16.0977 11.2501 14.8975 12.1328 14.4853 12.959V11.412ZM9.47062 21.7648H6.23543V11.412H9.47062V21.7648Z"/>
</mask>
<path fill-rule="evenodd" clip-rule="evenodd" d="M23.1882 25H4.8118C3.8113 25 3 24.1885 3 23.1882V4.8118C3 3.8113 3.81155 3 4.8118 3H23.1882C24.1887 3 25 3.81155 25 4.8118V23.1882C25 24.1887 24.1885 25 23.1882 25ZM9.82653 7.85314C9.82653 8.94286 8.94262 9.82676 7.8529 9.82676C6.76318 9.82676 5.87928 8.94286 5.87928 7.85314C5.87928 6.76293 6.76318 5.87952 7.8529 5.87952C8.94262 5.87952 9.82653 6.76268 9.82653 7.85314ZM14.4853 11.412H11.4117L11.4122 21.7648H14.6474V16.578C14.6474 15.2081 15.2434 13.9192 16.9393 13.9192C18.1938 13.9192 18.5296 14.8593 18.5296 16.578V21.7648H21.7648V15.8909C21.7648 12.6251 20.7274 11.2501 17.6851 11.2501C16.0977 11.2501 14.8975 12.1328 14.4853 12.959V11.412ZM9.47062 21.7648H6.23543V11.412H9.47062V21.7648Z" fill="white"/>
<path d="M11.4117 11.412V10.412H10.4117L10.4117 11.412L11.4117 11.412ZM14.4853 11.412H15.4853V10.412H14.4853V11.412ZM11.4122 21.7648L10.4122 21.7649L10.4123 22.7648H11.4122V21.7648ZM14.6474 21.7648V22.7648H15.6474V21.7648H14.6474ZM18.5296 21.7648H17.5296V22.7648H18.5296V21.7648ZM21.7648 21.7648V22.7648H22.7648V21.7648H21.7648ZM14.4853 12.959H13.4853L15.3802 13.4054L14.4853 12.959ZM6.23543 21.7648H5.23543V22.7648H6.23543V21.7648ZM9.47062 21.7648V22.7648H10.4706V21.7648H9.47062ZM6.23543 11.412V10.412H5.23543V11.412H6.23543ZM9.47062 11.412H10.4706V10.412H9.47062V11.412ZM4.8118 26H23.1882V24H4.8118V26ZM2 23.1882C2 24.7407 3.25893 26 4.8118 26V24C4.36367 24 4 23.6363 4 23.1882H2ZM2 4.8118V23.1882H4V4.8118H2ZM4.8118 2C3.25935 2 2 3.25893 2 4.8118H4C4 4.36367 4.36374 4 4.8118 4V2ZM23.1882 2H4.8118V4H23.1882V2ZM26 4.8118C26 3.25935 24.7411 2 23.1882 2V4C23.6363 4 24 4.36374 24 4.8118H26ZM26 23.1882V4.8118H24V23.1882H26ZM23.1882 26C24.7407 26 26 24.7411 26 23.1882H24C24 23.6363 23.6363 24 23.1882 24V26ZM7.8529 10.8268C9.49491 10.8268 10.8265 9.49515 10.8265 7.85314H8.82653C8.82653 8.39058 8.39034 8.82676 7.8529 8.82676V10.8268ZM4.87928 7.85314C4.87928 9.49515 6.2109 10.8268 7.8529 10.8268V8.82676C7.31547 8.82676 6.87928 8.39058 6.87928 7.85314H4.87928ZM7.8529 4.87952C6.21106 4.87952 4.87928 6.21048 4.87928 7.85314H6.87928C6.87928 7.31538 7.3153 6.87952 7.8529 6.87952V4.87952ZM10.8265 7.85314C10.8265 6.21016 9.49467 4.87952 7.8529 4.87952V6.87952C8.39058 6.87952 8.82653 7.31521 8.82653 7.85314H10.8265ZM11.4117 12.412H14.4853V10.412H11.4117V12.412ZM12.4122 21.7648L12.4117 11.4119L10.4117 11.412L10.4122 21.7649L12.4122 21.7648ZM14.6474 20.7648H11.4122V22.7648H14.6474V20.7648ZM13.6474 16.578V21.7648H15.6474V16.578H13.6474ZM16.9393 12.9192C15.802 12.9192 14.9164 13.3705 14.3503 14.1445C13.8196 14.8699 13.6474 15.7707 13.6474 16.578H15.6474C15.6474 16.0155 15.7731 15.5869 15.9645 15.3253C16.1203 15.1123 16.3806 14.9192 16.9393 14.9192V12.9192ZM19.5296 16.578C19.5296 15.7036 19.4537 14.8182 19.0866 14.1322C18.8883 13.7619 18.6003 13.4387 18.201 13.2179C17.8094 13.0013 17.3763 12.9192 16.9393 12.9192V14.9192C17.1295 14.9192 17.2088 14.9546 17.233 14.968C17.2495 14.9772 17.2807 14.9965 17.3232 15.076C17.4376 15.2898 17.5296 15.7338 17.5296 16.578H19.5296ZM19.5296 21.7648V16.578H17.5296V21.7648H19.5296ZM21.7648 20.7648H18.5296V22.7648H21.7648V20.7648ZM20.7648 15.8909V21.7648H22.7648V15.8909H20.7648ZM17.6851 12.2501C19.0806 12.2501 19.7413 12.5672 20.1041 12.9938C20.5033 13.4631 20.7648 14.3142 20.7648 15.8909H22.7648C22.7648 14.2018 22.5076 12.7325 21.6275 11.6979C20.7111 10.6205 19.3319 10.2501 17.6851 10.2501V12.2501ZM15.3802 13.4054C15.6081 12.9484 16.4421 12.2501 17.6851 12.2501V10.2501C15.7533 10.2501 14.1868 11.3172 13.5905 12.5127L15.3802 13.4054ZM13.4853 11.412V12.959H15.4853V11.412H13.4853ZM6.23543 22.7648H9.47062V20.7648H6.23543V22.7648ZM5.23543 11.412V21.7648H7.23543V11.412H5.23543ZM9.47062 10.412H6.23543V12.412H9.47062V10.412ZM10.4706 21.7648V11.412H8.47062V21.7648H10.4706Z" fill="white" mask="url(#path-1-inside-1)"/>
</svg>
