<?xml version="1.0" encoding="UTF-8"?>
<svg width="24px" height="24px" viewBox="0 0 24 24" version="1.1" xmlns="http://www.w3.org/2000/svg" xmlns:xlink="http://www.w3.org/1999/xlink">
    <!-- Generator: Sketch 50.2 (55047) - http://www.bohemiancoding.com/sketch -->
    <title>social - yt - white</title>
    <desc>Created with Sketch.</desc>
    <defs></defs>
    <g id="social---yt---white" stroke="none" stroke-width="1" fill="none" fill-rule="evenodd">
        <g id="Group-3">
            <rect id="Rectangle-2" x="0" y="0" width="24" height="24"></rect>
        </g>
        <path d="M9.84164706,14.5817301 L9.84102941,8.98907007 L15.1812059,11.7950415 L9.84164706,14.5817301 Z M21.5670588,8.01994935 C21.5670588,8.01994935 21.3737353,6.64837606 20.7814118,6.04438619 C20.0297353,5.2512996 19.1872647,5.24756742 18.8012353,5.2015373 C16.0354118,5 11.8866765,5 11.8866765,5 L11.8780294,5 C11.8780294,5 7.72929412,5 4.96347059,5.2015373 C4.57682353,5.24756742 3.73497059,5.2512996 2.98267647,6.04438619 C2.39035294,6.64837606 2.19764706,8.01994935 2.19764706,8.01994935 C2.19764706,8.01994935 2,9.63100369 2,11.241436 L2,12.7517217 C2,14.362776 2.19764706,15.9732083 2.19764706,15.9732083 C2.19764706,15.9732083 2.39035294,17.3447816 2.98267647,17.9487715 C3.73497059,18.7418581 4.72258824,18.7169769 5.16235294,18.7997068 C6.74352941,18.9527258 11.8823529,19 11.8823529,19 C11.8823529,19 16.0354118,18.9937797 18.8012353,18.7922424 C19.1872647,18.7455903 20.0297353,18.7418581 20.7814118,17.9487715 C21.3737353,17.3447816 21.5670588,15.9732083 21.5670588,15.9732083 C21.5670588,15.9732083 21.7647059,14.362776 21.7647059,12.7517217 L21.7647059,11.241436 C21.7647059,9.63100369 21.5670588,8.01994935 21.5670588,8.01994935 L21.5670588,8.01994935 Z" id="Youtube-Copy" fill="#FFFFFF"></path>
    </g>
</svg>