<svg width="28" height="28" viewBox="0 0 28 28" fill="none" xmlns="http://www.w3.org/2000/svg">
<mask id="path-1-inside-1" fill="white">
<path fill-rule="evenodd" clip-rule="evenodd" d="M18.4392 9.00275C17.3035 7.91956 15.7878 7.32946 14.2196 7.35371C11.35 7.35371 8.91284 9.28968 8.04384 11.8966V11.8967C7.58308 13.2628 7.58308 14.742 8.04384 16.1082H8.04786C8.92088 18.711 11.354 20.647 14.2237 20.647C15.705 20.647 16.9767 20.2682 17.9623 19.5989V19.5961C19.1223 18.8282 19.9145 17.6197 20.161 16.2536H14.2197V12.0178H24.5948C24.7242 12.7534 24.7848 13.5052 24.7848 14.2529C24.7848 17.5985 23.5891 20.4271 21.5087 22.3429L21.511 22.3446C19.6881 24.026 17.1863 25 14.2196 25C10.0607 25 6.25736 22.6558 4.39007 18.9414V18.9414C2.82997 15.8333 2.82998 12.1715 4.39009 9.06338L4.39007 9.06338C6.25736 5.34496 10.0607 3.00074 14.2196 3.00074C16.9518 2.96841 19.5911 3.99501 21.5797 5.8623L18.4392 9.00275Z"/>
</mask>
<path fill-rule="evenodd" clip-rule="evenodd" d="M18.4392 9.00275C17.3035 7.91956 15.7878 7.32946 14.2196 7.35371C11.35 7.35371 8.91284 9.28968 8.04384 11.8966V11.8967C7.58308 13.2628 7.58308 14.742 8.04384 16.1082H8.04786C8.92088 18.711 11.354 20.647 14.2237 20.647C15.705 20.647 16.9767 20.2682 17.9623 19.5989V19.5961C19.1223 18.8282 19.9145 17.6197 20.161 16.2536H14.2197V12.0178H24.5948C24.7242 12.7534 24.7848 13.5052 24.7848 14.2529C24.7848 17.5985 23.5891 20.4271 21.5087 22.3429L21.511 22.3446C19.6881 24.026 17.1863 25 14.2196 25C10.0607 25 6.25736 22.6558 4.39007 18.9414V18.9414C2.82997 15.8333 2.82998 12.1715 4.39009 9.06338L4.39007 9.06338C6.25736 5.34496 10.0607 3.00074 14.2196 3.00074C16.9518 2.96841 19.5911 3.99501 21.5797 5.8623L18.4392 9.00275Z" fill="white"/>
<path d="M14.2196 7.35371V8.35371H14.2274L14.2351 8.35359L14.2196 7.35371ZM18.4392 9.00275L17.749 9.7264L18.4558 10.4004L19.1463 9.70986L18.4392 9.00275ZM8.04384 11.8966L7.09516 11.5803L7.04384 11.7343V11.8966H8.04384ZM8.04384 11.8967L8.99139 12.2162L9.04384 12.0608V11.8967H8.04384ZM8.04384 16.1082L7.09628 16.4277L7.32577 17.1082H8.04384V16.1082ZM8.04786 16.1082L8.99595 15.7902L8.7672 15.1082H8.04786V16.1082ZM17.9623 19.5989L18.5241 20.4262L18.9623 20.1287V19.5989H17.9623ZM17.9623 19.5961L17.4103 18.7623L16.9623 19.0589V19.5961H17.9623ZM20.161 16.2536L21.1451 16.4312L21.3577 15.2536H20.161V16.2536ZM14.2197 16.2536H13.2197V17.2536H14.2197V16.2536ZM14.2197 12.0178V11.0178H13.2197V12.0178H14.2197ZM24.5948 12.0178L25.5797 11.8447L25.4344 11.0178H24.5948V12.0178ZM21.5087 22.3429L20.8313 21.6073L19.9613 22.4084L20.896 23.1331L21.5087 22.3429ZM21.511 22.3446L22.189 23.0796L23.0576 22.2784L22.1237 21.5543L21.511 22.3446ZM4.39007 18.9414H3.39007V19.1786L3.49661 19.3906L4.39007 18.9414ZM4.39007 18.9414H5.39007V18.7045L5.2838 18.4928L4.39007 18.9414ZM4.39009 9.06338L5.28382 9.51199L5.85059 8.38285L4.62147 8.09052L4.39009 9.06338ZM4.39007 9.06338L3.49642 8.61461L2.92934 9.74385L4.15868 10.0362L4.39007 9.06338ZM14.2196 3.00074L14.2196 4.00081L14.2315 4.00067L14.2196 3.00074ZM21.5797 5.8623L22.2868 6.56941L23.0165 5.83972L22.2642 5.13332L21.5797 5.8623ZM14.2351 8.35359C15.5423 8.33338 16.8041 8.82519 17.749 9.7264L19.1294 8.2791C17.8028 7.01392 16.0334 6.32555 14.2042 6.35383L14.2351 8.35359ZM8.99252 12.2128C9.73615 9.98199 11.8135 8.35371 14.2196 8.35371V6.35371C10.8865 6.35371 8.08952 8.59737 7.09516 11.5803L8.99252 12.2128ZM9.04384 11.8967V11.8966H7.04384V11.8967H9.04384ZM8.99139 15.7886C8.60056 14.6298 8.60056 13.375 8.99139 12.2162L7.09628 11.5771C6.5656 13.1505 6.5656 14.8543 7.09628 16.4277L8.99139 15.7886ZM8.04786 15.1082H8.04384V17.1082H8.04786V15.1082ZM14.2237 19.647C11.8182 19.647 9.74358 18.0192 8.99595 15.7902L7.09976 16.4261C8.09817 19.4029 10.8899 21.647 14.2237 21.647V19.647ZM17.4006 18.7716C16.6038 19.3126 15.5346 19.647 14.2237 19.647V21.647C15.8753 21.647 17.3495 21.2237 18.5241 20.4262L17.4006 18.7716ZM16.9623 19.5961V19.5989H18.9623V19.5961H16.9623ZM19.1769 16.076C18.9786 17.1748 18.3417 18.1457 17.4103 18.7623L18.5143 20.43C19.9029 19.5107 20.8503 18.0646 21.1451 16.4312L19.1769 16.076ZM14.2197 17.2536H20.161V15.2536H14.2197V17.2536ZM13.2197 12.0178V16.2536H15.2197V12.0178H13.2197ZM24.5948 11.0178H14.2197V13.0178H24.5948V11.0178ZM25.7848 14.2529C25.7848 13.4517 25.7199 12.6417 25.5797 11.8447L23.6099 12.191C23.7285 12.8651 23.7848 13.5587 23.7848 14.2529H25.7848ZM22.1861 23.0785C24.4977 20.9498 25.7848 17.8413 25.7848 14.2529H23.7848C23.7848 17.3558 22.6805 19.9044 20.8313 21.6073L22.1861 23.0785ZM22.1237 21.5543L22.1215 21.5526L20.896 23.1331L20.8982 23.1349L22.1237 21.5543ZM14.2196 26C17.4118 26 20.1633 24.9481 22.189 23.0796L20.8329 21.6095C19.2129 23.1038 16.9608 24 14.2196 24V26ZM3.49661 19.3906C5.53377 23.4428 9.68285 26 14.2196 26V24C10.4385 24 6.98095 21.8688 5.28352 18.4923L3.49661 19.3906ZM3.39007 18.9414V18.9414H5.39007V18.9414H3.39007ZM3.49636 8.61477C1.79456 12.0052 1.79455 15.9996 3.49634 19.39L5.2838 18.4928C3.8654 15.667 3.8654 12.3378 5.28382 9.51199L3.49636 8.61477ZM4.15868 10.0362L4.15871 10.0362L4.62147 8.09052L4.62145 8.09051L4.15868 10.0362ZM14.2196 2.00074C9.6827 2.00074 5.5335 4.55809 3.49642 8.61461L5.28372 9.51214C6.98122 6.13183 10.4386 4.00074 14.2196 4.00074V2.00074ZM22.2642 5.13332C20.087 3.08892 17.1981 1.96542 14.2078 2.00081L14.2315 4.00067C16.7056 3.97139 19.0952 4.90111 20.8951 6.59129L22.2642 5.13332ZM19.1463 9.70986L22.2868 6.56941L20.8726 5.1552L17.7321 8.29564L19.1463 9.70986Z" fill="white" mask="url(#path-1-inside-1)"/>
</svg>
