<svg width="28" height="28" viewBox="0 0 28 28" fill="none" xmlns="http://www.w3.org/2000/svg">
<g clip-path="url(#clip0)">
<path d="M14.1777 3.2502L14.176 3.25022L13.7641 3.2543L13.7584 3.25437V3.25433C13.2674 3.25433 12.2764 3.32428 11.216 3.79097L11.2159 3.79102C10.6125 4.05641 10.0721 4.41412 9.60823 4.85355L9.60812 4.85366C9.05527 5.37703 8.59997 6.02678 8.25844 6.79056L8.25843 6.7906C8.03196 7.29693 7.93099 8.01997 7.90898 8.86158C7.88742 9.68619 7.94193 10.5664 7.99295 11.3765L7.99333 11.379L7.99463 11.3997L7.99791 11.4518C8.00785 11.6095 8.01818 11.7735 8.0277 11.9337L8.04801 12.2754L7.73677 12.4179C7.5908 12.4848 7.392 12.5374 7.13431 12.5374C6.73197 12.5374 6.29726 12.4112 5.85368 12.2039L6.06531 11.751L5.85475 12.2044C5.80978 12.1836 5.74661 12.1673 5.65837 12.1673C5.50999 12.1673 5.34147 12.2121 5.19242 12.2995L5.19219 12.2996C5.00595 12.4087 4.9387 12.5302 4.92319 12.6113L4.43209 12.5173M14.1777 3.2502L10.8252 23.5512C10.81 23.5404 10.7947 23.5297 10.7794 23.5189C10.2298 23.1311 9.64004 22.715 8.93743 22.5984L8.93728 22.5984C8.60677 22.5436 8.27633 22.5154 7.95494 22.5154C7.37791 22.5154 6.91594 22.6058 6.60393 22.6669L6.60083 22.6675C6.37361 22.7114 6.24413 22.7348 6.14401 22.7348C6.09077 22.7348 6.0607 22.7268 6.04646 22.7216C6.03293 22.7167 6.02658 22.7118 6.02277 22.7084C6.01304 22.6997 5.99499 22.6762 5.98002 22.6253L5.97987 22.6248C5.92751 22.4475 5.89011 22.2784 5.85089 22.0976L5.85054 22.0961L5.84789 22.084C5.82998 22.0027 5.80621 21.8947 5.78016 21.7939C5.75693 21.7039 5.71823 21.5625 5.66117 21.4543L5.5441 21.2323L5.29614 21.1935C4.28283 21.0351 3.5472 20.838 3.08219 20.6227C2.69502 20.4431 2.56229 20.2852 2.51912 20.1846L2.51592 20.1771C2.50615 20.1518 2.50142 20.1286 2.50007 20.1076C2.49874 20.0773 2.52007 20.0501 2.55176 20.0449L2.55206 20.0448C3.34401 19.9147 4.09729 19.6206 4.78954 19.1745C5.35529 18.81 5.88192 18.3444 6.35594 17.7935C7.186 16.8296 7.59235 15.9155 7.64424 15.7946L7.64425 15.7946L7.64456 15.7939L7.64589 15.7911L7.64731 15.7881L7.64739 15.7879C7.83492 15.407 7.94399 14.9658 7.77072 14.559L7.77068 14.5589C7.60976 14.1813 7.25748 13.9572 6.98817 13.8231C6.70799 13.6837 6.39852 13.5856 6.18305 13.5174L6.16936 13.513L6.16906 13.5129C6.03637 13.471 5.9333 13.4382 5.85053 13.4057C5.49299 13.2648 5.25341 13.1201 5.11041 12.9898L5.11026 12.9897C4.98743 12.8779 4.9466 12.7875 4.9312 12.7347C4.91484 12.6786 4.9187 12.6348 4.92325 12.611L4.43209 12.5173M14.1777 3.2502C14.1922 3.25 14.2082 3.25 14.2297 3.25H14.2308M14.1777 3.2502L14.2308 3.25M4.43209 12.5173C4.39987 12.6864 4.40143 13.0205 4.77368 13.3594L11.0146 3.33333C10.3599 3.62127 9.77103 4.01061 9.26438 4.49055C8.66032 5.06241 8.16821 5.76747 7.802 6.58646C7.26574 7.78545 7.39296 9.80489 7.4952 11.4279L7.49524 11.4286L7.49562 11.4311L7.4989 11.4833C7.50885 11.6411 7.51912 11.8041 7.52858 11.9633C7.4499 11.9994 7.32233 12.0374 7.13431 12.0374C6.83178 12.0374 6.47203 11.941 6.06533 11.7509C5.94566 11.6954 5.80908 11.6673 5.65837 11.6673C5.41624 11.6673 5.16098 11.7383 4.93956 11.8681C4.66098 12.0313 4.48098 12.2618 4.43209 12.5173ZM13.968 24.7451L13.997 24.7465C14.0395 24.7484 14.0924 24.75 14.1477 24.75C15.4476 24.75 16.2995 24.1678 17.1498 23.5686L17.1513 23.5672L17.1758 23.55C17.1916 23.5389 17.2074 23.5277 17.2233 23.5166C17.7723 23.1297 18.3611 22.7149 19.0627 22.5984L19.0629 22.5984C19.3932 22.5437 19.7236 22.5154 20.0451 22.5154C20.5944 22.5154 21.0285 22.5858 21.3998 22.6579L21.4006 22.6581C21.6197 22.7011 21.7643 22.7164 21.8561 22.7164H21.8651L21.8651 22.7164L21.8742 22.7166H21.8838C21.9434 22.7166 21.9676 22.7014 21.9754 22.6956C21.983 22.6899 22.0038 22.6717 22.0202 22.6158L22.0206 22.6146C22.072 22.4406 22.1094 22.2749 22.1494 22.0922L22.1495 22.0917L22.1508 22.0859C22.1678 22.0083 22.1919 21.8987 22.2188 21.7949C22.242 21.7048 22.281 21.5621 22.3373 21.4542L22.454 21.2305L22.7033 21.1915C23.7175 21.0327 24.4528 20.836 24.9178 20.6208L24.918 20.6207C25.3036 20.4423 25.4372 20.2843 25.4809 20.1833L25.481 20.1832C25.4935 20.1543 25.4987 20.1296 25.4998 20.1083L25.4999 20.1069C25.5016 20.0778 25.4806 20.0496 25.4482 20.0443L25.4478 20.0442C23.6853 19.7545 22.4245 18.7095 21.6105 17.7524C20.8016 16.8014 20.4017 15.9008 20.3565 15.7956L20.3542 15.7911L20.3542 15.791C20.1653 15.4086 20.0559 14.9665 20.2295 14.5585L20.2295 14.5584C20.3902 14.1808 20.7424 13.9568 21.0116 13.8228C21.2922 13.6831 21.6022 13.585 21.818 13.5167L21.8306 13.5127L21.8316 13.5124C21.9642 13.4708 22.0679 13.4376 22.1494 13.4055L22.1494 13.4055C22.5556 13.2455 22.7948 13.0907 22.9312 12.9504L22.9315 12.9501C23.0092 12.8703 23.0445 12.8042 23.0615 12.7592C23.0789 12.7134 23.0819 12.6772 23.0814 12.6537L23.5814 12.6443M13.968 24.7451L19.7419 6.78833C19.9685 7.29506 20.0694 8.01864 20.0913 8.86081C20.1129 9.69303 20.057 10.5819 20.0053 11.3981L20.0053 11.3994L20.0011 11.4673L20.0011 11.4682L19.9973 11.529C19.9887 11.6672 19.9802 11.8019 19.9725 11.9334L19.9525 12.2759L20.2648 12.4179C20.3928 12.476 20.5623 12.5238 20.7774 12.5347L20.8018 12.5359L20.8262 12.5347C21.2016 12.517 21.6033 12.3956 22.0138 12.2041C22.0972 12.1653 22.201 12.152 22.2885 12.152C22.4117 12.152 22.5268 12.1754 22.6203 12.2139L22.6315 12.2186L22.6429 12.2226C22.9871 12.3454 23.0793 12.5445 23.0815 12.6541L23.5814 12.6443M13.968 24.7451L13.9389 24.7471M13.968 24.7451L13.9389 24.7471M23.5814 12.6443C23.5738 12.2602 23.2793 11.9188 22.8109 11.7517L21.9815 13.9894C22.1102 13.949 22.2316 13.9105 22.3326 13.8707C22.7704 13.6983 23.0833 13.5113 23.2898 13.2989C23.5363 13.0457 23.5843 12.803 23.5814 12.6443ZM13.9389 24.7471C13.9113 24.749 13.8823 24.75 13.8524 24.75C12.5406 24.75 11.6847 24.1569 10.8253 23.5512L13.9389 24.7471ZM14.2308 3.25C14.7229 3.25 15.7141 3.31971 16.7731 3.78295L14.2308 3.25ZM18.387 4.84579C17.9212 4.40604 17.379 4.04833 16.7733 3.78303L18.387 4.84579ZM18.387 4.84579C18.942 5.37028 19.3989 6.02166 19.7419 6.7882L18.387 4.84579ZM20.3543 15.7904L20.3545 15.7909L20.3543 15.7904Z" fill="white" stroke="black"/>
</g>
<defs>
<clipPath id="clip0">
<rect x="2" y="2.75" width="24" height="22.5" fill="white"/>
</clipPath>
</defs>
</svg>
