<svg width="24" height="24" viewBox="0 0 24 24" fill="none" xmlns="http://www.w3.org/2000/svg">
<mask id="path-1-inside-1" fill="white">
<path fill-rule="evenodd" clip-rule="evenodd" d="M15.805 7.71675C14.8316 6.7883 13.5324 6.2825 12.1882 6.30329C9.72857 6.30329 7.63957 7.96269 6.89472 10.1972V10.1972C6.49978 11.3682 6.49978 12.6361 6.89471 13.8071H6.89816C7.64647 16.0381 9.73201 17.6976 12.1917 17.6976C13.4614 17.6976 14.5514 17.3728 15.3963 16.7992V16.7968C16.3905 16.1386 17.0696 15.1027 17.2809 13.9318H12.1883V10.3011H21.0813C21.1922 10.9316 21.2441 11.576 21.2441 12.2169C21.2441 15.0846 20.2193 17.509 18.4361 19.1511L18.438 19.1526C16.8755 20.5938 14.7311 21.4287 12.1882 21.4287C8.62342 21.4287 5.36345 19.4194 3.76292 16.2356V16.2356C2.42569 13.5715 2.4257 10.4328 3.76293 7.76872L3.76292 7.76871C5.36345 4.5815 8.62342 2.57217 12.1882 2.57217C14.5302 2.54445 16.7924 3.4244 18.4969 5.02494L15.805 7.71675Z"/>
</mask>
<path fill-rule="evenodd" clip-rule="evenodd" d="M15.805 7.71675C14.8316 6.7883 13.5324 6.2825 12.1882 6.30329C9.72857 6.30329 7.63957 7.96269 6.89472 10.1972V10.1972C6.49978 11.3682 6.49978 12.6361 6.89471 13.8071H6.89816C7.64647 16.0381 9.73201 17.6976 12.1917 17.6976C13.4614 17.6976 14.5514 17.3728 15.3963 16.7992V16.7968C16.3905 16.1386 17.0696 15.1027 17.2809 13.9318H12.1883V10.3011H21.0813C21.1922 10.9316 21.2441 11.576 21.2441 12.2169C21.2441 15.0846 20.2193 17.509 18.4361 19.1511L18.438 19.1526C16.8755 20.5938 14.7311 21.4287 12.1882 21.4287C8.62342 21.4287 5.36345 19.4194 3.76292 16.2356V16.2356C2.42569 13.5715 2.4257 10.4328 3.76293 7.76872L3.76292 7.76871C5.36345 4.5815 8.62342 2.57217 12.1882 2.57217C14.5302 2.54445 16.7924 3.4244 18.4969 5.02494L15.805 7.71675Z" fill="white"/>
<path d="M12.1882 6.30329V7.30329H12.196L12.2037 7.30317L12.1882 6.30329ZM15.805 7.71675L15.1149 8.4404L15.8216 9.11442L16.5122 8.42385L15.805 7.71675ZM6.89472 10.1972L5.94604 9.88094L5.89472 10.0349V10.1972H6.89472ZM6.89472 10.1972L7.84227 10.5168L7.89472 10.3613V10.1972H6.89472ZM6.89471 13.8071L5.94716 14.1267L6.17664 14.8071H6.89471V13.8071ZM6.89816 13.8071L7.84626 13.4891L7.61751 12.8071H6.89816V13.8071ZM15.3963 16.7992L15.958 17.6265L16.3963 17.3289V16.7992H15.3963ZM15.3963 16.7968L14.8443 15.963L14.3963 16.2595V16.7968H15.3963ZM17.2809 13.9318L18.265 14.1094L18.4775 12.9318H17.2809V13.9318ZM12.1883 13.9318H11.1883V14.9318H12.1883V13.9318ZM12.1883 10.3011V9.30111H11.1883V10.3011H12.1883ZM21.0813 10.3011L22.0662 10.1279L21.9208 9.30111H21.0813V10.3011ZM18.4361 19.1511L17.7587 18.4155L16.8888 19.2166L17.8232 19.9413L18.4361 19.1511ZM18.438 19.1526L19.116 19.8877L19.9844 19.0866L19.0509 18.3624L18.438 19.1526ZM3.76292 16.2356H2.76292V16.4728L2.86946 16.6848L3.76292 16.2356ZM3.76292 16.2356H4.76292V15.9987L4.65665 15.787L3.76292 16.2356ZM3.76293 7.76872L4.65666 8.21733L5.14284 7.24875L4.13837 6.84187L3.76293 7.76872ZM3.76292 7.76871L2.86927 7.31995L2.38283 8.28861L3.38748 8.69556L3.76292 7.76871ZM12.1882 2.57217V3.57224L12.2001 3.5721L12.1882 2.57217ZM18.4969 5.02494L19.204 5.73204L19.9337 5.00235L19.1814 4.29596L18.4969 5.02494ZM12.2037 7.30317C13.2869 7.28642 14.3322 7.69393 15.1149 8.4404L16.4952 6.9931C15.3309 5.88266 13.778 5.27858 12.1728 5.30341L12.2037 7.30317ZM7.8434 10.5134C8.46289 8.655 10.1921 7.30329 12.1882 7.30329V5.30329C9.26509 5.30329 6.81625 7.27038 5.94604 9.88094L7.8434 10.5134ZM7.89472 10.1972V10.1972H5.89472V10.1972H7.89472ZM7.84227 13.4875C7.51726 12.5239 7.51726 11.4805 7.84227 10.5168L5.94716 9.87765C5.4823 11.2559 5.4823 12.7484 5.94716 14.1267L7.84227 13.4875ZM6.89816 12.8071H6.89471V14.8071H6.89816V12.8071ZM12.1917 16.6976C10.1962 16.6976 8.46917 15.3463 7.84626 13.4891L5.95007 14.1251C6.82376 16.73 9.26787 18.6976 12.1917 18.6976V16.6976ZM14.8345 15.9719C14.1786 16.4172 13.2911 16.6976 12.1917 16.6976V18.6976C13.6318 18.6976 14.9243 18.3284 15.958 17.6265L14.8345 15.9719ZM14.3963 16.7968V16.7992H16.3963V16.7968H14.3963ZM16.2968 13.7542C16.1337 14.6578 15.61 15.456 14.8443 15.963L15.9483 17.6306C17.1711 16.8211 18.0054 15.5476 18.265 14.1094L16.2968 13.7542ZM12.1883 14.9318H17.2809V12.9318H12.1883V14.9318ZM11.1883 10.3011V13.9318H13.1883V10.3011H11.1883ZM21.0813 9.30111H12.1883V11.3011H21.0813V9.30111ZM22.2441 12.2169C22.2441 11.5225 22.1879 10.8199 22.0662 10.1279L20.0964 10.4743C20.1965 11.0433 20.2441 11.6295 20.2441 12.2169H22.2441ZM19.1135 19.8867C21.1278 18.0318 22.2441 15.3273 22.2441 12.2169H20.2441C20.2441 14.8418 19.3107 16.9863 17.7587 18.4155L19.1135 19.8867ZM19.0509 18.3624L19.049 18.361L17.8232 19.9413L17.8251 19.9428L19.0509 18.3624ZM12.1882 22.4287C14.9566 22.4287 17.3507 21.5159 19.116 19.8877L17.7599 18.4176C16.4003 19.6717 14.5056 20.4287 12.1882 20.4287V22.4287ZM2.86946 16.6848C4.63986 20.2064 8.24562 22.4287 12.1882 22.4287V20.4287C9.00122 20.4287 6.08704 18.6323 4.65637 15.7865L2.86946 16.6848ZM2.76292 16.2356V16.2356H4.76292V16.2356H2.76292ZM2.86921 7.32011C1.39027 10.2665 1.39027 13.7378 2.86919 16.6842L4.65665 15.787C3.46111 13.4052 3.46112 10.5991 4.65666 8.21733L2.86921 7.32011ZM3.38748 8.69556L3.3875 8.69557L4.13837 6.84187L4.13835 6.84186L3.38748 8.69556ZM12.1882 1.57217C8.24547 1.57217 4.63959 3.79463 2.86927 7.31995L4.65656 8.21748C6.08731 5.36837 9.00137 3.57217 12.1882 3.57217V1.57217ZM19.1814 4.29596C17.2883 2.51831 14.7764 1.54147 12.1764 1.57224L12.2001 3.5721C14.2839 3.54744 16.2965 4.3305 17.8123 5.75392L19.1814 4.29596ZM16.5122 8.42385L19.204 5.73204L17.7897 4.31783L15.0979 7.00964L16.5122 8.42385Z" fill="white" mask="url(#path-1-inside-1)"/>
</svg>
