<svg width="28" height="28" viewBox="0 0 28 28" fill="none" xmlns="http://www.w3.org/2000/svg">
<mask id="mask0" mask-type="alpha" maskUnits="userSpaceOnUse" x="2" y="4" width="24" height="20">
<path d="M2.00002 4.62H26V23.3824H2.00002V4.62Z" fill="white"/>
</mask>
<g mask="url(#mask0)">
<path d="M2.50015 10.7593L2.50015 10.7591C2.50916 9.22299 2.98608 7.81305 3.9415 6.79493C4.89016 5.78401 6.3582 5.10839 8.45585 5.12102L8.4561 5.12102C10.5538 5.13261 12.0142 5.82529 12.9512 6.84727C13.8949 7.87651 14.3555 9.292 14.3463 10.828C14.3371 12.3638 13.86 13.78 12.9038 14.8043C11.9545 15.8212 10.4865 16.5021 8.39009 16.49C6.29361 16.4779 4.83327 15.78 3.89578 14.7522C2.95137 13.7168 2.49081 12.2951 2.50015 10.7593ZM5.99339 10.7792L5.99339 10.7794L8.44044 7.88885L8.44344 7.38886C8.44334 7.38885 8.44325 7.38885 8.44316 7.38885C7.93295 7.38584 7.49862 7.50872 7.14282 7.74427C6.78944 7.97822 6.54646 8.3014 6.38033 8.64749C6.05653 9.32206 5.99717 10.1432 5.99339 10.7792Z" fill="white" stroke="white"/>
<path d="M19.5563 14.2214H19.5563C19.0446 14.2183 18.6109 14.0882 18.2577 13.8454C17.9074 13.6046 17.6689 13.2756 17.5075 12.9254C17.1927 12.2422 17.1432 11.4158 17.1474 10.779M19.5563 14.2214L19.5957 7.388C19.0857 7.38498 18.6515 7.50789 18.2958 7.74352C17.9426 7.97754 17.6997 8.3008 17.5337 8.64694C17.2103 9.32146 17.151 10.1426 17.1474 10.779M19.5563 14.2214C20.0676 14.2245 20.5025 14.0994 20.8583 13.8608M19.5563 14.2214L20.8583 13.8608M17.1474 10.779L17.6471 10.7823L17.1474 10.7795C17.1474 10.7793 17.1474 10.7792 17.1474 10.779ZM20.8583 13.8608C21.2112 13.6242 21.4534 13.2979 21.6189 12.9497M20.8583 13.8608L21.6189 12.9497M21.6189 12.9497C21.9418 12.2703 22.0015 11.4445 22.0051 10.8076M21.6189 12.9497L22.0051 10.8076M22.0051 10.8076C22.0088 10.1711 21.959 9.34906 21.6432 8.67067M22.0051 10.8076L21.6432 8.67067M21.6432 8.67067C21.4812 8.32263 21.2422 7.99657 20.8917 7.75849M21.6432 8.67067L20.8917 7.75849M20.8917 7.75849C20.5387 7.51875 20.106 7.39084 19.596 7.388L20.8917 7.75849ZM13.6537 10.7584L13.6537 10.7582C13.6622 9.22269 14.1391 7.81276 15.0945 6.7945C16.0433 5.78342 17.5114 5.10757 19.6087 5.12017L19.6088 5.12017C21.7063 5.1323 23.1667 5.82521 24.1039 6.84727C25.0478 7.87658 25.5086 9.29188 25.5 10.8275C25.4907 12.3636 25.0133 13.7798 24.0568 14.8042C23.1073 15.821 21.6391 16.502 19.5427 16.4902C17.4468 16.4776 15.9868 15.7795 15.0494 14.7515C14.1051 13.716 13.6445 12.2942 13.6537 10.7584Z" fill="white" stroke="white"/>
<path d="M4.18109 17.746L4.16385 20.5993C7.48543 22.138 10.131 22.8604 13.7727 22.8819C17.1088 22.9012 20.4636 22.1 23.5786 20.6034L23.5942 17.7125C20.2291 18.9464 17.421 19.5907 13.7926 19.5693L4.18109 17.746ZM4.18109 17.746C7.22741 18.9929 10.3864 19.5499 13.7925 19.5693L4.18109 17.746Z" fill="white" stroke="white"/>
</g>
</svg>
