<svg width="28" height="28" viewBox="0 0 28 28" fill="none" xmlns="http://www.w3.org/2000/svg">
<mask id="path-1-inside-1" fill="white">
<path fill-rule="evenodd" clip-rule="evenodd" d="M23.3766 6.50482C24.4093 6.78259 25.2225 7.60105 25.4985 8.64041C26 10.5241 26 14.4545 26 14.4545C26 14.4545 26 18.3848 25.4985 20.2688C25.2225 21.308 24.4093 22.1265 23.3766 22.4044C21.505 22.9091 14 22.9091 14 22.9091C14 22.9091 6.49496 22.9091 4.62336 22.4044C3.59082 22.1265 2.77755 21.308 2.50155 20.2688C2 18.3848 2 14.4545 2 14.4545C2 14.4545 2 10.5241 2.50155 8.64041C2.77755 7.60105 3.59082 6.78259 4.62336 6.50482C6.49496 6 14 6 14 6C14 6 21.505 6 23.3766 6.50482ZM17.8182 14.4546L11.5455 18.023V10.886L17.8182 14.4546Z"/>
</mask>
<path fill-rule="evenodd" clip-rule="evenodd" d="M23.3766 6.50482C24.4093 6.78259 25.2225 7.60105 25.4985 8.64041C26 10.5241 26 14.4545 26 14.4545C26 14.4545 26 18.3848 25.4985 20.2688C25.2225 21.308 24.4093 22.1265 23.3766 22.4044C21.505 22.9091 14 22.9091 14 22.9091C14 22.9091 6.49496 22.9091 4.62336 22.4044C3.59082 22.1265 2.77755 21.308 2.50155 20.2688C2 18.3848 2 14.4545 2 14.4545C2 14.4545 2 10.5241 2.50155 8.64041C2.77755 7.60105 3.59082 6.78259 4.62336 6.50482C6.49496 6 14 6 14 6C14 6 21.505 6 23.3766 6.50482ZM17.8182 14.4546L11.5455 18.023V10.886L17.8182 14.4546Z" fill="white"/>
<path d="M25.4985 8.64041L24.532 8.89706L24.5321 8.8977L25.4985 8.64041ZM23.3766 6.50482L23.1162 7.47031L23.1169 7.47049L23.3766 6.50482ZM26 14.4545L25 14.4545L25 14.4545L26 14.4545ZM25.4985 20.2688L24.5321 20.0116L24.532 20.0121L25.4985 20.2688ZM23.3766 22.4044L23.1168 21.4388L23.1163 21.4389L23.3766 22.4044ZM4.62336 22.4044L4.88372 21.4389L4.88326 21.4388L4.62336 22.4044ZM2.50155 20.2688L3.46804 20.0121L3.46789 20.0116L2.50155 20.2688ZM2.50155 8.64041L3.46788 8.8977L3.46805 8.89706L2.50155 8.64041ZM4.62336 6.50482L4.88315 7.47049L4.88378 7.47031L4.62336 6.50482ZM11.5455 18.023H10.5455V19.7423L12.0399 18.8922L11.5455 18.023ZM17.8182 14.4546L18.3126 15.3238L19.8405 14.4547L18.3127 13.5854L17.8182 14.4546ZM11.5455 10.886L12.0399 10.0168L10.5455 9.16657V10.886H11.5455ZM26.465 8.38376C26.0978 7.00109 25.0169 5.91049 23.6364 5.53914L23.1169 7.47049C23.8017 7.65469 24.3471 8.201 24.532 8.89706L26.465 8.38376ZM26 14.4545C27 14.4545 27 14.4545 27 14.4544C27 14.4543 27 14.4542 27 14.4541C27 14.4539 27 14.4536 27 14.4533C27 14.4527 27 14.4518 27 14.4507C27 14.4484 27 14.4453 27 14.4412C27 14.433 26.9999 14.4211 26.9999 14.4058C26.9997 14.375 26.9995 14.3304 26.999 14.2732C26.998 14.1588 26.996 13.9943 26.992 13.7913C26.984 13.3858 26.968 12.8247 26.936 12.2025C26.8735 10.9879 26.7457 9.438 26.4648 8.38312L24.5321 8.8977C24.7528 9.72654 24.8758 11.0838 24.9386 12.3053C24.9693 12.9011 24.9847 13.4404 24.9924 13.8307C24.9962 14.0256 24.9981 14.1829 24.9991 14.2908C24.9995 14.3447 24.9998 14.3863 24.9999 14.4141C24.9999 14.428 25 14.4385 25 14.4453C25 14.4487 25 14.4511 25 14.4527C25 14.4535 25 14.454 25 14.4543C25 14.4545 25 14.4546 25 14.4546C25 14.4546 25 14.4546 25 14.4546C25 14.4546 25 14.4545 26 14.4545ZM26.4648 20.5261C26.7457 19.4711 26.8735 17.9212 26.936 16.7066C26.968 16.0844 26.984 15.5233 26.992 15.1178C26.996 14.9148 26.998 14.7503 26.999 14.6359C26.9995 14.5787 26.9997 14.534 26.9999 14.5033C26.9999 14.488 27 14.4761 27 14.4679C27 14.4638 27 14.4606 27 14.4584C27 14.4573 27 14.4564 27 14.4558C27 14.4554 27 14.4552 27 14.455C27 14.4549 27 14.4548 27 14.4547C27 14.4546 27 14.4545 26 14.4545C25 14.4545 25 14.4545 25 14.4545C25 14.4545 25 14.4545 25 14.4545C25 14.4545 25 14.4546 25 14.4548C25 14.4551 25 14.4556 25 14.4564C25 14.4579 25 14.4604 25 14.4638C25 14.4706 24.9999 14.4811 24.9999 14.495C24.9998 14.5227 24.9995 14.5643 24.9991 14.6183C24.9981 14.7262 24.9962 14.8835 24.9924 15.0784C24.9847 15.4687 24.9693 16.0079 24.9386 16.6038C24.8758 17.8253 24.7528 19.1826 24.5321 20.0116L26.4648 20.5261ZM23.6365 23.3701C25.0169 22.9986 26.0978 21.908 26.465 20.5255L24.532 20.0121C24.3471 20.7081 23.8017 21.2544 23.1168 21.4388L23.6365 23.3701ZM14 22.9091C14 23.9091 14.0001 23.9091 14.0002 23.9091C14.0002 23.9091 14.0003 23.9091 14.0005 23.9091C14.0007 23.9091 14.0011 23.9091 14.0016 23.9091C14.0026 23.9091 14.0041 23.9091 14.006 23.9091C14.0098 23.9091 14.0154 23.9091 14.0227 23.9091C14.0373 23.9091 14.0589 23.909 14.087 23.909C14.1432 23.9088 14.2255 23.9086 14.3309 23.9081C14.5415 23.9071 14.844 23.9051 15.2127 23.9011C15.9496 23.8932 16.953 23.8773 18.0164 23.8456C19.0781 23.8138 20.2078 23.766 21.1952 23.6935C22.1542 23.6231 23.0646 23.5243 23.637 23.3699L23.1163 21.4389C22.7529 21.5369 22.0233 21.6273 21.0487 21.6989C20.1025 21.7683 19.005 21.8151 17.9566 21.8465C16.9098 21.8777 15.9199 21.8934 15.1911 21.9013C14.827 21.9052 14.5285 21.9071 14.3214 21.9081C14.2179 21.9086 14.1372 21.9088 14.0825 21.909C14.0552 21.909 14.0344 21.9091 14.0205 21.9091C14.0136 21.9091 14.0083 21.9091 14.0049 21.9091C14.0032 21.9091 14.0019 21.9091 14.0011 21.9091C14.0007 21.9091 14.0004 21.9091 14.0002 21.9091C14.0001 21.9091 14.0001 21.9091 14 21.9091C14 21.9091 14 21.9091 14 22.9091ZM4.36301 23.3699C4.93542 23.5243 5.84578 23.6231 6.80483 23.6935C7.79215 23.766 8.92188 23.8138 9.98365 23.8456C11.047 23.8773 12.0504 23.8932 12.7873 23.9011C13.156 23.9051 13.4585 23.9071 13.6691 23.9081C13.7745 23.9086 13.8568 23.9088 13.913 23.909C13.9411 23.909 13.9627 23.9091 13.9773 23.9091C13.9846 23.9091 13.9902 23.9091 13.994 23.9091C13.9959 23.9091 13.9974 23.9091 13.9984 23.9091C13.9989 23.9091 13.9993 23.9091 13.9995 23.9091C13.9997 23.9091 13.9998 23.9091 13.9998 23.9091C13.9999 23.9091 14 23.9091 14 22.9091C14 21.9091 14 21.9091 14 21.9091C13.9999 21.9091 13.9999 21.9091 13.9998 21.9091C13.9996 21.9091 13.9993 21.9091 13.9989 21.9091C13.9981 21.9091 13.9968 21.9091 13.9951 21.9091C13.9917 21.9091 13.9864 21.9091 13.9795 21.9091C13.9656 21.9091 13.9448 21.909 13.9175 21.909C13.8628 21.9088 13.7821 21.9086 13.6786 21.9081C13.4715 21.9071 13.173 21.9052 12.8089 21.9013C12.0801 21.8934 11.0902 21.8777 10.0434 21.8465C8.99497 21.8151 7.89751 21.7683 6.95125 21.6989C5.97672 21.6273 5.24711 21.5369 4.88372 21.4389L4.36301 23.3699ZM1.53505 20.5255C1.90224 21.9081 2.98325 22.9986 4.36346 23.37L4.88326 21.4388C4.19839 21.2544 3.65285 20.708 3.46804 20.0121L1.53505 20.5255ZM2 14.4545C1 14.4545 1 14.4546 1 14.4547C1 14.4548 1 14.4549 1 14.455C1 14.4552 1 14.4554 1 14.4558C1 14.4564 1 14.4573 1 14.4584C1 14.4606 1.00001 14.4638 1.00002 14.4679C1.00003 14.4761 1.00007 14.488 1.00013 14.5033C1.00026 14.534 1.00051 14.5787 1.00102 14.6359C1.00203 14.7503 1.00403 14.9148 1.00803 15.1178C1.01602 15.5233 1.03199 16.0844 1.06402 16.7066C1.12653 17.9212 1.25435 19.4711 1.5352 20.5261L3.46789 20.0116C3.2472 19.1826 3.12424 17.8253 3.06137 16.6038C3.0307 16.0079 3.01533 15.4687 3.00764 15.0784C3.0038 14.8835 3.00189 14.7262 3.00094 14.6183C3.00047 14.5643 3.00023 14.5227 3.00011 14.495C3.00006 14.4811 3.00003 14.4706 3.00001 14.4638C3.00001 14.4604 3 14.4579 3 14.4564C3 14.4556 3 14.4551 3 14.4548C3 14.4546 3 14.4545 3 14.4545C3 14.4545 3 14.4545 3 14.4545C3 14.4545 3 14.4545 2 14.4545ZM1.53521 8.38312C1.25435 9.438 1.12653 10.9878 1.06402 12.2025C1.03199 12.8247 1.01602 13.3858 1.00803 13.7913C1.00403 13.9943 1.00203 14.1588 1.00102 14.2732C1.00051 14.3304 1.00026 14.375 1.00013 14.4058C1.00007 14.4211 1.00003 14.433 1.00002 14.4412C1.00001 14.4453 1 14.4484 1 14.4507C1 14.4518 1 14.4527 1 14.4533C1 14.4536 1 14.4539 1 14.4541C1 14.4542 1 14.4543 1 14.4544C1 14.4545 1 14.4545 2 14.4545C3 14.4545 3 14.4546 3 14.4546C3 14.4546 3 14.4546 3 14.4546C3 14.4546 3 14.4545 3 14.4543C3 14.454 3 14.4535 3 14.4527C3 14.4511 3.00001 14.4487 3.00001 14.4453C3.00003 14.4385 3.00006 14.428 3.00011 14.4141C3.00023 14.3863 3.00047 14.3447 3.00094 14.2908C3.00189 14.1829 3.0038 14.0256 3.00764 13.8307C3.01533 13.4404 3.0307 12.9011 3.06137 12.3053C3.12424 11.0838 3.2472 9.72654 3.46788 8.8977L1.53521 8.38312ZM4.36358 5.53915C2.98323 5.91049 1.90222 7.00105 1.53504 8.38376L3.46805 8.89706C3.65287 8.20104 4.1984 7.65469 4.88315 7.47049L4.36358 5.53915ZM14 6C14 5 13.9999 5 13.9998 5C13.9998 5 13.9997 5 13.9995 5C13.9993 5 13.9989 5 13.9984 5C13.9974 5 13.9959 5 13.994 5C13.9902 5 13.9846 5.00001 13.9773 5.00002C13.9627 5.00003 13.9411 5.00006 13.913 5.00013C13.8568 5.00025 13.7745 5.0005 13.6691 5.001C13.4585 5.00199 13.156 5.00398 12.7873 5.00795C12.0504 5.01588 11.047 5.03175 9.98364 5.06355C8.92187 5.0953 7.79214 5.14316 6.80481 5.21566C5.84576 5.28608 4.93537 5.38492 4.36294 5.53932L4.88378 7.47031C5.24715 7.3723 5.97674 7.28184 6.95127 7.21029C7.89753 7.1408 8.99498 7.09401 10.0434 7.06266C11.0902 7.03135 12.0801 7.01567 12.8089 7.00783C13.173 7.00391 13.4715 7.00195 13.6786 7.00097C13.7821 7.00049 13.8628 7.00024 13.9175 7.00012C13.9448 7.00006 13.9656 7.00003 13.9795 7.00001C13.9864 7.00001 13.9917 7 13.9951 7C13.9968 7 13.9981 7 13.9989 7C13.9993 7 13.9996 7 13.9998 7C13.9999 7 13.9999 7 14 7C14 7 14 7 14 6ZM23.6371 5.53932C23.0646 5.38492 22.1542 5.28608 21.1952 5.21566C20.2079 5.14316 19.0781 5.0953 18.0164 5.06355C16.953 5.03175 15.9496 5.01588 15.2127 5.00795C14.844 5.00398 14.5415 5.00199 14.3309 5.001C14.2255 5.0005 14.1432 5.00025 14.087 5.00013C14.0589 5.00006 14.0373 5.00003 14.0227 5.00002C14.0154 5.00001 14.0098 5 14.006 5C14.0041 5 14.0026 5 14.0016 5C14.0011 5 14.0007 5 14.0005 5C14.0003 5 14.0002 5 14.0002 5C14.0001 5 14 5 14 6C14 7 14 7 14 7C14.0001 7 14.0001 7 14.0002 7C14.0004 7 14.0007 7 14.0011 7C14.0019 7 14.0032 7 14.0049 7C14.0083 7 14.0136 7.00001 14.0205 7.00001C14.0344 7.00003 14.0552 7.00006 14.0825 7.00012C14.1372 7.00024 14.2179 7.00049 14.3214 7.00097C14.5285 7.00195 14.827 7.00391 15.1911 7.00783C15.9199 7.01567 16.9098 7.03135 17.9566 7.06266C19.005 7.09401 20.1025 7.1408 21.0487 7.21029C22.0233 7.28184 22.7529 7.3723 23.1162 7.47031L23.6371 5.53932ZM12.0399 18.8922L18.3126 15.3238L17.3237 13.5854L11.051 17.1538L12.0399 18.8922ZM10.5455 10.886V18.023H12.5455V10.886H10.5455ZM18.3127 13.5854L12.0399 10.0168L11.051 11.7552L17.3237 15.3238L18.3127 13.5854Z" fill="white" mask="url(#path-1-inside-1)"/>
</svg>
