<?xml version="1.0" encoding="UTF-8" standalone="no"?>
<svg width="16px" height="15px" viewBox="0 0 16 15" version="1.1" xmlns="http://www.w3.org/2000/svg" xmlns:xlink="http://www.w3.org/1999/xlink" xmlns:sketch="http://www.bohemiancoding.com/sketch/ns">
    <!-- Generator: Sketch 3.3.3 (12072) - http://www.bohemiancoding.com/sketch -->
    <title>icn-settings-sm</title>
    <desc>Created with Sketch.</desc>
    <defs></defs>
    <g id="guide" stroke="none" stroke-width="1" fill="none" fill-rule="evenodd" sketch:type="MSPage">
        <g id="Artboard-53" sketch:type="MSArtboardGroup" transform="translate(-10.000000, -10.000000)" fill="#717882">
            <path d="M23.6423758,18.235 C23.6723758,17.995 23.6948758,17.755 23.6948758,17.5 C23.6948758,17.245 23.6723758,17.005 23.6423758,16.765 L25.2248758,15.5275 C25.3673758,15.415 25.4048758,15.2125 25.3148758,15.0475 L23.8148758,12.4525 C23.7248758,12.2875 23.5223758,12.2275 23.3573758,12.2875 L21.4898758,13.0375 C21.0998758,12.7375 20.6798758,12.49 20.2223758,12.3025 L19.9373758,10.315 C19.9148758,10.135 19.7573758,10 19.5698758,10 L16.5698758,10 C16.3823758,10 16.2248758,10.135 16.2023758,10.315 L15.9173758,12.3025 C15.4598758,12.49 15.0398758,12.745 14.6498758,13.0375 L12.7823758,12.2875 C12.6098758,12.22 12.4148758,12.2875 12.3248758,12.4525 L10.8248758,15.0475 C10.7273758,15.2125 10.7723758,15.415 10.9148758,15.5275 L12.4973758,16.765 C12.4673758,17.005 12.4448758,17.2525 12.4448758,17.5 C12.4448758,17.7475 12.4673758,17.995 12.4973758,18.235 L10.9148758,19.4725 C10.7723758,19.585 10.7348758,19.7875 10.8248758,19.9525 L12.3248758,22.5475 C12.4148758,22.7125 12.6173758,22.7725 12.7823758,22.7125 L14.6498758,21.9625 C15.0398758,22.2625 15.4598758,22.51 15.9173758,22.6975 L16.2023758,24.685 C16.2248758,24.865 16.3823758,25 16.5698758,25 L19.5698758,25 C19.7573758,25 19.9148758,24.865 19.9373758,24.685 L20.2223758,22.6975 C20.6798758,22.51 21.0998758,22.255 21.4898758,21.9625 L23.3573758,22.7125 C23.5298758,22.78 23.7248758,22.7125 23.8148758,22.5475 L25.3148758,19.9525 C25.4048758,19.7875 25.3673758,19.585 25.2248758,19.4725 L23.6423758,18.235 L23.6423758,18.235 Z M18.0698758,20.125 C16.6223758,20.125 15.4448758,18.9475 15.4448758,17.5 C15.4448758,16.0525 16.6223758,14.875 18.0698758,14.875 C19.5173758,14.875 20.6948758,16.0525 20.6948758,17.5 C20.6948758,18.9475 19.5173758,20.125 18.0698758,20.125 L18.0698758,20.125 Z" id="icn-settings-sm" sketch:type="MSShapeGroup"></path>
        </g>
    </g>
</svg>