<?xml version="1.0" encoding="UTF-8" standalone="no"?>
<svg width="24px" height="24px" viewBox="0 0 24 24" version="1.1" xmlns="http://www.w3.org/2000/svg" xmlns:xlink="http://www.w3.org/1999/xlink" xmlns:sketch="http://www.bohemiancoding.com/sketch/ns">
    <!-- Generator: Sketch 3.3.3 (12072) - http://www.bohemiancoding.com/sketch -->
    <title>icn-menu</title>
    <desc>Created with Sketch.</desc>
    <defs></defs>
    <g id="guide" stroke="none" stroke-width="1" fill="none" fill-rule="evenodd" sketch:type="MSPage">
        <g id="icn-menu" sketch:type="MSArtboardGroup" fill="#999FAA">
            <path d="M3,6 C3,5.44771525 3.44494629,5 3.99339768,5 L20.0066023,5 C20.5552407,5 21,5.44386482 21,6 C21,6.55228475 20.5550537,7 20.0066023,7 L3.99339768,7 C3.44475929,7 3,6.55613518 3,6 Z M3,12 C3,11.4477153 3.44494629,11 3.99339768,11 L20.0066023,11 C20.5552407,11 21,11.4438648 21,12 C21,12.5522847 20.5550537,13 20.0066023,13 L3.99339768,13 C3.44475929,13 3,12.5561352 3,12 Z M3,18 C3,17.4477153 3.44494629,17 3.99339768,17 L20.0066023,17 C20.5552407,17 21,17.4438648 21,18 C21,18.5522847 20.5550537,19 20.0066023,19 L3.99339768,19 C3.44475929,19 3,18.5561352 3,18 Z" id="Rectangle-14" sketch:type="MSShapeGroup"></path>
        </g>
    </g>
</svg>