<?xml version="1.0" encoding="UTF-8" standalone="no"?>
<svg width="22px" height="14px" viewBox="0 0 22 14" version="1.1" xmlns="http://www.w3.org/2000/svg" xmlns:xlink="http://www.w3.org/1999/xlink" xmlns:sketch="http://www.bohemiancoding.com/sketch/ns">
    <!-- Generator: Sketch 3.4 (15575) - http://www.bohemiancoding.com/sketch -->
    <title>Shape</title>
    <desc>Created with Sketch.</desc>
    <defs></defs>
    <g id="using" stroke="none" stroke-width="1" fill="none" fill-rule="evenodd" sketch:type="MSPage">
        <g id="Planning---Audience-1" sketch:type="MSArtboardGroup" transform="translate(-1223.000000, -44.000000)" fill="#FFFFFF">
            <g id="Oval-2-+-Shape-+-Shape" sketch:type="MSLayerGroup" transform="translate(1208.000000, 25.000000)">
                <path d="M26,28 C24.57,27.33 22.7,27 21.5,27 C19.33,27 15,28.08 15,30.25 L15,33 L37,33 L37,30.25 C37,28.08 32.67,27 30.5,27 C29.3,27 27.43,27.34 26,28 Z M16.5,31.5 L16.5,30.25 C16.5,29.71 19.06,28.5 21.5,28.5 C23.94,28.5 26.5,29.71 26.5,30.25 L26.5,31.5 L16.5,31.5 Z M35.5,31.5 L28,31.5 L28,30.25 C28,29.79 27.8,29.39 27.48,29.03 C28.36,28.73 29.44,28.5 30.5,28.5 C32.94,28.5 35.5,29.71 35.5,30.25 L35.5,31.5 L35.5,31.5 Z M21.5,26 C23.43,26 25,24.43 25,22.5 C25,20.57 23.43,19 21.5,19 C19.57,19 18,20.57 18,22.5 C18,24.43 19.57,26 21.5,26 L21.5,26 Z M21.5,20.5 C22.6,20.5 23.5,21.4 23.5,22.5 C23.5,23.6 22.6,24.5 21.5,24.5 C20.4,24.5 19.5,23.6 19.5,22.5 C19.5,21.4 20.4,20.5 21.5,20.5 L21.5,20.5 Z M30.5,26 C32.43,26 34,24.43 34,22.5 C34,20.57 32.43,19 30.5,19 C28.57,19 27,20.57 27,22.5 C27,24.43 28.57,26 30.5,26 L30.5,26 Z M30.5,20.5 C31.6,20.5 32.5,21.4 32.5,22.5 C32.5,23.6 31.6,24.5 30.5,24.5 C29.4,24.5 28.5,23.6 28.5,22.5 C28.5,21.4 29.4,20.5 30.5,20.5 L30.5,20.5 Z" id="Shape" sketch:type="MSShapeGroup"></path>
            </g>
        </g>
    </g>
</svg>