<?xml version="1.0" encoding="UTF-8" standalone="no"?>
<svg width="24px" height="24px" viewBox="0 0 24 24" version="1.1" xmlns="http://www.w3.org/2000/svg" xmlns:xlink="http://www.w3.org/1999/xlink" xmlns:sketch="http://www.bohemiancoding.com/sketch/ns">
    <!-- Generator: Sketch 3.3.3 (12072) - http://www.bohemiancoding.com/sketch -->
    <title>icn-settings</title>
    <desc>Created with Sketch.</desc>
    <defs></defs>
    <g id="guide" stroke="none" stroke-width="1" fill="none" fill-rule="evenodd" sketch:type="MSPage">
        <g id="icn-settings" sketch:type="MSArtboardGroup" fill="#BBBFC8">
            <path d="M20.1593316,12.98 C20.1993316,12.66 20.2293316,12.34 20.2293316,12 C20.2293316,11.66 20.1993316,11.34 20.1593316,11.02 L22.2693316,9.37 C22.4593316,9.22 22.5093316,8.95 22.3893316,8.73 L20.3893316,5.27 C20.2693316,5.05 19.9993316,4.97 19.7793316,5.05 L17.2893316,6.05 C16.7693316,5.65 16.2093316,5.32 15.5993316,5.07 L15.2193316,2.42 C15.1893316,2.18 14.9793316,2 14.7293316,2 L10.7293316,2 C10.4793316,2 10.2693316,2.18 10.2393316,2.42 L9.8593316,5.07 C9.2493316,5.32 8.6893316,5.66 8.1693316,6.05 L5.6793316,5.05 C5.4493316,4.96 5.1893316,5.05 5.0693316,5.27 L3.0693316,8.73 C2.9393316,8.95 2.9993316,9.22 3.1893316,9.37 L5.2993316,11.02 C5.2593316,11.34 5.2293316,11.67 5.2293316,12 C5.2293316,12.33 5.2593316,12.66 5.2993316,12.98 L3.1893316,14.63 C2.9993316,14.78 2.9493316,15.05 3.0693316,15.27 L5.0693316,18.73 C5.1893316,18.95 5.4593316,19.03 5.6793316,18.95 L8.1693316,17.95 C8.6893316,18.35 9.2493316,18.68 9.8593316,18.93 L10.2393316,21.58 C10.2693316,21.82 10.4793316,22 10.7293316,22 L14.7293316,22 C14.9793316,22 15.1893316,21.82 15.2193316,21.58 L15.5993316,18.93 C16.2093316,18.68 16.7693316,18.34 17.2893316,17.95 L19.7793316,18.95 C20.0093316,19.04 20.2693316,18.95 20.3893316,18.73 L22.3893316,15.27 C22.5093316,15.05 22.4593316,14.78 22.2693316,14.63 L20.1593316,12.98 L20.1593316,12.98 Z M12.7293316,15.5 C10.7993316,15.5 9.2293316,13.93 9.2293316,12 C9.2293316,10.07 10.7993316,8.5 12.7293316,8.5 C14.6593316,8.5 16.2293316,10.07 16.2293316,12 C16.2293316,13.93 14.6593316,15.5 12.7293316,15.5 L12.7293316,15.5 Z" id="Shape-Copy-2" sketch:type="MSShapeGroup"></path>
        </g>
    </g>
</svg>