<?xml version="1.0" encoding="UTF-8" standalone="no"?>
<svg width="20px" height="20px" viewBox="0 0 20 20" version="1.1" xmlns="http://www.w3.org/2000/svg" xmlns:xlink="http://www.w3.org/1999/xlink" xmlns:sketch="http://www.bohemiancoding.com/sketch/ns">
    <!-- Generator: Sketch 3.4 (15575) - http://www.bohemiancoding.com/sketch -->
    <title>Shape</title>
    <desc>Created with Sketch.</desc>
    <defs></defs>
    <g id="older" stroke="none" stroke-width="1" fill="none" fill-rule="evenodd" sketch:type="MSPage">
        <g id="Performance---report-errrors" sketch:type="MSArtboardGroup" transform="translate(-320.000000, -403.000000)" fill="#717882">
            <path d="M329,416 L331,416 L331,418 L329,418 L329,416 Z M329,408 L331,408 L331,414 L329,414 L329,408 Z M329.99,403 C324.47,403 320,407.48 320,413 C320,418.52 324.47,423 329.99,423 C335.52,423 340,418.52 340,413 C340,407.48 335.52,403 329.99,403 L329.99,403 Z M330,421 C325.58,421 322,417.42 322,413 C322,408.58 325.58,405 330,405 C334.42,405 338,408.58 338,413 C338,417.42 334.42,421 330,421 L330,421 Z" id="Shape" sketch:type="MSShapeGroup"></path>
        </g>
    </g>
</svg>