<?xml version="1.0" encoding="UTF-8" standalone="no"?>
<svg width="24px" height="24px" viewBox="0 0 24 24" version="1.1" xmlns="http://www.w3.org/2000/svg" xmlns:xlink="http://www.w3.org/1999/xlink" xmlns:sketch="http://www.bohemiancoding.com/sketch/ns">
    <!-- Generator: Sketch 3.3.3 (12072) - http://www.bohemiancoding.com/sketch -->
    <title>icn-add</title>
    <desc>Created with Sketch.</desc>
    <defs></defs>
    <g id="guide" stroke="none" stroke-width="1" fill="none" fill-rule="evenodd" sketch:type="MSPage">
        <g id="icn-add" sketch:type="MSArtboardGroup" fill="#BBBFC8">
            <path d="M13,11 L13,5.49826741 C13,5.21990657 12.7740451,5 12.4953156,5 L11.5046844,5 C11.214035,5 11,5.22308192 11,5.49826741 L11,11 L5.49826741,11 C5.21990657,11 5,11.2259549 5,11.5046844 L5,12.4953156 C5,12.785965 5.22308192,13 5.49826741,13 L11,13 L11,18.5017326 C11,18.7800934 11.2259549,19 11.5046844,19 L12.4953156,19 C12.785965,19 13,18.7769181 13,18.5017326 L13,13 L18.5017326,13 C18.7800934,13 19,12.7740451 19,12.4953156 L19,11.5046844 C19,11.214035 18.7769181,11 18.5017326,11 L13,11 Z" id="Rectangle-18" sketch:type="MSShapeGroup"></path>
        </g>
    </g>
</svg>