<?xml version="1.0" encoding="UTF-8" standalone="no"?>
<svg width="25px" height="26px" viewBox="0 0 25 26" version="1.1" xmlns="http://www.w3.org/2000/svg" xmlns:xlink="http://www.w3.org/1999/xlink" xmlns:sketch="http://www.bohemiancoding.com/sketch/ns">
    <!-- Generator: Sketch 3.3.3 (12072) - http://www.bohemiancoding.com/sketch -->
    <title>icn-radio</title>
    <desc>Created with Sketch.</desc>
    <defs></defs>
    <g id="guide" stroke="none" stroke-width="1" fill="none" fill-rule="evenodd" sketch:type="MSPage">
        <g id="icn-radio" sketch:type="MSArtboardGroup" transform="translate(0.000000, 0.500000)" fill="#0091EA">
            <g id="Shape-Copy-2-+-Shape-Copy" sketch:type="MSLayerGroup">
                <path d="M12.5,2.5 L12.5,2.5 C6.9805695,2.5 2.5,6.9805695 2.5,12.5 C2.5,18.0194305 6.9805695,22.5 12.5,22.5 C18.0194305,22.5 22.5,18.0194305 22.5,12.5 C22.5,6.9805695 18.0194305,2.5 12.5,2.5 L12.5,2.5 Z M12.5,0.5 L12.5,0.5 C19.124,0.5 24.5,5.876 24.5,12.5 C24.5,19.124 19.124,24.5 12.5,24.5 C5.876,24.5 0.5,19.124 0.5,12.5 C0.5,5.876 5.876,0.5 12.5,0.5 L12.5,0.5 Z" id="Shape" sketch:type="MSShapeGroup"></path>
                <path d="M12.5,5.75 C8.774,5.75 5.75,8.774 5.75,12.5 C5.75,16.226 8.774,19.25 12.5,19.25 C16.226,19.25 19.25,16.226 19.25,12.5 C19.25,8.774 16.226,5.75 12.5,5.75 L12.5,5.75 Z" id="Shape-Copy" sketch:type="MSShapeGroup"></path>
            </g>
        </g>
    </g>
</svg>