<?xml version="1.0" encoding="UTF-8" standalone="no"?>
<svg width="32px" height="32px" viewBox="0 0 32 32" version="1.1" xmlns="http://www.w3.org/2000/svg" xmlns:xlink="http://www.w3.org/1999/xlink">
    <!-- Generator: Sketch 3.7.1 (28215) - http://www.bohemiancoding.com/sketch -->
    <title>icn-avatar-audience</title>
    <desc>Created with Sketch.</desc>
    <defs></defs>
    <g id="influencers" stroke="none" stroke-width="1" fill="none" fill-rule="evenodd">
        <g id="influencers---results-copy" transform="translate(-622.000000, -555.000000)">
            <g id="Group-12" transform="translate(555.000000, 535.000000)">
                <g id="icn-avatar-audience" transform="translate(67.000000, 20.000000)">
                    <circle id="Oval-105" fill="#E6E9F0" cx="16" cy="16" r="16"></circle>
                    <path d="M19.8571429,15.1428571 C21.28,15.1428571 22.42,13.9942857 22.42,12.5714286 C22.42,11.1485714 21.28,10 19.8571429,10 C18.4342857,10 17.2857143,11.1485714 17.2857143,12.5714286 C17.2857143,13.9942857 18.4342857,15.1428571 19.8571429,15.1428571 L19.8571429,15.1428571 Z M13,15.1428571 C14.4228571,15.1428571 15.5628571,13.9942857 15.5628571,12.5714286 C15.5628571,11.1485714 14.4228571,10 13,10 C11.5771429,10 10.4285714,11.1485714 10.4285714,12.5714286 C10.4285714,13.9942857 11.5771429,15.1428571 13,15.1428571 L13,15.1428571 Z M13,16.8571429 C11.0028571,16.8571429 7,17.86 7,19.8571429 L7,22 L19,22 L19,19.8571429 C19,17.86 14.9971429,16.8571429 13,16.8571429 L13,16.8571429 Z M19.8571429,16.8571429 C19.6085714,16.8571429 19.3257143,16.8742857 19.0257143,16.9 C20.02,17.62 20.7142857,18.5885714 20.7142857,19.8571429 L20.7142857,22 L25.8571429,22 L25.8571429,19.8571429 C25.8571429,17.86 21.8542857,16.8571429 19.8571429,16.8571429 L19.8571429,16.8571429 Z" id="Shape" fill="#B9BCCB"></path>
                </g>
            </g>
        </g>
    </g>
</svg>