<?xml version="1.0" encoding="UTF-8" standalone="no"?>
<svg width="19px" height="17px" viewBox="0 0 19 17" version="1.1" xmlns="http://www.w3.org/2000/svg" xmlns:xlink="http://www.w3.org/1999/xlink" xmlns:sketch="http://www.bohemiancoding.com/sketch/ns">
    <!-- Generator: Sketch 3.4 (15575) - http://www.bohemiancoding.com/sketch -->
    <title>Rectangle 270</title>
    <desc>Created with Sketch.</desc>
    <defs></defs>
    <g id="using" stroke="none" stroke-width="1" fill="none" fill-rule="evenodd" sketch:type="MSPage">
        <g id="Planning---sidebar---audience-1" sketch:type="MSArtboardGroup" transform="translate(-79.000000, -595.000000)" fill-opacity="0.400000006" fill="#F0F1F5">
            <g id="Group" sketch:type="MSLayerGroup" transform="translate(50.000000, 0.000000)">
                <path d="M34,603.035444 L34,594.50965 C34,594.227653 33.7761424,594 33.5,594 C33.2319336,594 33,594.228178 33,594.50965 L33,603.035444 C31.3038529,603.278059 30,604.736764 30,606.5 C30,608.263236 31.3038529,609.721941 33,609.964556 L33,612.509521 C33,612.784943 33.2238576,613 33.5,613 C33.7680664,613 34,612.780405 34,612.509521 L34,609.964556 C35.6961471,609.721941 37,608.263236 37,606.5 C37,604.736764 35.6961471,603.278059 34,603.035444 Z M44,597.035444 L44,594.490479 C44,594.215057 43.7761424,594 43.5,594 C43.2319336,594 43,594.219595 43,594.490479 L43,597.035444 C41.3038529,597.278059 40,598.736764 40,600.5 C40,602.263236 41.3038529,603.721941 43,603.964556 L43,612.49035 C43,612.771822 43.2319336,613 43.5,613 C43.7761424,613 44,612.772347 44,612.49035 L44,603.964556 C45.6961471,603.721941 47,602.263236 47,600.5 C47,598.736764 45.6961471,597.278059 44,597.035444 Z M33.5,608.25 C32.5335017,608.25 31.75,607.466498 31.75,606.5 C31.75,605.533502 32.5335017,604.75 33.5,604.75 C34.4664983,604.75 35.25,605.533502 35.25,606.5 C35.25,607.466498 34.4664983,608.25 33.5,608.25 Z M43.5,602.25 C42.5335017,602.25 41.75,601.466498 41.75,600.5 C41.75,599.533502 42.5335017,598.75 43.5,598.75 C44.4664983,598.75 45.25,599.533502 45.25,600.5 C45.25,601.466498 44.4664983,602.25 43.5,602.25 L43.5,602.25 Z" id="Rectangle-270" sketch:type="MSShapeGroup" transform="translate(38.500000, 603.500000) rotate(-90.000000) translate(-38.500000, -603.500000) "></path>
            </g>
        </g>
    </g>
</svg>