<?xml version="1.0" encoding="UTF-8" standalone="no"?>
<svg width="24px" height="24px" viewBox="0 0 24 24" version="1.1" xmlns="http://www.w3.org/2000/svg" xmlns:xlink="http://www.w3.org/1999/xlink" xmlns:sketch="http://www.bohemiancoding.com/sketch/ns">
    <!-- Generator: Sketch 3.3.3 (12072) - http://www.bohemiancoding.com/sketch -->
    <title>icn-options</title>
    <desc>Created with Sketch.</desc>
    <defs></defs>
    <g id="guide" stroke="none" stroke-width="1" fill="none" fill-rule="evenodd" sketch:type="MSPage">
        <g id="icn-options" sketch:type="MSArtboardGroup" fill="#BBBFC8">
            <path d="M2.5,14 C3.88071187,14 5,12.8807119 5,11.5 C5,10.1192881 3.88071187,9 2.5,9 C1.11928813,9 0,10.1192881 0,11.5 C0,12.8807119 1.11928813,14 2.5,14 Z M11.5,14 C12.8807119,14 14,12.8807119 14,11.5 C14,10.1192881 12.8807119,9 11.5,9 C10.1192881,9 9,10.1192881 9,11.5 C9,12.8807119 10.1192881,14 11.5,14 Z M20.5,14 C21.8807119,14 23,12.8807119 23,11.5 C23,10.1192881 21.8807119,9 20.5,9 C19.1192881,9 18,10.1192881 18,11.5 C18,12.8807119 19.1192881,14 20.5,14 Z" id="Oval-23" sketch:type="MSShapeGroup"></path>
        </g>
    </g>
</svg>