<?xml version="1.0" encoding="UTF-8" standalone="no"?>
<svg width="24px" height="24px" viewBox="0 0 24 24" version="1.1" xmlns="http://www.w3.org/2000/svg" xmlns:xlink="http://www.w3.org/1999/xlink" xmlns:sketch="http://www.bohemiancoding.com/sketch/ns">
    <!-- Generator: Sketch 3.3.3 (12072) - http://www.bohemiancoding.com/sketch -->
    <title>icn-search</title>
    <desc>Created with Sketch.</desc>
    <defs></defs>
    <g id="guide" stroke="none" stroke-width="1" fill="none" fill-rule="evenodd" sketch:type="MSPage">
        <g id="icn-search" sketch:type="MSArtboardGroup" fill="#BBBFC8">
            <path d="M17.0836309,17.0836309 C20.3054564,13.8618055 20.3054564,8.63819446 17.0836309,5.41636906 C13.8618055,2.19454365 8.63819446,2.19454365 5.41636906,5.41636906 C2.19454365,8.63819446 2.19454365,13.8618055 5.41636906,17.0836309 C8.63819446,20.3054564 13.8618055,20.3054564 17.0836309,17.0836309 L17.0836309,17.0836309 L17.0836309,17.0836309 Z M16.0229708,16.0229708 C13.3869318,18.6590097 9.1130682,18.6590097 6.47702923,16.0229708 C3.84099026,13.3869318 3.84099026,9.1130682 6.47702923,6.47702923 C9.1130682,3.84099026 13.3869318,3.84099026 16.0229708,6.47702923 C18.6590097,9.1130682 18.6590097,13.3869318 16.0229708,16.0229708 L16.0229708,16.0229708 Z M16.3765242,17.4371843 L19.9120581,20.9727182 C20.2049513,21.2656115 20.679825,21.2656115 20.9727182,20.9727182 C21.2656115,20.679825 21.2656115,20.2049513 20.9727182,19.9120581 L17.4371843,16.3765242 C17.1442911,16.0836309 16.6694174,16.0836309 16.3765242,16.3765242 C16.0836309,16.6694174 16.0836309,17.1442911 16.3765242,17.4371843 L16.3765242,17.4371843 Z" id="Shape" sketch:type="MSShapeGroup"></path>
        </g>
    </g>
</svg>