<svg width="24" height="24" viewBox="0 0 24 24" fill="none" xmlns="http://www.w3.org/2000/svg">
<path opacity="0.4" d="M11.4416 21.0104C13.6129 20.244 15.2436 18.3327 15.6073 16.0017C15.5099 18.4552 13.7615 20.4846 11.4416 21.0104ZM9.0016 12.8479C8.0648 13.2447 7.35765 14.0776 7.13501 15.0919C7.13388 15.0631 7.13331 15.0341 7.13331 15.005C7.13331 13.9075 7.94498 12.9993 9.0016 12.8479Z" fill="#4B5564" stroke="#4B5564"/>
<path d="M15.1835 8.04743H13.6232L14.6836 8.8048V15.0142C14.6836 17.9728 12.284 20.3715 9.32337 20.3715C8.23646 20.3715 7.22641 20.0489 6.38248 19.4942C5.4579 18.5313 4.89068 17.2253 4.89068 15.7855C4.89068 13.0378 6.96063 10.7728 9.62741 10.4642V11.8411C9.5242 11.8309 9.41958 11.8257 9.31384 11.8257C7.5573 11.8257 6.13318 13.249 6.13318 15.005C6.13318 16.2064 6.79983 17.2509 7.7812 17.7913C8.36391 18.5013 9.24969 18.9557 10.2417 18.9557C11.9946 18.9557 13.4162 17.5382 13.4224 15.7872V15.7854V3.62866H14.8307C15.1508 4.83228 15.9139 5.85388 16.9338 6.50973C17.5184 7.13041 18.2627 7.60036 19.1019 7.85357V9.44325C17.8437 9.35593 16.6765 8.94157 15.6836 8.28459V8.04743H15.1836H15.1835Z" fill="#4B5564" stroke="#4B5564"/>
<path opacity="0.2" d="M10.5541 17.9334C11.4935 17.5354 12.2019 16.6989 12.4224 15.6807V15.7845C12.4182 16.8782 11.6078 17.7823 10.5541 17.9334ZM3.96719 14.7967C4.06511 12.3448 5.81223 10.3165 8.13076 9.79008C5.96062 10.5568 4.33111 12.4671 3.96719 14.7967Z" fill="#4B5564" stroke="#4B5564"/>
</svg>
