<?xml version="1.0" encoding="UTF-8" standalone="no"?>
<svg
   xmlns:dc="http://purl.org/dc/elements/1.1/"
   xmlns:cc="http://creativecommons.org/ns#"
   xmlns:rdf="http://www.w3.org/1999/02/22-rdf-syntax-ns#"
   xmlns:svg="http://www.w3.org/2000/svg"
   xmlns="http://www.w3.org/2000/svg"
   xmlns:sodipodi="http://sodipodi.sourceforge.net/DTD/sodipodi-0.dtd"
   xmlns:inkscape="http://www.inkscape.org/namespaces/inkscape"
   inkscape:version="1.0 (4035a4f, 2020-05-01)"
   sodipodi:docname="icn-tiktok.svg"
   version="1.1"
   width="512"
   viewBox="0 0 512 512"
   height="512"
   enable-background="new 0 0 512 512"
   id="Capa_1">
  <metadata
     id="metadata3927">
    <rdf:RDF>
      <cc:Work
         rdf:about="">
        <dc:format>image/svg+xml</dc:format>
        <dc:type
           rdf:resource="http://purl.org/dc/dcmitype/StillImage" />
        <dc:title></dc:title>
      </cc:Work>
    </rdf:RDF>
  </metadata>
  <defs
     id="defs3925" />
  <sodipodi:namedview
     inkscape:current-layer="Capa_1"
     inkscape:window-maximized="0"
     inkscape:window-y="23"
     inkscape:window-x="0"
     inkscape:cy="256"
     inkscape:cx="256"
     inkscape:zoom="1.203125"
     showgrid="false"
     id="namedview3923"
     inkscape:window-height="716"
     inkscape:window-width="1228"
     inkscape:pageshadow="2"
     inkscape:pageopacity="0"
     guidetolerance="10"
     gridtolerance="10"
     objecttolerance="10"
     borderopacity="1"
     bordercolor="#666666"
     pagecolor="#ffffff" />
  <g
     id="g3920">
    <path
       id="path3918"
       d="m480.32 128.39c-29.22 0-56.18-9.68-77.83-26.01-24.83-18.72-42.67-46.18-48.97-77.83-1.56-7.82-2.4-15.89-2.48-24.16h-83.47v228.08l-.1 124.93c0 33.4-21.75 61.72-51.9 71.68-8.75 2.89-18.2 4.26-28.04 3.72-12.56-.69-24.33-4.48-34.56-10.6-21.77-13.02-36.53-36.64-36.93-63.66-.63-42.23 33.51-76.66 75.71-76.66 8.33 0 16.33 1.36 23.82 3.83v-62.34-22.41c-7.9-1.17-15.94-1.78-24.07-1.78-46.19 0-89.39 19.2-120.27 53.79-23.34 26.14-37.34 59.49-39.5 94.46-2.83 45.94 13.98 89.61 46.58 121.83 4.79 4.73 9.82 9.12 15.08 13.17 27.95 21.51 62.12 33.17 98.11 33.17 8.13 0 16.17-.6 24.07-1.77 33.62-4.98 64.64-20.37 89.12-44.57 30.08-29.73 46.7-69.2 46.88-111.21l-.43-186.56c14.35 11.07 30.04 20.23 46.88 27.34 26.19 11.05 53.96 16.65 82.54 16.64v-60.61-22.49c.02.02-.22.02-.24.02z" />
  </g>
  <path
     id="path3931"
     d="M 180.77922,510.70161 C 150.10825,508.7258 120.56155,497.86501 95.584416,479.38568 85.710854,472.08072 70.261154,456.59042 63.037523,446.75325 46.292001,423.94912 36.862545,400.57681 33.193034,372.77922 c -1.657867,-12.55881 -1.240383,-33.67643 0.903747,-45.71428 9.003576,-50.54906 41.696066,-93.49245 87.977349,-115.56312 24.32944,-11.60225 48.00744,-16.47416 75.32847,-15.49935 7.54285,0.26912 14.55584,0.73788 15.58441,1.04166 l 1.87013,0.55235 v 41.4615 c 0,25.2582 -0.30466,41.4615 -0.77959,41.4615 -0.42878,0 -3.32748,-0.61197 -6.44156,-1.35994 -7.67648,-1.8438 -24.4721,-1.82949 -32.25937,0.0275 -28.26556,6.74031 -49.03984,26.36483 -56.99478,53.84041 -2.21475,7.64954 -3.11605,25.65228 -1.66759,33.30899 3.19007,16.86312 10.42207,30.20119 22.6979,41.86202 15.45261,14.67847 35.46399,22.02002 56.74369,20.81748 36.45897,-2.06035 65.95151,-29.33204 70.99343,-65.6475 0.62644,-4.51204 0.90268,-61.04322 0.90268,-184.72729 V 0.41558442 h 41.08304 41.08306 l 0.49525,4.77922078 c 2.15565,20.8021568 4.01733,29.3478308 9.1893,42.1818178 6.59819,16.373075 14.78448,28.892693 27.33904,41.810668 15.87244,16.331899 33.16118,27.027279 54.67418,33.823239 8.96061,2.83065 24.17014,5.40505 31.93301,5.40505 H 480 v 41.2699 41.26989 l -11.84416,-0.50028 c -37.13809,-1.56864 -77.44793,-15.51377 -108.6193,-37.57668 -4.19449,-2.96884 -7.88667,-5.39797 -8.20482,-5.39806 -0.31816,-9e-5 -0.45996,42.91939 -0.31511,95.37663 0.18035,65.31437 -0.0265,98.38957 -0.65617,104.93523 -4.62896,48.11792 -30.1971,90.17313 -71.42483,117.48161 -20.38285,13.5012 -49.87131,23.65411 -72.80832,25.06796 -4.11286,0.25351 -9.34807,0.57674 -11.63378,0.71826 -2.28572,0.14153 -8.45715,-0.0198 -13.71429,-0.35843 z"
     style="fill:#606369;stroke:#606369;stroke-width:0.831;stroke-miterlimit:4;stroke-dasharray:none" />
</svg>
