<?xml version="1.0" encoding="UTF-8" standalone="no"?>
<svg width="20px" height="14px" viewBox="0 0 20 14" version="1.1" xmlns="http://www.w3.org/2000/svg" xmlns:xlink="http://www.w3.org/1999/xlink">
    <!-- Generator: Sketch 3.7.1 (28215) - http://www.bohemiancoding.com/sketch -->
    <title>Fill 5</title>
    <desc>Created with Sketch.</desc>
    <defs></defs>
    <g id="influencers" stroke="none" stroke-width="1" fill="none" fill-rule="evenodd">
        <g id="influencers---results-copy" transform="translate(-668.000000, -299.000000)" fill="#606369">
            <path d="M675.897587,308.581898 L675.896671,302.989093 L681.275118,305.795239 L675.897587,308.581898 L675.897587,308.581898 Z M687.706357,302.020212 C687.706357,302.020212 687.511875,300.648533 686.915024,300.044491 C686.158105,299.251696 685.309674,299.247759 684.920594,299.20136 C682.135163,299 677.956869,299 677.956869,299 L677.948217,299 C677.948217,299 673.770021,299 670.984492,299.20136 C670.595393,299.247759 669.747274,299.251696 668.990082,300.044491 C668.39327,300.648533 668.199061,302.020212 668.199061,302.020212 C668.199061,302.020212 668,303.631018 668,305.241805 L668,306.751921 C668,308.362687 668.199061,309.973474 668.199061,309.973474 C668.199061,309.973474 668.39327,311.345173 668.990082,311.949215 C669.747274,312.742029 670.741897,312.716949 671.184898,312.800043 C672.777328,312.952744 677.952563,313 677.952563,313 C677.952563,313 682.135163,312.993706 684.920594,312.792365 C685.309674,312.745946 686.158105,312.742029 686.915024,311.949215 C687.511875,311.345173 687.706357,309.973474 687.706357,309.973474 C687.706357,309.973474 687.905126,308.362687 687.905126,306.751921 L687.905126,305.241805 C687.905126,303.631018 687.706357,302.020212 687.706357,302.020212 L687.706357,302.020212 Z" id="Fill-5"></path>
        </g>
    </g>
</svg>