<?xml version="1.0" encoding="UTF-8" standalone="no"?>
<svg width="24px" height="24px" viewBox="0 0 24 24" version="1.1" xmlns="http://www.w3.org/2000/svg" xmlns:xlink="http://www.w3.org/1999/xlink" xmlns:sketch="http://www.bohemiancoding.com/sketch/ns">
    <!-- Generator: Sketch 3.3.3 (12072) - http://www.bohemiancoding.com/sketch -->
    <title>icn-twitter</title>
    <desc>Created with Sketch.</desc>
    <defs></defs>
    <g id="guide" stroke="none" stroke-width="1" fill="none" fill-rule="evenodd" sketch:type="MSPage">
        <g id="icn-twitter" sketch:type="MSArtboardGroup" fill="#4B5564">
            <path d="M21.4635797,6.77563264 C20.7828629,7.07676333 20.0536882,7.27982463 19.2875933,7.37212522 C20.0709945,6.90369972 20.6709484,6.16067995 20.953619,5.27690178 C20.2221368,5.71071456 19.4110453,6.02569033 18.5480348,6.19644643 C17.8557803,5.4603492 16.872779,5 15.7824783,5 C13.6918699,5 11.9958465,6.69602338 11.9958465,8.7866318 C11.9958465,9.08314745 12.0281517,9.37274056 12.0939159,9.64964234 C8.9453119,9.49157757 6.15437274,7.98361664 4.2864395,5.69225444 C3.95992616,6.25182678 3.77532498,6.90254596 3.77532498,7.59595416 C3.77532498,8.91008384 4.44219675,10.0684563 5.45981078,10.7480194 C4.8390893,10.7284055 4.25528805,10.5576494 3.74417353,10.2738251 L3.74417353,10.3211291 C3.74417353,12.1556034 5.04907315,13.6866395 6.78086301,14.0350742 C6.46473348,14.121606 6.13014384,14.1677563 5.78286286,14.1677563 C5.53826629,14.1677563 5.30174602,14.1435274 5.06984078,14.0996846 C5.55326513,15.6041843 6.95161911,16.6991001 8.60726098,16.7302515 C7.31159142,17.745558 5.67787093,18.3512807 3.90339205,18.3512807 C3.59880009,18.3512807 3.29766941,18.3328206 3,18.2982078 C4.67640951,19.372356 6.66779479,20 8.80570725,20 C15.7720945,20 19.5818014,14.2289055 19.5818014,9.22390585 C19.5818014,9.05891854 19.5783401,8.89623875 19.5702638,8.73355896 C20.3121298,8.19936928 20.953619,7.5324975 21.4601185,6.77332513 L21.4635797,6.77563264 Z" id="Fill-611" sketch:type="MSShapeGroup"></path>
        </g>
    </g>
</svg>