<svg width="24" height="24" viewBox="0 0 24 24" fill="none" xmlns="http://www.w3.org/2000/svg">
<path fill-rule="evenodd" clip-rule="evenodd" d="M10.1772 9.30106V8.52052C9.90632 8.48215 9.63313 8.46225 9.35954 8.46094C6.01371 8.46094 3.29166 11.1834 3.29166 14.5293C3.29166 16.5817 4.31741 18.3985 5.88217 19.4971C4.83443 18.3767 4.25195 16.8997 4.25279 15.3657C4.25279 12.0676 6.89737 9.37806 10.1772 9.30106" fill="#4B5564" fill-opacity="0.2"/>
<path fill-rule="evenodd" clip-rule="evenodd" d="M10.3202 18.1368C11.813 18.1368 13.0308 16.9493 13.0862 15.4693L13.0913 2.25785H15.5049C15.4533 1.982 15.4273 1.702 15.427 1.42139H12.1306L12.1251 14.6333C12.0701 16.1128 10.8519 17.2999 9.35954 17.2999C8.9115 17.3001 8.47018 17.1909 8.07391 16.9818C8.32979 17.3388 8.66697 17.6297 9.05758 17.8306C9.44818 18.0314 9.88099 18.1364 10.3202 18.1368V18.1368ZM20.0135 6.74218V6.00793C19.1265 6.00875 18.2585 5.7507 17.516 5.26543C18.167 6.01494 19.0435 6.53311 20.0139 6.74218" fill="#4B5564" fill-opacity="0.2"/>
<path opacity="0.2" fill-rule="evenodd" clip-rule="evenodd" d="M17.516 5.26497C16.7884 4.43239 16.3876 3.36404 16.3881 2.2583H15.5049C15.6192 2.86947 15.8564 3.45106 16.2021 3.96787C16.5478 4.48468 16.9948 4.92596 17.516 5.26497V5.26497ZM9.35955 11.7577C8.62487 11.7586 7.92053 12.0508 7.40103 12.5703C6.88154 13.0898 6.58931 13.7941 6.58846 14.5288C6.58895 15.0342 6.72755 15.5298 6.98927 15.9622C7.251 16.3945 7.6259 16.7471 8.07346 16.9818C7.73268 16.5119 7.54916 15.9462 7.54913 15.3657C7.54986 14.631 7.84203 13.9265 8.36154 13.4069C8.88104 12.8873 9.58546 12.595 10.3202 12.5942C10.6058 12.5942 10.8794 12.6414 11.1379 12.7225V9.35697C10.867 9.3186 10.5938 9.29869 10.3202 9.29739C10.2721 9.29739 10.2249 9.30014 10.1772 9.30105V11.8861C9.91278 11.8019 9.63705 11.7586 9.35955 11.7577" fill="#4B5564"/>
<path fill-rule="evenodd" clip-rule="evenodd" d="M20.0135 6.74216V9.30424C18.3039 9.30424 16.7204 8.75745 15.4269 7.82932V14.5288C15.4269 17.8746 12.7054 20.5967 9.35953 20.5967C8.06657 20.5967 6.86757 20.1887 5.88216 19.4967C6.4487 20.1076 7.13533 20.595 7.89902 20.9282C8.6627 21.2614 9.48698 21.4333 10.3202 21.4331C13.666 21.4331 16.3881 18.7111 16.3881 15.3657V8.66624C17.7242 9.62705 19.3289 10.1431 20.9746 10.1412V6.84391C20.6446 6.84391 20.3238 6.80816 20.0135 6.7417" fill="#4B5564" fill-opacity="0.4"/>
<path fill-rule="evenodd" clip-rule="evenodd" d="M15.427 14.5288V7.82934C16.7631 8.79026 18.3677 9.30628 20.0135 9.30426V6.74218C19.0431 6.53289 18.1668 6.01456 17.516 5.26497C16.9948 4.92596 16.5478 4.48468 16.2021 3.96787C15.8564 3.45106 15.6192 2.86947 15.5049 2.2583H13.0913L13.0863 15.4698C13.0308 16.9493 11.813 18.1368 10.3202 18.1368C9.881 18.1363 9.44821 18.0314 9.05761 17.8305C8.66701 17.6297 8.32982 17.3388 8.07392 16.9818C7.62627 16.7471 7.25127 16.3946 6.98946 15.9622C6.72765 15.5299 6.58899 15.0342 6.58846 14.5288C6.58931 13.7941 6.88153 13.0898 7.40103 12.5703C7.92052 12.0508 8.62487 11.7586 9.35954 11.7577C9.64463 11.7577 9.91825 11.8045 10.1772 11.886V9.30105C6.89738 9.37805 4.25279 12.0675 4.25279 15.3657C4.25279 16.9607 4.87246 18.4127 5.88217 19.4971C6.90006 20.2137 8.11473 20.5978 9.35954 20.5967C12.7054 20.5967 15.427 17.8746 15.427 14.5288" fill="#4B5564"/>
</svg>
