<?xml version="1.0" encoding="UTF-8" standalone="no"?>
<svg width="24px" height="24px" viewBox="0 0 24 24" version="1.1" xmlns="http://www.w3.org/2000/svg" xmlns:xlink="http://www.w3.org/1999/xlink" xmlns:sketch="http://www.bohemiancoding.com/sketch/ns">
    <!-- Generator: Sketch 3.3.3 (12072) - http://www.bohemiancoding.com/sketch -->
    <title>icn-instgram</title>
    <desc>Created with Sketch.</desc>
    <defs></defs>
    <g id="guide" stroke="none" stroke-width="1" fill="none" fill-rule="evenodd" sketch:type="MSPage">
        <g id="icn-instgram" sketch:type="MSArtboardGroup" fill="#4B5564">
            <path d="M18.2696079,10.3453893 L16.9637967,10.3453893 C17.0589431,10.714711 17.1151298,11.1005972 17.1151298,11.4996025 C17.1151298,14.0489425 15.0489425,16.1151298 12.5,16.1151298 C9.95118999,16.1151298 7.88487022,14.0489425 7.88487022,11.4996025 C7.88487022,11.1005972 7.94132198,10.714711 8.03646836,10.3453893 L6.73052459,10.3453893 L6.73052459,16.6919713 C6.73052459,17.0101419 6.98893051,17.2684153 7.30802869,17.2684153 L17.6921038,17.2684153 C18.011202,17.2684153 18.2696079,17.0102744 18.2696079,16.6919713 L18.2696079,10.3453893 L18.2696079,10.3453893 Z M18.2696079,6.3072336 C18.2696079,5.98879799 18.011202,5.73039207 17.6921038,5.73039207 L15.9617118,5.73039207 C15.6430111,5.73039207 15.3847377,5.98879799 15.3847377,6.3072336 L15.3847377,8.03828825 C15.3847377,8.35672385 15.6428786,8.61512978 15.9617118,8.61512978 L17.6921038,8.61512978 C18.011202,8.61512978 18.2696079,8.35672385 18.2696079,8.03828825 L18.2696079,6.3072336 L18.2696079,6.3072336 Z M12.4998675,8.61512978 C10.9066293,8.61512978 9.61526229,9.90636429 9.61526229,11.4996025 C9.61526229,13.0925756 10.9066293,14.3844727 12.4998675,14.3844727 C14.0931056,14.3844727 15.3847377,13.0925756 15.3847377,11.4996025 C15.3847377,9.90636429 14.0931056,8.61512978 12.4998675,8.61512978 L12.4998675,8.61512978 Z M18.2696079,18.999735 L6.73039207,18.999735 C5.77482022,18.999735 5,18.2246497 5,17.2682828 L5,5.73039207 C5,4.7746877 5.77482022,4 6.73039207,4 L18.2696079,4 C19.2253123,4 20,4.7746877 20,5.73039207 L20,17.2682828 C19.9998675,18.2246497 19.2253123,18.999735 18.2696079,18.999735 L18.2696079,18.999735 Z" id="Shape" sketch:type="MSShapeGroup"></path>
        </g>
    </g>
</svg>