<?xml version="1.0" encoding="UTF-8" standalone="no"?>
<svg width="22px" height="14px" viewBox="0 0 22 14" version="1.1" xmlns="http://www.w3.org/2000/svg" xmlns:xlink="http://www.w3.org/1999/xlink">
    <!-- Generator: Sketch 3.7.2 (28276) - http://www.bohemiancoding.com/sketch -->
    <title>icn - google plus - mid</title>
    <desc>Created with Sketch.</desc>
    <defs></defs>
    <g id="influencers-2" stroke="none" stroke-width="1" fill="none" fill-rule="evenodd">
        <g id="influencers---influencer---profile" transform="translate(-55.000000, -427.000000)" fill="#606369">
            <g id="icn---google-plus---mid" transform="translate(55.000000, 427.000000)">
                <path d="M0.0185992985,6.64974213 C0.0788725217,3.0435928 3.39413803,-0.114438212 7.00028736,0.00586999996 C8.72819917,-0.0744148863 10.3524792,0.677451882 11.6758695,1.73354358 C11.1110165,2.3753462 10.5261518,2.99356365 9.9012638,3.57175777 C8.31033659,2.47230747 6.04782749,2.15807671 4.45690028,3.42810262 C2.18105008,5.00211521 2.07741825,8.71856692 4.26655125,10.4128877 C6.39541102,12.3447279 10.4191847,11.3855975 11.0073847,8.4276831 C9.67398848,8.40767144 8.33701881,8.4276831 7.00362264,8.3843245 C7.00028736,7.58886089 6.99695208,6.79339728 7.00028736,5.99817191 C9.22944368,5.99150136 11.4586,5.98792785 13.6910916,6.00484247 C13.8247409,7.87640943 13.5774539,9.8682846 12.4277363,11.415615 C10.6864833,13.8653761 7.19087463,14.5805548 4.46357084,13.5311336 C1.72649945,12.4883831 -0.212011295,9.59741245 0.0185992985,6.64974213 Z M17.9769057,4.04997943 L19.9654456,4.04997943 C19.9687809,4.71512899 19.9721162,5.38361383 19.9787867,6.04852516 C20.6439363,6.05543394 21.3124211,6.05543394 21.9773325,6.0621045 L21.9773325,8.0506444 C21.3124211,8.05731495 20.6472716,8.06065023 19.9787867,8.06732078 C19.9721162,8.73556739 19.9687809,9.40071695 19.9654456,10.0658665 L17.9735705,10.0658665 C17.9668999,9.40071695 17.9668999,8.73556739 17.9602294,8.07065606 C17.2950798,8.06398551 16.6268332,8.05731495 15.9616836,8.0506444 L15.9616836,6.0621045 C16.6268332,6.05543394 17.2917445,6.05209867 17.9602294,6.04852516 C17.9635646,5.38027855 17.9702352,4.71512899 17.9769057,4.04997943 Z" id="Combined-Shape"></path>
            </g>
        </g>
    </g>
</svg>