<?xml version="1.0" encoding="UTF-8" standalone="no"?>
<svg
   xmlns:dc="http://purl.org/dc/elements/1.1/"
   xmlns:cc="http://creativecommons.org/ns#"
   xmlns:rdf="http://www.w3.org/1999/02/22-rdf-syntax-ns#"
   xmlns:svg="http://www.w3.org/2000/svg"
   xmlns="http://www.w3.org/2000/svg"
   xmlns:sodipodi="http://sodipodi.sourceforge.net/DTD/sodipodi-0.dtd"
   xmlns:inkscape="http://www.inkscape.org/namespaces/inkscape"
   inkscape:version="1.0 (4035a4f, 2020-05-01)"
   style="fill: #606369ff"
   sodipodi:docname="icn-tiktok-new.svg"
   version="1.1"
   width="512"
   viewBox="0 0 512 512"
   height="512"
   enable-background="new 0 0 512 512"
   id="Capa_1">
  <metadata
     id="metadata62">
    <rdf:RDF>
      <cc:Work
         rdf:about="">
        <dc:format>image/svg+xml</dc:format>
        <dc:type
           rdf:resource="http://purl.org/dc/dcmitype/StillImage" />
      </cc:Work>
    </rdf:RDF>
  </metadata>
  <defs
     id="defs60" />
  <sodipodi:namedview
     inkscape:current-layer="Capa_1"
     inkscape:window-maximized="1"
     inkscape:window-y="23"
     inkscape:window-x="1440"
     inkscape:cy="256"
     inkscape:cx="119.88293"
     inkscape:zoom="1.2011719"
     showgrid="false"
     id="namedview58"
     inkscape:window-height="1035"
     inkscape:window-width="1920"
     inkscape:pageshadow="2"
     inkscape:pageopacity="0"
     guidetolerance="10"
     gridtolerance="10"
     objecttolerance="10"
     borderopacity="1"
     bordercolor="#666666"
     pagecolor="#ffffff" />
  <g
     id="g55">
    <path
       id="path53"
       d="m480.32 128.39c-29.22 0-56.18-9.68-77.83-26.01-24.83-18.72-42.67-46.18-48.97-77.83-1.56-7.82-2.4-15.89-2.48-24.16h-83.47v228.08l-.1 124.93c0 33.4-21.75 61.72-51.9 71.68-8.75 2.89-18.2 4.26-28.04 3.72-12.56-.69-24.33-4.48-34.56-10.6-21.77-13.02-36.53-36.64-36.93-63.66-.63-42.23 33.51-76.66 75.71-76.66 8.33 0 16.33 1.36 23.82 3.83v-62.34-22.41c-7.9-1.17-15.94-1.78-24.07-1.78-46.19 0-89.39 19.2-120.27 53.79-23.34 26.14-37.34 59.49-39.5 94.46-2.83 45.94 13.98 89.61 46.58 121.83 4.79 4.73 9.82 9.12 15.08 13.17 27.95 21.51 62.12 33.17 98.11 33.17 8.13 0 16.17-.6 24.07-1.77 33.62-4.98 64.64-20.37 89.12-44.57 30.08-29.73 46.7-69.2 46.88-111.21l-.43-186.56c14.35 11.07 30.04 20.23 46.88 27.34 26.19 11.05 53.96 16.65 82.54 16.64v-60.61-22.49c.02.02-.22.02-.24.02z" />
  </g>
  <path
     id="path1543"
     d="M 181.07317,510.72309 C 116.11467,506.51381 60.314475,463.60648 39.700171,402.01492 29.586738,371.79792 29.548976,335.08668 39.600468,305.08499 49.217389,276.3804 66.097277,251.75719 89.495935,232.30096 121.94685,205.31768 164.78196,192.3875 208.33821,196.42733 l 6.86829,0.63702 v 42.01174 c 0,40.47808 -0.0562,41.9939 -1.53819,41.52352 -4.85272,-1.5402 -15.43456,-2.95408 -22.10897,-2.95408 -33.30747,0 -62.55669,21.37128 -72.35229,52.86504 -11.18531,35.96181 5.11965,73.88592 39.14115,91.03944 18.46529,9.31013 43.1315,10.04681 62.76236,1.87446 23.84155,-9.92526 41.72007,-32.4432 45.67838,-57.53179 0.56388,-3.57403 0.8559,-66.53844 0.86006,-185.4439 L 267.655,0.41626016 h 41.49882 41.49882 l 0.53495,8.94959354 c 0.97362,16.2886263 5.21446,31.4301483 13.46569,48.0780483 20.23271,40.82206 61.24944,68.126748 106.49796,70.895298 l 8.79645,0.53822 v 41.08324 41.08324 l -4.37073,-0.002 c -7.63954,-0.005 -23.15628,-1.71157 -34.46558,-3.79068 -27.42316,-5.04151 -54.01736,-16.01512 -78.62621,-32.44368 l -11.52271,-7.69242 -0.30306,103.34368 c -0.33026,112.61799 -0.0321,105.39774 -5.12512,124.09265 -7.42524,27.25559 -21.5036,50.8209 -42.59537,71.29897 -13.03989,12.66048 -24.15087,20.57777 -40.07654,28.55713 -24.46434,12.25719 -53.87681,18.12476 -81.78948,16.31604 z"
     style="fill:#a0a0a0;stroke:none;stroke-width:0.83252" />
</svg>
