<?xml version="1.0" encoding="UTF-8" standalone="no"?>
<svg
   xmlns:dc="http://purl.org/dc/elements/1.1/"
   xmlns:cc="http://creativecommons.org/ns#"
   xmlns:rdf="http://www.w3.org/1999/02/22-rdf-syntax-ns#"
   xmlns:svg="http://www.w3.org/2000/svg"
   xmlns="http://www.w3.org/2000/svg"
   xmlns:sodipodi="http://sodipodi.sourceforge.net/DTD/sodipodi-0.dtd"
   xmlns:inkscape="http://www.inkscape.org/namespaces/inkscape"
   inkscape:version="1.0 (4035a4f, 2020-05-01)"
   sodipodi:docname="icn-snapchat.svg"
   xml:space="preserve"
   style="enable-background:new 0 0 511.976 511.976;"
   viewBox="0 0 511.976 511.976"
   y="0px"
   x="0px"
   id="Capa_1"
   version="1.1"><metadata
   id="metadata4553"><rdf:RDF><cc:Work
       rdf:about=""><dc:format>image/svg+xml</dc:format><dc:type
         rdf:resource="http://purl.org/dc/dcmitype/StillImage" /><dc:title></dc:title></cc:Work></rdf:RDF></metadata><defs
   id="defs4551" /><sodipodi:namedview
   inkscape:current-layer="Capa_1"
   inkscape:window-maximized="1"
   inkscape:window-y="23"
   inkscape:window-x="0"
   inkscape:cy="255.98801"
   inkscape:cx="255.98801"
   inkscape:zoom="1.2031814"
   showgrid="false"
   id="namedview4549"
   inkscape:window-height="802"
   inkscape:window-width="1440"
   inkscape:pageshadow="2"
   inkscape:pageopacity="0"
   guidetolerance="10"
   gridtolerance="10"
   objecttolerance="10"
   borderopacity="1"
   bordercolor="#666666"
   pagecolor="#ffffff" />
<g
   id="g4516">
	<g
   id="g4514">
		<path
   id="path4512"
   d="M501.94,374.42c-68.448-11.264-99.296-81.376-100.544-84.352c-0.096-0.192-0.16-0.384-0.288-0.576    c-3.488-7.104-4.32-12.96-2.4-17.408c3.744-8.768,18.08-13.312,27.552-16.32c2.752-0.864,5.344-1.696,7.488-2.528    c9.344-3.68,16-7.68,20.416-12.192c5.248-5.408,6.272-10.592,6.208-13.952c-0.16-8.192-6.432-15.488-16.448-19.04    c-3.36-1.376-7.232-2.112-11.136-2.112c-2.656,0-6.624,0.352-10.368,2.112c-8,3.744-15.168,5.792-21.344,6.08    c-3.264-0.16-5.568-0.864-7.072-1.536c0.192-3.2,0.384-6.496,0.608-9.888l0.096-1.472c2.208-34.656,4.928-77.76-6.528-103.36    c-7.84-17.536-18.368-32.608-31.328-44.832c-10.848-10.24-23.456-18.56-37.472-24.704c-24.352-10.752-47.072-12.352-58.464-12.352    h-0.032c-0.448,0-0.864,0-1.248,0c-3.168,0.032-8.32,0.096-8.8,0.096c-11.36,0-34.112,1.6-58.528,12.352    c-13.984,6.144-26.528,14.432-37.344,24.672c-12.896,12.224-23.392,27.264-31.2,44.736c-11.456,25.568-8.736,68.672-6.56,103.296    v0.064c0.224,3.712,0.48,7.584,0.704,11.36c-1.664,0.736-4.384,1.568-8.384,1.568c-6.464,0-14.144-2.048-22.816-6.112    c-2.56-1.184-5.472-1.792-8.672-1.792c-5.152,0-10.624,1.504-15.328,4.288c-5.952,3.488-9.792,8.384-10.848,13.856    c-0.672,3.584-0.64,10.72,7.296,17.952c4.384,3.968,10.784,7.648,19.072,10.912c2.176,0.864,4.768,1.664,7.488,2.528    c9.472,3.008,23.84,7.552,27.584,16.32c1.888,4.448,1.056,10.304-2.432,17.408c-0.096,0.192-0.192,0.384-0.256,0.576    c-0.896,2.048-9.056,20.448-25.792,39.872c-9.504,11.04-19.968,20.288-31.104,27.456c-13.6,8.768-28.288,14.464-43.68,16.992    c-6.048,0.992-10.368,6.368-10.016,12.48c0.096,1.76,0.512,3.52,1.248,5.216v0.032c2.464,5.728,8.128,10.56,17.344,14.816    c11.264,5.216,28.096,9.6,50.08,13.024c1.12,2.112,2.272,7.392,3.072,11.008c0.832,3.84,1.696,7.808,2.944,12    c1.344,4.544,4.8,9.984,13.728,9.984c3.392,0,7.264-0.768,11.776-1.632c6.592-1.28,15.616-3.04,26.848-3.04    c6.24,0,12.704,0.544,19.2,1.632c12.544,2.08,23.36,9.696,35.872,18.528c18.304,12.928,39.04,27.552,70.72,27.552    c0.864,0,1.728-0.032,2.592-0.096c1.024,0.064,2.336,0.096,3.68,0.096c31.68,0,52.416-14.624,70.72-27.52l0.032-0.032    c12.512-8.8,23.328-16.416,35.872-18.496c6.496-1.088,12.96-1.632,19.2-1.632c10.752,0,19.264,1.376,26.848,2.848    c4.96,0.96,8.8,1.44,11.776,1.44h0.288h0.288c6.528,0,11.328-3.584,13.152-9.824c1.216-4.128,2.08-7.968,2.944-11.904    c0.736-3.392,1.952-8.832,3.04-10.944c21.984-3.456,38.816-7.808,50.08-13.024c9.184-4.256,14.848-9.088,17.312-14.784    c0.736-1.696,1.184-3.456,1.28-5.28C512.308,380.788,507.988,375.38,501.94,374.42z" />
	</g>
</g>
<g
   id="g4518">
</g>
<g
   id="g4520">
</g>
<g
   id="g4522">
</g>
<g
   id="g4524">
</g>
<g
   id="g4526">
</g>
<g
   id="g4528">
</g>
<g
   id="g4530">
</g>
<g
   id="g4532">
</g>
<g
   id="g4534">
</g>
<g
   id="g4536">
</g>
<g
   id="g4538">
</g>
<g
   id="g4540">
</g>
<g
   id="g4542">
</g>
<g
   id="g4544">
</g>
<g
   id="g4546">
</g>
<path
   id="path4555"
   d="m 241.44323,494.86129 c -18.69932,-2.22429 -32.72334,-8.62055 -59.3668,-27.07681 -23.75967,-16.45862 -31.86059,-19.42084 -53.66686,-19.62401 -9.33253,-0.087 -14.43266,0.36298 -25.76503,2.27301 -15.976933,2.69284 -18.889761,2.52807 -23.268209,-1.31625 -3.127748,-2.74621 -4.078502,-5.22419 -7.749456,-20.19766 L 69.399346,419.83369 56.101268,417.1997 C 33.541893,412.73129 21.796471,408.79058 11.635818,402.28108 4.5399119,397.73503 1.4550085,393.29126 0.99672695,386.95559 c -0.32074258,-4.43422 -0.14984324,-5.01151 2.31451725,-7.81826 2.758989,-3.14231 3.4059695,-3.40044 16.1564848,-6.44606 9.16653,-2.18954 20.652654,-6.75604 28.985163,-11.52353 24.573525,-14.0599 47.576579,-39.78112 61.359438,-68.61002 6.24391,-13.06007 6.39651,-18.68796 0.67504,-24.89503 -4.01354,-4.35417 -10.46085,-7.59825 -24.975358,-12.56678 -13.473562,-4.61219 -19.545375,-7.7478 -25.446441,-13.14104 -5.630531,-5.14598 -7.704388,-9.11435 -7.704388,-14.74249 0,-8.40642 6.887586,-15.86201 17.682638,-19.1409 6.994355,-2.12447 11.143199,-1.7797 19.303091,1.60412 10.164444,4.21509 20.100708,5.73226 26.512218,4.04816 l 2.40991,-0.633 -0.53983,-9.30319 c -3.79453,-65.39282 -2.17558,-87.41661 8.00176,-108.85371 22.94983,-48.340525 66.85285,-76.109392 124.02356,-78.445472 46.02349,-1.880587 88.5034,14.89562 114.85814,45.359884 11.62648,13.43941 23.27533,33.736166 26.75312,46.614178 4.70274,17.41385 5.8424,45.03259 3.49018,84.58113 -0.63256,10.63559 -0.93656,19.55099 -0.67554,19.81201 0.26102,0.26102 1.86137,0.78735 3.55633,1.16962 4.4371,1.00073 11.66937,-0.40066 21.64531,-4.19421 10.12603,-3.85062 15.53859,-4.22905 23.241,-1.62491 19.70141,6.66093 22.82694,24.86427 6.25512,36.4302 -6.60201,4.60773 -10.1175,6.24533 -22.54566,10.5023 -14.38813,4.92831 -20.84065,8.18111 -24.84388,12.5241 -5.73068,6.21706 -5.55679,12.27455 0.7209,25.11175 20.00888,40.91605 53.60269,70.8493 89.40378,79.66188 14.01593,3.45008 14.29105,3.55709 16.96108,6.5981 4.55126,5.18361 3.24775,13.09266 -3.18706,19.33744 -8.5018,8.25071 -28.6466,15.31809 -59.0706,20.72367 l -3.74008,0.66451 -3.10269,12.43798 c -1.70648,6.84088 -3.80262,13.37716 -4.65809,14.52505 -4.06756,5.45792 -9.65747,6.32429 -24.23772,3.75656 -17.64196,-3.10692 -37.09666,-3.07893 -49.39857,0.0711 -7.12282,1.82387 -16.48307,7.00974 -31.73505,17.58222 -26.59249,18.4336 -39.5884,24.24487 -59.7429,26.7147 -8.44281,1.03463 -19.62973,1.04003 -28.25842,0.0136 z"
   style="fill:#606369;stroke:#606369;stroke-width:0.690669" /></svg>
