<svg width="24" height="24" viewBox="0 0 24 24" fill="none" xmlns="http://www.w3.org/2000/svg">
<g clip-path="url(#clip0)">
<mask id="path-1-inside-1" fill="white">
<path fill-rule="evenodd" clip-rule="evenodd" d="M11.997 2.57837C9.43719 2.57837 9.1162 2.58922 8.11086 2.63509C7.10762 2.68085 6.42244 2.8402 5.8229 3.07322C5.20308 3.31406 4.67744 3.63635 4.15341 4.16035C3.62941 4.68438 3.30712 5.21003 3.06628 5.82984C2.83326 6.42938 2.67391 7.11456 2.62815 8.11781C2.58228 9.12315 2.57143 9.44413 2.57143 12.004C2.57143 14.5638 2.58228 14.8848 2.62815 15.8901C2.67391 16.8934 2.83326 17.5786 3.06628 18.1781C3.30712 18.7979 3.62941 19.3235 4.15341 19.8476C4.67744 20.3716 5.20308 20.6939 5.8229 20.9348C6.42244 21.1677 7.10762 21.3271 8.11086 21.3728C9.1162 21.4187 9.43719 21.4296 11.997 21.4296C14.5569 21.4296 14.8778 21.4187 15.8832 21.3728C16.8864 21.3271 17.5716 21.1677 18.1711 20.9348C18.791 20.6939 19.3166 20.3716 19.8406 19.8476C20.3646 19.3235 20.6869 18.7979 20.9278 18.1781C21.1608 17.5786 21.3201 16.8934 21.3659 15.8901C21.4118 14.8848 21.4226 14.5638 21.4226 12.004C21.4226 9.44413 21.4118 9.12315 21.3659 8.11781C21.3201 7.11456 21.1608 6.42938 20.9278 5.82984C20.6869 5.21003 20.3646 4.68438 19.8406 4.16035C19.3166 3.63635 18.791 3.31406 18.1711 3.07322C17.5716 2.8402 16.8864 2.68085 15.8832 2.63509C14.8778 2.58922 14.5569 2.57837 11.997 2.57837ZM11.997 4.27667C14.5138 4.27667 14.8119 4.28629 15.8058 4.33163C16.7248 4.37354 17.2238 4.52709 17.556 4.65617C17.9959 4.82716 18.3099 5.03141 18.6397 5.36126C18.9696 5.69107 19.1738 6.00506 19.3448 6.44502C19.4739 6.77715 19.6275 7.27623 19.6694 8.19522C19.7147 9.18911 19.7243 9.48723 19.7243 12.004C19.7243 14.5207 19.7147 14.8188 19.6694 15.8127C19.6275 16.7317 19.4739 17.2308 19.3448 17.5629C19.1738 18.0029 18.9696 18.3169 18.6397 18.6467C18.3099 18.9765 17.9959 19.1808 17.556 19.3518C17.2238 19.4808 16.7248 19.6344 15.8058 19.6763C14.812 19.7216 14.5139 19.7313 11.997 19.7313C9.4801 19.7313 9.18205 19.7216 8.18827 19.6763C7.26929 19.6344 6.77021 19.4808 6.43808 19.3518C5.99811 19.1808 5.68413 18.9765 5.35431 18.6467C5.0245 18.3169 4.82022 18.0029 4.64923 17.5629C4.52015 17.2308 4.3666 16.7317 4.32469 15.8127C4.27934 14.8188 4.26973 14.5207 4.26973 12.004C4.26973 9.48723 4.27934 9.18911 4.32469 8.19522C4.3666 7.27623 4.52015 6.77715 4.64923 6.44502C4.82022 6.00506 5.02446 5.69107 5.35431 5.36126C5.68413 5.03141 5.99811 4.82716 6.43808 4.65617C6.77021 4.52709 7.26929 4.37354 8.18827 4.33163C9.18216 4.28629 9.48029 4.27667 11.997 4.27667ZM11.997 15.1448C10.2618 15.1448 8.85516 13.7382 8.85516 12.003C8.85516 10.2677 10.2618 8.86108 11.997 8.86108C13.7322 8.86108 15.1389 10.2677 15.1389 12.003C15.1389 13.7382 13.7322 15.1448 11.997 15.1448ZM11.997 7.16277C9.32386 7.16277 7.15686 9.32977 7.15686 12.003C7.15686 14.6761 9.32386 16.8431 11.997 16.8431C14.6702 16.8431 16.8372 14.6761 16.8372 12.003C16.8372 9.32977 14.6702 7.16277 11.997 7.16277ZM17.0284 8.10269C17.6531 8.10269 18.1595 7.59631 18.1595 6.97163C18.1595 6.34695 17.6531 5.84054 17.0284 5.84054C16.4038 5.84054 15.8974 6.34695 15.8974 6.97163C15.8974 7.59631 16.4038 8.10269 17.0284 8.10269Z"/>
</mask>
<path fill-rule="evenodd" clip-rule="evenodd" d="M11.997 2.57837C9.43719 2.57837 9.1162 2.58922 8.11086 2.63509C7.10762 2.68085 6.42244 2.8402 5.8229 3.07322C5.20308 3.31406 4.67744 3.63635 4.15341 4.16035C3.62941 4.68438 3.30712 5.21003 3.06628 5.82984C2.83326 6.42938 2.67391 7.11456 2.62815 8.11781C2.58228 9.12315 2.57143 9.44413 2.57143 12.004C2.57143 14.5638 2.58228 14.8848 2.62815 15.8901C2.67391 16.8934 2.83326 17.5786 3.06628 18.1781C3.30712 18.7979 3.62941 19.3235 4.15341 19.8476C4.67744 20.3716 5.20308 20.6939 5.8229 20.9348C6.42244 21.1677 7.10762 21.3271 8.11086 21.3728C9.1162 21.4187 9.43719 21.4296 11.997 21.4296C14.5569 21.4296 14.8778 21.4187 15.8832 21.3728C16.8864 21.3271 17.5716 21.1677 18.1711 20.9348C18.791 20.6939 19.3166 20.3716 19.8406 19.8476C20.3646 19.3235 20.6869 18.7979 20.9278 18.1781C21.1608 17.5786 21.3201 16.8934 21.3659 15.8901C21.4118 14.8848 21.4226 14.5638 21.4226 12.004C21.4226 9.44413 21.4118 9.12315 21.3659 8.11781C21.3201 7.11456 21.1608 6.42938 20.9278 5.82984C20.6869 5.21003 20.3646 4.68438 19.8406 4.16035C19.3166 3.63635 18.791 3.31406 18.1711 3.07322C17.5716 2.8402 16.8864 2.68085 15.8832 2.63509C14.8778 2.58922 14.5569 2.57837 11.997 2.57837ZM11.997 4.27667C14.5138 4.27667 14.8119 4.28629 15.8058 4.33163C16.7248 4.37354 17.2238 4.52709 17.556 4.65617C17.9959 4.82716 18.3099 5.03141 18.6397 5.36126C18.9696 5.69107 19.1738 6.00506 19.3448 6.44502C19.4739 6.77715 19.6275 7.27623 19.6694 8.19522C19.7147 9.18911 19.7243 9.48723 19.7243 12.004C19.7243 14.5207 19.7147 14.8188 19.6694 15.8127C19.6275 16.7317 19.4739 17.2308 19.3448 17.5629C19.1738 18.0029 18.9696 18.3169 18.6397 18.6467C18.3099 18.9765 17.9959 19.1808 17.556 19.3518C17.2238 19.4808 16.7248 19.6344 15.8058 19.6763C14.812 19.7216 14.5139 19.7313 11.997 19.7313C9.4801 19.7313 9.18205 19.7216 8.18827 19.6763C7.26929 19.6344 6.77021 19.4808 6.43808 19.3518C5.99811 19.1808 5.68413 18.9765 5.35431 18.6467C5.0245 18.3169 4.82022 18.0029 4.64923 17.5629C4.52015 17.2308 4.3666 16.7317 4.32469 15.8127C4.27934 14.8188 4.26973 14.5207 4.26973 12.004C4.26973 9.48723 4.27934 9.18911 4.32469 8.19522C4.3666 7.27623 4.52015 6.77715 4.64923 6.44502C4.82022 6.00506 5.02446 5.69107 5.35431 5.36126C5.68413 5.03141 5.99811 4.82716 6.43808 4.65617C6.77021 4.52709 7.26929 4.37354 8.18827 4.33163C9.18216 4.28629 9.48029 4.27667 11.997 4.27667ZM11.997 15.1448C10.2618 15.1448 8.85516 13.7382 8.85516 12.003C8.85516 10.2677 10.2618 8.86108 11.997 8.86108C13.7322 8.86108 15.1389 10.2677 15.1389 12.003C15.1389 13.7382 13.7322 15.1448 11.997 15.1448ZM11.997 7.16277C9.32386 7.16277 7.15686 9.32977 7.15686 12.003C7.15686 14.6761 9.32386 16.8431 11.997 16.8431C14.6702 16.8431 16.8372 14.6761 16.8372 12.003C16.8372 9.32977 14.6702 7.16277 11.997 7.16277ZM17.0284 8.10269C17.6531 8.10269 18.1595 7.59631 18.1595 6.97163C18.1595 6.34695 17.6531 5.84054 17.0284 5.84054C16.4038 5.84054 15.8974 6.34695 15.8974 6.97163C15.8974 7.59631 16.4038 8.10269 17.0284 8.10269Z" fill="#4B5564"/>
<path d="M8.11086 2.63509L8.15643 3.63405L8.15644 3.63405L8.11086 2.63509ZM5.8229 3.07322L6.18508 4.00533L6.18517 4.00529L5.8229 3.07322ZM4.15341 4.16035L3.44632 3.45322L3.44627 3.45327L4.15341 4.16035ZM3.06628 5.82984L3.99835 6.19211L3.99838 6.19203L3.06628 5.82984ZM2.62815 8.11781L3.62711 8.16338L3.62711 8.16337L2.62815 8.11781ZM2.62815 15.8901L3.62711 15.8446L3.62711 15.8445L2.62815 15.8901ZM3.06628 18.1781L3.99838 17.8159L3.99835 17.8158L3.06628 18.1781ZM4.15341 19.8476L3.44627 20.5547L3.44632 20.5547L4.15341 19.8476ZM5.8229 20.9348L5.46067 21.8668L5.46068 21.8668L5.8229 20.9348ZM8.11086 21.3728L8.15644 20.3739L8.15642 20.3739L8.11086 21.3728ZM15.8832 21.3728L15.8376 20.3739L15.8376 20.3739L15.8832 21.3728ZM18.1711 20.9348L18.5334 21.8668L18.5334 21.8668L18.1711 20.9348ZM19.8406 19.8476L20.5477 20.5547L20.5478 20.5547L19.8406 19.8476ZM20.9278 18.1781L21.8599 18.5403L21.8599 18.5403L20.9278 18.1781ZM21.3659 15.8901L20.3669 15.8445L20.3669 15.8446L21.3659 15.8901ZM21.3659 8.11781L20.3669 8.16337L20.3669 8.16339L21.3659 8.11781ZM20.9278 5.82984L21.8599 5.46763L21.8599 5.46761L20.9278 5.82984ZM19.8406 4.16035L20.5478 3.45327L20.5477 3.45322L19.8406 4.16035ZM18.1711 3.07322L17.8089 4.00529L17.809 4.00533L18.1711 3.07322ZM15.8832 2.63509L15.8376 3.63405L15.8376 3.63405L15.8832 2.63509ZM15.8058 4.33163L15.7602 5.3306L15.7602 5.3306L15.8058 4.33163ZM17.556 4.65617L17.1937 5.58825L17.1937 5.58826L17.556 4.65617ZM18.6397 5.36126L17.9326 6.06832L17.9327 6.0684L18.6397 5.36126ZM19.3448 6.44502L18.4127 6.80726L18.4127 6.80727L19.3448 6.44502ZM19.6694 8.19522L18.6704 8.24077L18.6704 8.2408L19.6694 8.19522ZM19.6694 15.8127L18.6704 15.7671L18.6704 15.7672L19.6694 15.8127ZM19.3448 17.5629L18.4127 17.2007L18.4127 17.2007L19.3448 17.5629ZM18.6397 18.6467L17.9327 17.9395L17.9326 17.9396L18.6397 18.6467ZM17.556 19.3518L17.1937 18.4197L17.1937 18.4197L17.556 19.3518ZM15.8058 19.6763L15.7602 18.6773L15.7602 18.6773L15.8058 19.6763ZM8.18827 19.6763L8.23386 18.6773L8.23383 18.6773L8.18827 19.6763ZM6.43808 19.3518L6.80033 18.4197L6.80032 18.4197L6.43808 19.3518ZM5.35431 18.6467L6.06146 17.9396L6.06142 17.9396L5.35431 18.6467ZM4.64923 17.5629L5.58131 17.2007L5.58131 17.2007L4.64923 17.5629ZM4.32469 15.8127L5.32365 15.7672L5.32365 15.7671L4.32469 15.8127ZM4.32469 8.19522L5.32365 8.24079L5.32365 8.24077L4.32469 8.19522ZM4.64923 6.44502L5.58131 6.80727L5.58131 6.80726L4.64923 6.44502ZM5.35431 5.36126L6.06138 6.0684L6.06146 6.06832L5.35431 5.36126ZM6.43808 4.65617L6.80032 5.58826L6.80033 5.58825L6.43808 4.65617ZM8.18827 4.33163L8.23383 5.3306L8.23385 5.3306L8.18827 4.33163ZM8.15644 3.63405C9.13895 3.58922 9.44207 3.57837 11.997 3.57837V1.57837C9.4323 1.57837 9.09346 1.58922 8.06528 1.63613L8.15644 3.63405ZM6.18517 4.00529C6.67147 3.81628 7.24803 3.67548 8.15643 3.63405L8.0653 1.63613C6.96721 1.68621 6.1734 1.86411 5.46063 2.14115L6.18517 4.00529ZM4.86049 4.86748C5.27958 4.44842 5.68528 4.19953 6.18508 4.00533L5.46071 2.14111C4.72088 2.42859 4.0753 2.82429 3.44632 3.45322L4.86049 4.86748ZM3.99838 6.19203C4.19259 5.69223 4.44147 5.28652 4.86054 4.86743L3.44627 3.45327C2.81734 4.08224 2.42164 4.72783 2.13417 5.46766L3.99838 6.19203ZM3.62711 8.16337C3.66854 7.25497 3.80934 6.67841 3.99835 6.19211L2.1342 5.46758C1.85717 6.18035 1.67927 6.97415 1.62919 8.07224L3.62711 8.16337ZM3.57143 12.004C3.57143 9.44901 3.58228 9.14589 3.62711 8.16338L1.62919 8.07223C1.58227 9.1004 1.57143 9.43924 1.57143 12.004H3.57143ZM3.62711 15.8445C3.58228 14.862 3.57143 14.5589 3.57143 12.004H1.57143C1.57143 14.5687 1.58227 14.9075 1.62919 15.9357L3.62711 15.8445ZM3.99835 17.8158C3.80934 17.3295 3.66854 16.753 3.62711 15.8446L1.62919 15.9357C1.67927 17.0338 1.85717 17.8276 2.1342 18.5404L3.99835 17.8158ZM4.86054 19.1405C4.44147 18.7214 4.19259 18.3157 3.99838 17.8159L2.13417 18.5403C2.42164 19.2801 2.81734 19.9257 3.44627 20.5547L4.86054 19.1405ZM6.18513 20.0027C5.6853 19.8084 5.27958 19.5595 4.86049 19.1405L3.44632 20.5547C4.0753 21.1836 4.72087 21.5793 5.46067 21.8668L6.18513 20.0027ZM8.15642 20.3739C7.24803 20.3325 6.67145 20.1916 6.18511 20.0027L5.46068 21.8668C6.17342 22.1438 6.9672 22.3217 8.0653 22.3718L8.15642 20.3739ZM11.997 20.4296C9.44207 20.4296 9.13895 20.4187 8.15644 20.3739L8.06528 22.3718C9.09346 22.4187 9.4323 22.4296 11.997 22.4296V20.4296ZM15.8376 20.3739C14.8551 20.4187 14.552 20.4296 11.997 20.4296V22.4296C14.5617 22.4296 14.9006 22.4187 15.9288 22.3718L15.8376 20.3739ZM17.8089 20.0027C17.3226 20.1916 16.746 20.3325 15.8376 20.3739L15.9287 22.3718C17.0268 22.3217 17.8206 22.1438 18.5334 21.8668L17.8089 20.0027ZM19.1336 19.1405C18.7145 19.5595 18.3088 19.8084 17.8089 20.0027L18.5334 21.8668C19.2732 21.5793 19.9187 21.1836 20.5477 20.5547L19.1336 19.1405ZM19.9957 17.8159C19.8015 18.3157 19.5526 18.7214 19.1335 19.1405L20.5478 20.5547C21.1767 19.9257 21.5724 19.2801 21.8599 18.5403L19.9957 17.8159ZM20.3669 15.8446C20.3255 16.753 20.1847 17.3295 19.9957 17.8159L21.8599 18.5403C22.1369 17.8276 22.3148 17.0338 22.3649 15.9357L20.3669 15.8446ZM20.4226 12.004C20.4226 14.5589 20.4118 14.862 20.3669 15.8445L22.3649 15.9357C22.4118 14.9075 22.4226 14.5687 22.4226 12.004H20.4226ZM20.3669 8.16339C20.4118 9.14589 20.4226 9.44901 20.4226 12.004H22.4226C22.4226 9.43924 22.4118 9.1004 22.3649 8.07222L20.3669 8.16339ZM19.9957 6.19206C20.1847 6.6784 20.3255 7.25497 20.3669 8.16337L22.3649 8.07224C22.3148 6.97415 22.1369 6.18036 21.8599 5.46763L19.9957 6.19206ZM19.1335 4.86743C19.5526 5.28652 19.8015 5.69224 19.9957 6.19208L21.8599 5.46761C21.5724 4.72781 21.1767 4.08224 20.5478 3.45327L19.1335 4.86743ZM17.809 4.00533C18.3088 4.19953 18.7145 4.44842 19.1336 4.86748L20.5477 3.45322C19.9187 2.82429 19.2732 2.42859 18.5333 2.14111L17.809 4.00533ZM15.8376 3.63405C16.746 3.67548 17.3226 3.81628 17.8089 4.00529L18.5334 2.14114C17.8206 1.86411 17.0268 1.68621 15.9287 1.63613L15.8376 3.63405ZM11.997 3.57837C14.552 3.57837 14.8551 3.58922 15.8376 3.63405L15.9288 1.63613C14.9006 1.58922 14.5617 1.57837 11.997 1.57837V3.57837ZM15.8514 3.33267C14.8343 3.28627 14.5181 3.27667 11.997 3.27667V5.27667C14.5095 5.27667 14.7894 5.2863 15.7602 5.3306L15.8514 3.33267ZM17.9182 3.72409C17.4865 3.55631 16.8806 3.37961 15.8513 3.33267L15.7602 5.3306C16.5689 5.36747 16.9612 5.49787 17.1937 5.58825L17.9182 3.72409ZM19.3469 4.65419C18.9177 4.22498 18.4859 3.9447 17.9182 3.72409L17.1937 5.58826C17.506 5.70962 17.7021 5.83783 17.9326 6.06832L19.3469 4.65419ZM20.2769 6.08278C20.0563 5.51512 19.776 5.08327 19.3468 4.65411L17.9327 6.0684C18.1632 6.29887 18.2914 6.49499 18.4127 6.80726L20.2769 6.08278ZM20.6683 8.14967C20.6214 7.12042 20.4447 6.51448 20.2769 6.08277L18.4127 6.80727C18.5031 7.03983 18.6335 7.43204 18.6704 8.24077L20.6683 8.14967ZM20.7243 12.004C20.7243 9.48293 20.7147 9.16667 20.6683 8.14964L18.6704 8.2408C18.7147 9.21154 18.7243 9.49153 18.7243 12.004H20.7243ZM20.6683 15.8583C20.7147 14.8413 20.7243 14.525 20.7243 12.004H18.7243C18.7243 14.5164 18.7147 14.7964 18.6704 15.7671L20.6683 15.8583ZM20.2769 17.9252C20.4447 17.4935 20.6214 16.8875 20.6683 15.8583L18.6704 15.7672C18.6335 16.5759 18.5031 16.9681 18.4127 17.2007L20.2769 17.9252ZM19.3468 19.3538C19.776 18.9247 20.0563 18.4928 20.2769 17.9252L18.4127 17.2007C18.2914 17.5129 18.1632 17.7091 17.9327 17.9395L19.3468 19.3538ZM17.9182 20.2838C18.4859 20.0632 18.9177 19.783 19.3469 19.3537L17.9326 17.9396C17.7021 18.1701 17.506 18.2983 17.1937 18.4197L17.9182 20.2838ZM15.8513 20.6753C16.8806 20.6283 17.4865 20.4516 17.9182 20.2838L17.1937 18.4197C16.9612 18.5101 16.5689 18.6405 15.7602 18.6773L15.8513 20.6753ZM11.997 20.7313C14.5182 20.7313 14.8345 20.7217 15.8514 20.6753L15.7602 18.6773C14.7896 18.7216 14.5096 18.7313 11.997 18.7313V20.7313ZM8.14269 20.6753C9.15962 20.7217 9.4758 20.7313 11.997 20.7313V18.7313C9.4844 18.7313 9.20449 18.7216 8.23386 18.6773L8.14269 20.6753ZM6.07583 20.2838C6.50753 20.4516 7.11347 20.6283 8.14272 20.6753L8.23383 18.6773C7.4251 18.6405 7.03288 18.5101 6.80033 18.4197L6.07583 20.2838ZM4.64717 19.3537C5.07633 19.783 5.50818 20.0632 6.07583 20.2838L6.80032 18.4197C6.48805 18.2983 6.29192 18.1701 6.06146 17.9396L4.64717 19.3537ZM3.71715 17.9252C3.93778 18.4929 4.2181 18.9247 4.64721 19.3538L6.06142 17.9396C5.8309 17.7091 5.70266 17.5129 5.58131 17.2007L3.71715 17.9252ZM3.32573 15.8583C3.37266 16.8875 3.54937 17.4935 3.71715 17.9252L5.58131 17.2007C5.49093 16.9681 5.36053 16.5759 5.32365 15.7672L3.32573 15.8583ZM3.26973 12.004C3.26973 14.525 3.27933 14.8413 3.32573 15.8583L5.32365 15.7671C5.27936 14.7964 5.26973 14.5164 5.26973 12.004H3.26973ZM3.32573 8.14964C3.27933 9.16667 3.26973 9.48293 3.26973 12.004H5.26973C5.26973 9.49153 5.27936 9.21154 5.32365 8.24079L3.32573 8.14964ZM3.71715 6.08277C3.54937 6.51448 3.37266 7.12042 3.32573 8.14967L5.32365 8.24077C5.36053 7.43204 5.49093 7.03983 5.58131 6.80727L3.71715 6.08277ZM4.64725 4.65411C4.21804 5.08327 3.93776 5.51512 3.71715 6.08278L5.58131 6.80726C5.70267 6.49499 5.83089 6.29887 6.06138 6.0684L4.64725 4.65411ZM6.07583 3.72409C5.50818 3.9447 5.07633 4.22498 4.64717 4.65419L6.06146 6.06832C6.29193 5.83783 6.48805 5.70962 6.80032 5.58826L6.07583 3.72409ZM8.14272 3.33267C7.11347 3.37961 6.50753 3.55631 6.07583 3.72409L6.80033 5.58825C7.03288 5.49787 7.4251 5.36747 8.23383 5.3306L8.14272 3.33267ZM11.997 3.27667C9.47599 3.27667 9.15973 3.28627 8.1427 3.33267L8.23385 5.3306C9.2046 5.2863 9.48459 5.27667 11.997 5.27667V3.27667ZM7.85516 12.003C7.85516 14.2904 9.70954 16.1448 11.997 16.1448V14.1448C10.8141 14.1448 9.85516 13.1859 9.85516 12.003H7.85516ZM11.997 7.86108C9.70953 7.86108 7.85516 9.71544 7.85516 12.003H9.85516C9.85516 10.82 10.8141 9.86108 11.997 9.86108V7.86108ZM16.1389 12.003C16.1389 9.71545 14.2845 7.86108 11.997 7.86108V9.86108C13.1799 9.86108 14.1389 10.82 14.1389 12.003H16.1389ZM11.997 16.1448C14.2845 16.1448 16.1389 14.2904 16.1389 12.003H14.1389C14.1389 13.1859 13.18 14.1448 11.997 14.1448V16.1448ZM8.15686 12.003C8.15686 9.88206 9.87614 8.16277 11.997 8.16277V6.16277C8.77157 6.16277 6.15686 8.77749 6.15686 12.003H8.15686ZM11.997 15.8431C9.87614 15.8431 8.15686 14.1238 8.15686 12.003H6.15686C6.15686 15.2284 8.77158 17.8431 11.997 17.8431V15.8431ZM15.8372 12.003C15.8372 14.1238 14.1179 15.8431 11.997 15.8431V17.8431C15.2225 17.8431 17.8372 15.2284 17.8372 12.003H15.8372ZM11.997 8.16277C14.1179 8.16277 15.8372 9.88205 15.8372 12.003H17.8372C17.8372 8.77749 15.2225 6.16277 11.997 6.16277V8.16277ZM17.1595 6.97163C17.1595 7.04399 17.1009 7.10269 17.0284 7.10269V9.10269C18.2053 9.10269 19.1595 8.14864 19.1595 6.97163H17.1595ZM17.0284 6.84054C17.1008 6.84054 17.1595 6.89924 17.1595 6.97163H19.1595C19.1595 5.79467 18.2054 4.84054 17.0284 4.84054V6.84054ZM16.8974 6.97163C16.8974 6.89922 16.9561 6.84054 17.0284 6.84054V4.84054C15.8515 4.84054 14.8974 5.79469 14.8974 6.97163H16.8974ZM17.0284 7.10269C16.956 7.10269 16.8974 7.04401 16.8974 6.97163H14.8974C14.8974 8.14862 15.8515 9.10269 17.0284 9.10269V7.10269Z" fill="#4B5564" mask="url(#path-1-inside-1)"/>
</g>
<defs>
<clipPath id="clip0">
<rect width="18.8571" height="18.8571" fill="white" transform="translate(2.57143 2.57153)"/>
</clipPath>
</defs>
</svg>
