<?xml version="1.0" encoding="UTF-8" standalone="no"?>
<svg width="14px" height="14px" viewBox="0 0 14 14" version="1.1" xmlns="http://www.w3.org/2000/svg" xmlns:xlink="http://www.w3.org/1999/xlink">
    <!-- Generator: Sketch 3.7.2 (28276) - http://www.bohemiancoding.com/sketch -->
    <title>icn-google-plus</title>
    <desc>Created with Sketch.</desc>
    <defs></defs>
    <g id="influencers-2" stroke="none" stroke-width="1" fill="none" fill-rule="evenodd">
        <g id="influencers---influencer---profile" transform="translate(-56.000000, -429.000000)" fill="#606369">
            <path d="M63.1785067,436.992583 L62.5220043,436.482776 C62.3220702,436.316961 62.0486237,436.098072 62.0486237,435.697379 C62.0486237,435.295039 62.3220702,435.039229 62.5594198,434.802373 C63.324213,434.200429 64.0883468,433.559749 64.0883468,432.209659 C64.0883468,430.821328 63.2147684,430.090984 62.7961101,429.74452 L63.9250041,429.74452 L65.109939,429 L61.5201912,429 C60.5351904,429 59.1157079,429.233064 58.0764793,430.090984 C57.2932256,430.766771 56.9111587,431.698533 56.9111587,432.537333 C56.9111587,433.961266 58.0044503,435.404648 59.9350585,435.404648 C60.1173562,435.404648 60.3167958,435.386682 60.517554,435.368057 C60.4273941,435.58744 60.3362453,435.770068 60.3362453,436.080105 C60.3362453,436.645624 60.6268337,436.992418 60.8829735,437.320916 C60.0626339,437.377287 58.5312345,437.468106 57.4023405,438.162024 C56.3271798,438.801385 56,439.731993 56,440.388825 C56,441.740729 57.2742706,443 59.916598,443 C63.0499423,443 64.7087523,441.266194 64.7087523,439.54986 C64.7089171,438.288775 63.9803857,437.66804 63.1785067,436.992583 L63.1785067,436.992583 Z M60.7919895,434.893028 C59.2244932,434.893028 58.5144223,432.866656 58.5144223,431.643976 C58.5144223,431.167958 58.6045822,430.676446 58.9146201,430.292566 C59.2068568,429.926982 59.7158398,429.689797 60.1910335,429.689797 C61.7021592,429.689797 62.4859074,431.7343 62.4859074,433.049283 C62.4859074,433.378276 62.4496456,433.961266 62.0306577,434.382726 C61.7375968,434.675128 61.2472392,434.893028 60.7919895,434.893028 L60.7919895,434.893028 Z M60.8099555,442.234877 C58.8607219,442.234877 57.603758,441.302456 57.603758,440.005934 C57.603758,438.709741 58.7692434,438.271304 59.1702654,438.126092 C59.9350585,437.868798 60.9192352,437.832866 61.083402,437.832866 C61.2655349,437.832866 61.3566837,437.832866 61.5017307,437.851162 C62.8874238,438.837317 63.4888742,439.328828 63.4888742,440.262403 C63.4888742,441.392945 62.5594198,442.234877 60.8099555,442.234877 Z M67.7895171,434.946102 L67.7895171,433.120653 L66.8879182,433.120653 L66.8879182,434.946102 L65.065436,434.946102 L65.065436,435.857755 L66.8879182,435.857755 L66.8879182,437.694412 L67.7895171,437.694412 L67.7895171,435.857755 L69.6212296,435.857755 L69.6212296,434.946102 L67.7895171,434.946102 Z" id="icn-google-plus"></path>
        </g>
    </g>
</svg>