<svg width="24" height="24" viewBox="0 0 24 24" fill="none" xmlns="http://www.w3.org/2000/svg">
<g clip-path="url(#clip0)">
<path d="M12.1278 4.50013L12.1262 4.50015L11.8346 4.50305L11.8289 4.50311V4.50308C11.4934 4.50308 10.8136 4.5513 10.0874 4.87216L10.0873 4.87221C9.67495 5.05428 9.30634 5.29937 8.99016 5.60005L8.99005 5.60016C8.61329 5.95822 8.30136 6.40427 8.06649 6.93158L8.06647 6.93162C7.91796 7.26499 7.84678 7.75582 7.83131 8.34974C7.81628 8.92678 7.8541 9.54413 7.89019 10.1195L7.89046 10.1214L7.89175 10.1419L7.89405 10.1786C7.90109 10.2908 7.90844 10.4078 7.91521 10.5222L7.9354 10.8633L7.62494 11.006C7.50178 11.0626 7.33995 11.1044 7.1368 11.1044C6.8223 11.1044 6.49227 11.0058 6.16728 10.8534L6.37961 10.4007M12.1278 4.50013L4.32852 16.5787C4.1882 16.5134 4.10728 16.4565 4.06089 16.4143C4.5891 16.3079 5.09164 16.1008 5.55565 15.8006C5.96926 15.5331 6.35265 15.1924 6.6966 14.7911C7.29418 14.0945 7.58895 13.4335 7.63155 13.3342C7.77143 13.0489 7.8688 12.6875 7.72204 12.3415L7.722 12.3415C7.587 12.0234 7.29696 11.8442 7.09897 11.7453C6.89012 11.6409 6.66162 11.5682 6.51024 11.5201L6.49789 11.5162L6.49759 11.5161C6.40212 11.4858 6.33428 11.464 6.28123 11.4431C6.03719 11.3465 5.88544 11.2517 5.80214 11.1755L5.80199 11.1754C5.73337 11.1127 5.71949 11.0709 5.71641 11.0603C5.71275 11.0477 5.71376 11.0401 5.71394 11.039C5.71566 11.0305 5.7317 10.9761 5.83555 10.9151L5.83579 10.9149C5.92017 10.8653 6.01399 10.8412 6.09135 10.8412C6.13536 10.8412 6.15845 10.8492 6.16835 10.8539L6.37961 10.4007M12.1278 4.50013L12.1627 4.5H12.1635M12.1278 4.50013L12.1635 4.5M6.37961 10.4007C6.29484 10.3612 6.1981 10.3412 6.09135 10.3412C5.91984 10.3412 5.73903 10.3917 5.58219 10.484M6.37961 10.4007C6.66769 10.5358 6.92251 10.6044 7.1368 10.6044C7.26999 10.6044 7.36035 10.5773 7.41608 10.5517C7.40937 10.4385 7.4021 10.3225 7.39505 10.2103L7.39273 10.1732L7.39246 10.1714L7.39243 10.171L5.58219 10.484M5.58219 10.484C5.38486 10.6 5.25736 10.7639 5.22273 10.9457C5.19991 11.0659 5.20101 11.3035 5.46469 11.5445L5.58219 10.484ZM6.10584 17.0117L6.2227 17.2342C6.272 17.328 6.30289 17.4443 6.31893 17.5066C6.33805 17.5809 6.35539 17.66 6.36799 17.7175L6.36998 17.7265L6.37032 17.7281C6.3961 17.8474 6.41993 17.9554 6.45151 18.0666C6.50443 18.0643 6.58093 18.0509 6.73043 18.0219C6.73058 18.0218 6.73073 18.0218 6.73088 18.0218L6.73433 18.0211C6.95633 17.9775 7.29501 17.911 7.71808 17.911C7.95429 17.911 8.19643 17.9318 8.43805 17.9719L8.4382 17.972C8.96986 18.0606 9.41239 18.3742 9.79441 18.645C9.80834 18.6549 9.8222 18.6647 9.83598 18.6744L6.10584 17.0117ZM6.10584 17.0117L5.85759 16.9727M6.10584 17.0117L5.85759 16.9727M5.85759 16.9727C5.14468 16.8608 4.63957 16.7233 4.32869 16.5788L5.85759 16.9727ZM11.9756 19.4963L12.0048 19.4976C12.0329 19.499 12.0681 19.5 12.1046 19.5C12.9714 19.5 13.5398 19.1157 14.1393 18.6918L14.1404 18.6908L14.1648 18.6736C14.1789 18.6636 14.1932 18.6535 14.2075 18.6434C14.5892 18.3732 15.031 18.0605 15.5619 17.972L15.5621 17.9719C15.8035 17.9318 16.0456 17.911 16.282 17.911C16.6844 17.911 17.0023 17.9629 17.2697 18.015L17.2706 18.0152C17.4086 18.0424 17.4971 18.0522 17.5504 18.0536C17.5807 17.9466 17.6042 17.8421 17.6299 17.724L17.63 17.7235L17.6311 17.7189C17.6431 17.664 17.6606 17.5838 17.6803 17.5073C17.6963 17.445 17.7274 17.3281 17.776 17.2347L17.8924 17.0105L18.142 16.9713C18.8558 16.8591 19.3607 16.7218 19.6715 16.5773L19.6717 16.5773C19.811 16.5126 19.8919 16.456 19.9385 16.4138C18.72 16.1683 17.8459 15.4302 17.279 14.7612C16.7031 14.0814 16.4131 13.4371 16.3702 13.3378L16.3698 13.3369L16.3698 13.3369C16.2288 13.0504 16.131 12.6882 16.2781 12.3412L16.2781 12.3412C16.413 12.0231 16.703 11.8439 16.9009 11.745C17.11 11.6405 17.3389 11.5678 17.4905 11.5197L17.5021 11.516L17.5032 11.5156C17.5982 11.4857 17.6664 11.4637 17.7184 11.4431L17.7185 11.4431C17.9968 11.333 18.1448 11.2324 18.221 11.1536L18.2213 11.1533C18.2631 11.1103 18.2771 11.08 18.282 11.0671C18.2871 11.0535 18.2869 11.0461 18.2869 11.0453L18.7865 11.0359L18.2869 11.0457C18.2868 11.0388 18.285 11.019 18.2572 10.9867C18.2277 10.9523 18.1697 10.9068 18.0724 10.8719L18.061 10.8678L18.0498 10.8632C18.0027 10.8437 17.9403 10.8303 17.871 10.8303C17.8488 10.8303 17.8232 10.8319 17.7978 10.8363C17.7721 10.8408 17.7525 10.8471 17.7387 10.8535C17.4376 10.9945 17.1337 11.0885 16.8422 11.1023L16.8177 11.1035L16.7932 11.1022C16.6226 11.0936 16.4844 11.0553 16.3766 11.0061L16.065 10.864L16.085 10.5221C16.0904 10.4284 16.0964 10.3325 16.1025 10.2344L16.1052 10.191L16.1053 10.1901L16.1082 10.1421L16.1082 10.1408C16.1449 9.55918 16.184 8.93352 16.1689 8.34916C16.1535 7.75487 16.0824 7.26368 15.9338 6.93003C15.6979 6.40068 15.3848 5.95343 15.0065 5.59456C14.689 5.2937 14.3192 5.04865 13.9053 4.86665L11.9756 19.4963ZM11.9756 19.4963L11.9465 19.4983M11.9756 19.4963L11.9465 19.4983M11.9465 19.4983C11.9306 19.4994 11.9135 19.5 11.8955 19.5C11.0174 19.5 10.4452 19.1055 9.83602 18.6744L11.9465 19.4983ZM16.8275 13.1355L16.8275 13.1355L16.8275 13.1355ZM16.8275 13.1355L16.8274 13.1355M16.8275 13.1355L16.8274 13.1355M16.8274 13.1355L16.8274 13.1355L16.8274 13.1355ZM12.1635 4.5C12.4998 4.5 13.1798 4.54807 13.9051 4.86657L12.1635 4.5ZM7.6334 13.3299L7.63364 13.3293L7.63357 13.33L7.6334 13.3299ZM3.91499 16.441C3.91516 16.441 3.91534 16.441 3.91552 16.4409C3.91524 16.441 3.91497 16.441 3.91469 16.4411L3.91499 16.441ZM16.3662 13.3285L16.3674 13.3313L16.3662 13.3285L16.3662 13.3285Z" stroke="#4B5564"/>
</g>
<defs>
<clipPath id="clip0">
<rect x="3.5" y="4" width="17" height="16" fill="white"/>
</clipPath>
</defs>
</svg>
