<?xml version="1.0" encoding="UTF-8" standalone="no"?>
<svg
   xmlns:dc="http://purl.org/dc/elements/1.1/"
   xmlns:cc="http://creativecommons.org/ns#"
   xmlns:rdf="http://www.w3.org/1999/02/22-rdf-syntax-ns#"
   xmlns:svg="http://www.w3.org/2000/svg"
   xmlns="http://www.w3.org/2000/svg"
   xmlns:sodipodi="http://sodipodi.sourceforge.net/DTD/sodipodi-0.dtd"
   xmlns:inkscape="http://www.inkscape.org/namespaces/inkscape"
   inkscape:version="1.0 (4035a4f, 2020-05-01)"
   sodipodi:docname="icn-taboola-new.svg"
   id="svg100"
   version="1.1"
   fill="none"
   viewBox="0 0 28 28"
   height="28"
   width="28">
  <metadata
     id="metadata106">
    <rdf:RDF>
      <cc:Work
         rdf:about="">
        <dc:format>image/svg+xml</dc:format>
        <dc:type
           rdf:resource="http://purl.org/dc/dcmitype/StillImage" />
      </cc:Work>
    </rdf:RDF>
  </metadata>
  <defs
     id="defs104" />
  <sodipodi:namedview
     inkscape:current-layer="svg100"
     inkscape:window-maximized="1"
     inkscape:window-y="23"
     inkscape:window-x="1440"
     inkscape:cy="16.008914"
     inkscape:cx="10.83646"
     inkscape:zoom="11.651031"
     showgrid="false"
     id="namedview102"
     inkscape:window-height="1035"
     inkscape:window-width="1920"
     inkscape:pageshadow="2"
     inkscape:pageopacity="0"
     guidetolerance="10"
     gridtolerance="10"
     objecttolerance="10"
     borderopacity="1"
     bordercolor="#666666"
     pagecolor="#ffffff" />
  <mask
     height="20"
     width="24"
     y="4"
     x="2"
     maskUnits="userSpaceOnUse"
     mask-type="alpha"
     id="mask0">
    <path
       id="path89"
       fill="white"
       d="M2.00002 4.62H26V23.3824H2.00002V4.62Z" />
  </mask>
  <g
     style="fill:#606369;"
     id="g98"
     mask="url(#mask0)">
    <path
       id="path92"
       fill="#606369;"
       d="M8.38721 16.99C3.96091 16.9645 1.98027 14.0245 2.00016 10.7562C2.01932 7.48729 4.03272 4.59438 8.45886 4.62103C12.8851 4.64549 14.8659 7.56212 14.8463 10.831C14.8268 14.0989 12.8134 17.0155 8.38721 16.99ZM8.44044 7.88885C6.73751 7.87862 6.5008 9.53468 6.49338 10.7821C6.48662 12.0302 6.70344 13.7118 8.40563 13.7223C10.1075 13.7314 10.3452 12.054 10.3526 10.8045C10.3599 9.55604 10.1427 7.8981 8.44044 7.88885Z"
       clip-rule="evenodd"
       fill-rule="evenodd" />
    <path
       id="path94"
       fill="#606369;"
       d="M19.5397 16.9902C15.1146 16.9636 13.1342 14.0236 13.1537 10.7554C13.1718 7.48749 15.1861 4.5936 19.6117 4.62018C24.0375 4.64577 26.0183 7.56232 26 10.8303C25.9803 14.0992 23.9659 17.0151 19.5397 16.9902ZM19.593 7.88799C17.891 7.87777 17.6545 9.53383 17.6474 10.7823C17.6391 12.0305 17.8563 13.7111 19.5593 13.7214C21.26 13.7317 21.498 12.0532 21.5051 10.8048C21.5123 9.55616 21.2948 7.89733 19.593 7.88799Z"
       clip-rule="evenodd"
       fill-rule="evenodd" />
    <path
       id="path96"
       fill="#606369;"
       d="M3.68565 16.9902C6.87656 18.4158 10.1877 19.0487 13.7955 19.0693C17.5856 19.0917 20.4596 18.3759 24.0981 16.9902L24.077 20.9165C20.8204 22.5315 17.289 23.4022 13.7698 23.3819C9.93478 23.3593 7.17065 22.5716 3.66193 20.9165L3.68565 16.9902Z"
       clip-rule="evenodd"
       fill-rule="evenodd" />
  </g>
</svg>
