<svg width="28" height="28" viewBox="0 0 28 28" fill="none" xmlns="http://www.w3.org/2000/svg">
<path d="M18.513 3.5662L18.513 3.5662C17.4716 3.51869 17.0693 3.50361 14.8526 3.50098H13.1485H13.1482L12.9679 3.50122C12.9679 3.50122 12.9679 3.50122 12.9678 3.50122C10.9092 3.50447 10.5008 3.52 9.48805 3.5662L9.48804 3.5662C8.36464 3.61744 7.61931 3.79413 6.97624 4.04407L6.9762 4.04409C6.31287 4.30183 5.75941 4.64125 5.20032 5.20029C5.20032 5.2003 5.20031 5.20031 5.2003 5.20032M18.513 3.5662L3.57803 6.79511C3.8591 6.07176 4.23524 5.45832 4.84676 4.84675L5.2003 5.20032M18.513 3.5662C19.6364 3.61744 20.3817 3.79413 21.0248 4.04407L21.0248 4.04409C21.6882 4.30184 22.2417 4.64126 22.8008 5.20032M18.513 3.5662L22.8008 5.20032M5.2003 5.20032C4.64126 5.75941 4.30183 6.31287 4.04409 6.9762L4.04407 6.97624C3.79413 7.6193 3.61745 8.36462 3.56621 9.48802L3.56621 9.48803C3.51869 10.5294 3.50361 10.9317 3.50098 13.1485M5.2003 5.20032L3.50098 13.1485M3.50098 13.1485V13.1482H3.00098L3.50098 13.1488C3.50098 13.1487 3.50098 13.1486 3.50098 13.1485ZM3.50098 13.1485V14.8526M3.50098 13.1485L3.00098 14.8529M3.50098 14.8526C3.50098 14.8525 3.50098 14.8524 3.50098 14.8523L3.00098 14.8529M3.50098 14.8526V14.8529H3.00098M3.50098 14.8526C3.50361 17.0693 3.51869 17.4716 3.56621 18.513L3.56621 18.513C3.61745 19.6364 3.79413 20.3818 4.04407 21.0248L4.04409 21.0249C4.30184 21.6882 4.64127 22.2417 5.20032 22.8008M3.00098 14.8529C3.00361 17.0747 3.01877 17.4848 3.06673 18.5358C3.12013 19.7066 3.30609 20.5063 3.57803 21.206C3.8591 21.9293 4.23524 22.5427 4.84676 23.1543M5.20032 22.8008C5.20032 22.8008 5.20031 22.8008 5.2003 22.8007L4.84676 23.1543M5.20032 22.8008L4.84676 23.1543M5.20032 22.8008C5.75941 23.3598 6.31288 23.6992 6.97622 23.957C7.6193 24.2069 8.36464 24.3836 9.48804 24.4349L9.46526 24.9343M4.84676 23.1543C5.45832 23.7658 6.07176 24.142 6.79511 24.4231C7.49479 24.695 8.29444 24.8809 9.46526 24.9343M9.46526 24.9343L9.48805 24.4349C10.6499 24.4879 11.0156 24.5005 14.0006 24.5005C16.9855 24.5005 17.3512 24.4879 18.513 24.4349L18.5358 24.9343M9.46526 24.9343C10.6385 24.9879 11.0131 25.0005 14.0006 25.0005C16.988 25.0005 17.3625 24.9879 18.5358 24.9343M18.5358 24.9343L18.513 24.4349C19.6364 24.3836 20.3817 24.2069 21.0248 23.957C21.6882 23.6992 22.2416 23.3598 22.8007 22.8008M18.5358 24.9343C19.7066 24.8809 20.5063 24.695 21.2059 24.4231C21.9293 24.142 22.5427 23.7658 23.1543 23.1543M22.8007 22.8008L23.1543 4.84675C23.7658 5.45832 24.1419 6.07176 24.4231 6.79511C24.695 7.49479 24.8809 8.29442 24.9343 9.46524C24.9879 10.6385 25.0005 11.0131 25.0005 14.0006C25.0005 16.988 24.9879 17.3626 24.9343 18.5358C24.8809 19.7066 24.695 20.5063 24.4231 21.206C24.1419 21.9293 23.7658 22.5427 23.1543 23.1543M22.8007 22.8008C22.8007 22.8008 22.8008 22.8008 22.8008 22.8007C23.3598 22.2417 23.6992 21.6882 23.957 21.0248C24.2069 20.3818 24.3836 19.6364 24.4349 18.513C24.4879 17.3512 24.5005 16.9855 24.5005 14.0006C24.5005 11.0155 24.4879 10.6499 24.4349 9.48802C24.3836 8.36464 24.2069 7.61931 23.957 6.97623C23.6992 6.31287 23.3598 5.7594 22.8008 5.20032M22.8007 22.8008L23.1543 23.1543M23.1543 23.1543L22.8008 5.20032M14.6963 4.48277H14.6967C17.0073 4.48472 17.3969 4.49829 18.4683 4.54717C19.5959 4.59859 20.2318 4.78936 20.6692 4.95935C21.2464 5.18371 21.6718 5.46008 22.1063 5.89468C22.541 6.32927 22.8173 6.75464 23.0417 7.33192C23.2117 7.76932 23.4025 8.40519 23.4539 9.5328C23.5028 10.6041 23.5163 10.9937 23.5183 13.3044L23.5183 13.3048V14.6963V14.6967C23.5163 17.0073 23.5028 17.3969 23.4539 18.4683C23.4025 19.5959 23.2117 20.2317 23.0417 20.6691C22.8173 21.2464 22.541 21.6718 22.1064 22.1063C22.1064 22.1063 22.1064 22.1064 22.1063 22.1064M14.6963 4.48277L22.1063 22.1064M14.6963 4.48277L13.3048 4.48277L13.3044 4.48277M14.6963 4.48277L13.3044 4.48277M22.1063 22.1064C21.6718 22.541 21.2464 22.8174 20.6692 23.0417C20.2318 23.2117 19.5959 23.4025 18.4683 23.4539C17.3971 23.5028 17.0076 23.5163 14.6968 23.5183L14.6963 23.5183H13.3048H13.3043C10.9935 23.5163 10.604 23.5028 9.53281 23.4539C8.40519 23.4025 7.76932 23.2117 7.33192 23.0417C6.75464 22.8174 6.32927 22.541 5.8947 22.1064M22.1063 22.1064L5.8947 22.1064M5.8947 22.1064C5.46014 21.6718 5.18372 21.2465 4.95936 20.6691M5.8947 22.1064L4.95936 20.6691M13.3044 4.48277C10.9937 4.48472 10.6041 4.49829 9.5328 4.54717C8.40519 4.59859 7.76932 4.78936 7.33192 4.95936C6.75463 5.18371 6.32926 5.4601 5.89468 5.89472C5.46007 6.32929 5.18371 6.75465 4.95935 7.33192C4.78936 7.76932 4.59859 8.40519 4.54717 9.53281C4.49829 10.6041 4.48472 10.9937 4.48277 13.3044V13.3048M13.3044 4.48277L4.48277 13.3048M4.48277 13.3048L4.48277 14.6963L4.48277 14.6967M4.48277 13.3048L4.48277 14.6967M4.48277 14.6967C4.48472 17.0073 4.49829 17.3969 4.54717 18.4683M4.48277 14.6967L4.54717 18.4683M4.54717 18.4683C4.59859 19.5959 4.78936 20.2317 4.95936 20.6691M4.54717 18.4683L4.95936 20.6691M14.0006 8.85189C16.8441 8.85189 19.1492 11.157 19.1492 14.0006C19.1492 16.8441 16.8441 19.1492 14.0006 19.1492C11.157 19.1492 8.85189 16.8441 8.85189 14.0006C8.85189 11.157 11.157 8.85189 14.0006 8.85189ZM14.0006 9.83386C11.6993 9.83386 9.83386 11.6993 9.83386 14.0006C9.83386 16.3017 11.6993 18.1672 14.0006 18.1672C16.3017 18.1672 18.1672 16.3017 18.1672 14.0006C18.1672 11.6993 16.3017 9.83386 14.0006 9.83386ZM19.8723 7.30869C20.3252 7.30869 20.6924 7.67584 20.6924 8.12871C20.6924 8.58157 20.3252 8.9487 19.8723 8.9487C19.4195 8.9487 19.0524 8.58159 19.0524 8.12871C19.0524 7.67582 19.4195 7.30869 19.8723 7.30869Z" fill="#4B5564" stroke="#4B5564"/>
</svg>
