<svg width="28" height="28" viewBox="0 0 28 28" fill="none" xmlns="http://www.w3.org/2000/svg">
<mask id="path-1-inside-1" fill="white">
<path d="M9.54752 23.7526C18.6042 23.7526 23.5578 16.2492 23.5578 9.74235C23.5578 9.52923 23.5578 9.31707 23.5434 9.10587C24.507 8.40883 25.3389 7.54576 26 6.55707C25.1013 6.95528 24.148 7.21643 23.1718 7.33179C24.1998 6.71641 24.9691 5.74853 25.3366 4.60827C24.3701 5.18183 23.3126 5.58604 22.2099 5.80347C21.4675 5.01405 20.4856 4.49131 19.4162 4.31616C18.3468 4.141 17.2494 4.32319 16.294 4.83452C15.3385 5.34586 14.5782 6.15784 14.1307 7.14482C13.6833 8.13179 13.5735 9.23874 13.8186 10.2944C11.8609 10.1962 9.94572 9.68747 8.19741 8.80116C6.4491 7.91485 4.90672 6.67078 3.6704 5.14971C3.04073 6.23371 2.84787 7.51694 3.1311 8.73813C3.41433 9.95933 4.15234 11.0267 5.19488 11.7228C4.41127 11.6996 3.64475 11.4882 2.96 11.1065C2.96 11.1267 2.96 11.1478 2.96 11.1689C2.96031 12.3058 3.35385 13.4075 4.07387 14.2873C4.79389 15.167 5.79606 15.7707 6.9104 15.9958C6.18548 16.1935 5.42488 16.2224 4.68704 16.0803C5.00169 17.0587 5.61427 17.9143 6.43911 18.5274C7.26395 19.1405 8.25979 19.4805 9.28736 19.4998C7.54375 20.8701 5.38982 21.614 3.17216 21.6118C2.78039 21.611 2.389 21.5873 2 21.5407C4.25181 22.9858 6.87192 23.7523 9.54752 23.7487"/>
</mask>
<path d="M9.54752 23.7526C18.6042 23.7526 23.5578 16.2492 23.5578 9.74235C23.5578 9.52923 23.5578 9.31707 23.5434 9.10587C24.507 8.40883 25.3389 7.54576 26 6.55707C25.1013 6.95528 24.148 7.21643 23.1718 7.33179C24.1998 6.71641 24.9691 5.74853 25.3366 4.60827C24.3701 5.18183 23.3126 5.58604 22.2099 5.80347C21.4675 5.01405 20.4856 4.49131 19.4162 4.31616C18.3468 4.141 17.2494 4.32319 16.294 4.83452C15.3385 5.34586 14.5782 6.15784 14.1307 7.14482C13.6833 8.13179 13.5735 9.23874 13.8186 10.2944C11.8609 10.1962 9.94572 9.68747 8.19741 8.80116C6.4491 7.91485 4.90672 6.67078 3.6704 5.14971C3.04073 6.23371 2.84787 7.51694 3.1311 8.73813C3.41433 9.95933 4.15234 11.0267 5.19488 11.7228C4.41127 11.6996 3.64475 11.4882 2.96 11.1065C2.96 11.1267 2.96 11.1478 2.96 11.1689C2.96031 12.3058 3.35385 13.4075 4.07387 14.2873C4.79389 15.167 5.79606 15.7707 6.9104 15.9958C6.18548 16.1935 5.42488 16.2224 4.68704 16.0803C5.00169 17.0587 5.61427 17.9143 6.43911 18.5274C7.26395 19.1405 8.25979 19.4805 9.28736 19.4998C7.54375 20.8701 5.38982 21.614 3.17216 21.6118C2.78039 21.611 2.389 21.5873 2 21.5407C4.25181 22.9858 6.87192 23.7523 9.54752 23.7487" fill="#4B5564"/>
<path d="M23.5434 9.10587L22.9573 8.29561L22.508 8.62062L22.5457 9.1739L23.5434 9.10587ZM26 6.55707L26.8313 7.11292L28.7488 4.2453L25.5949 5.64281L26 6.55707ZM23.1718 7.33179L22.6582 6.47379L23.2892 8.32488L23.1718 7.33179ZM25.3366 4.60827L26.2884 4.91507L27.0993 2.39951L24.8263 3.74828L25.3366 4.60827ZM22.2099 5.80347L21.4815 6.48855L21.8605 6.89162L22.4034 6.78458L22.2099 5.80347ZM13.8186 10.2944L13.7685 11.2931L15.0924 11.3595L14.7927 10.0683L13.8186 10.2944ZM3.6704 5.14971L4.4464 4.51898L3.53305 3.39527L2.8057 4.64742L3.6704 5.14971ZM5.19488 11.7228L5.16525 12.7224L8.64703 12.8256L5.75021 10.8912L5.19488 11.7228ZM2.96 11.1065L3.4469 10.2331L1.96 9.40419L1.96 11.1065L2.96 11.1065ZM2.96 11.1689L1.96 11.1689L1.96 11.1692L2.96 11.1689ZM6.9104 15.9958L7.17351 16.9606L7.10841 15.0156L6.9104 15.9958ZM4.68704 16.0803L4.87618 15.0983L3.2181 14.7789L3.73506 16.3864L4.68704 16.0803ZM9.28736 19.4998L9.90528 20.286L12.1108 18.5526L9.30614 18.5L9.28736 19.4998ZM3.17216 21.6118L3.17024 22.6118L3.17115 22.6118L3.17216 21.6118ZM2 21.5407L2.11886 20.5478L1.45991 22.3824L2 21.5407ZM9.54752 24.7526C19.2713 24.7526 24.5578 16.6792 24.5578 9.74235H22.5578C22.5578 15.8192 17.9371 22.7526 9.54752 22.7526V24.7526ZM24.5578 9.74235C24.5578 9.53502 24.5581 9.28872 24.541 9.03785L22.5457 9.1739C22.5574 9.34543 22.5578 9.52344 22.5578 9.74235H24.5578ZM24.1294 9.91613C25.1893 9.14951 26.1042 8.20029 26.8313 7.11292L25.1687 6.00122C24.5736 6.89122 23.8248 7.66814 22.9573 8.29561L24.1294 9.91613ZM25.5949 5.64281C24.7876 6.0005 23.9313 6.23507 23.0545 6.3387L23.2892 8.32488C24.3647 8.19778 25.415 7.91006 26.4051 7.47134L25.5949 5.64281ZM23.6855 8.18979C24.9214 7.44987 25.8465 6.2861 26.2884 4.91507L24.3849 4.30147C24.0917 5.21096 23.4781 5.98296 22.6582 6.47379L23.6855 8.18979ZM24.8263 3.74828C23.9577 4.26372 23.0074 4.62697 22.0165 4.82236L22.4034 6.78458C23.6178 6.54512 24.7824 6.09994 25.847 5.46826L24.8263 3.74828ZM22.9384 5.11839C22.0453 4.1688 20.8642 3.54 19.5778 3.3293L19.2546 5.30301C20.107 5.44262 20.8897 5.8593 21.4815 6.48855L22.9384 5.11839ZM19.5778 3.3293C18.2914 3.11861 16.9714 3.33776 15.8221 3.95285L16.7658 5.7162C17.5274 5.30861 18.4021 5.16339 19.2546 5.30301L19.5778 3.3293ZM15.8221 3.95285C14.6728 4.56793 13.7582 5.54466 13.22 6.73189L15.0415 7.55775C15.3982 6.77102 16.0042 6.12379 16.7658 5.7162L15.8221 3.95285ZM13.22 6.73189C12.6817 7.91912 12.5497 9.25065 12.8445 10.5204L14.7927 10.0683C14.5974 9.22682 14.6848 8.34447 15.0415 7.55775L13.22 6.73189ZM13.8686 9.2956C12.051 9.20448 10.2728 8.73213 8.64958 7.90922L7.74525 9.69309C9.61862 10.6428 11.6708 11.1879 13.7685 11.2931L13.8686 9.2956ZM8.64958 7.90922C7.02633 7.08631 5.59429 5.93124 4.4464 4.51898L2.8944 5.78044C4.21916 7.41032 5.87187 8.74338 7.74525 9.69309L8.64958 7.90922ZM2.8057 4.64742C2.04825 5.9514 1.81625 7.49504 2.15696 8.96406L4.10524 8.5122C3.87949 7.53883 4.03321 6.51601 4.5351 5.652L2.8057 4.64742ZM2.15696 8.96406C2.49766 10.4331 3.38544 11.717 4.63955 12.5545L5.75021 10.8912C4.91924 10.3363 4.33099 9.48557 4.10524 8.5122L2.15696 8.96406ZM5.22451 10.7233C4.60123 10.7048 3.99154 10.5367 3.4469 10.2331L2.4731 11.98C3.29795 12.4398 4.22131 12.6944 5.16525 12.7224L5.22451 10.7233ZM1.96 11.1065C1.96 11.1244 1.96 11.15 1.96 11.1689H3.96C3.96 11.15 3.96 11.1244 3.96 11.1065L1.96 11.1065ZM1.96 11.1692C1.96037 12.5368 2.43381 13.8622 3.3 14.9206L4.84774 13.6539C4.27389 12.9528 3.96025 12.0747 3.96 11.1686L1.96 11.1692ZM3.3 14.9206C4.1662 15.979 5.37182 16.7052 6.71239 16.976L7.10841 15.0156C6.2203 14.8362 5.42158 14.3551 4.84774 13.6539L3.3 14.9206ZM6.64729 15.031C6.06982 15.1885 5.46394 15.2115 4.87618 15.0983L4.4979 17.0622C5.38582 17.2333 6.30113 17.1985 7.17351 16.9606L6.64729 15.031ZM3.73506 16.3864C4.11353 17.5633 4.85038 18.5925 5.84254 19.33L7.03567 17.7248C6.37816 17.2361 5.88984 16.554 5.63902 15.7741L3.73506 16.3864ZM5.84254 19.33C6.8347 20.0674 8.03256 20.4764 9.26858 20.4996L9.30614 18.5C8.48702 18.4846 7.69319 18.2136 7.03567 17.7248L5.84254 19.33ZM8.66944 18.7135C7.1023 19.9452 5.16637 20.6138 3.17317 20.6118L3.17115 22.6118C5.61326 22.6143 7.98519 21.7951 9.90528 20.286L8.66944 18.7135ZM3.17408 20.6118C2.8214 20.6111 2.46905 20.5898 2.11886 20.5478L1.88114 22.5337C2.30894 22.5849 2.73938 22.611 3.17024 22.6118L3.17408 20.6118ZM1.45991 22.3824C3.87326 23.9311 6.68132 24.7526 9.54885 24.7487L9.54619 22.7487C7.06252 22.7521 4.63037 22.0405 2.54009 20.6991L1.45991 22.3824Z" fill="#4B5564" mask="url(#path-1-inside-1)"/>
</svg>
