<svg width="24" height="24" viewBox="0 0 24 24" fill="none" xmlns="http://www.w3.org/2000/svg">
<mask id="path-1-inside-1" fill="white">
<path fill-rule="evenodd" clip-rule="evenodd" d="M19.8756 21.4287H4.1244C3.26683 21.4287 2.57143 20.7331 2.57143 19.8757V4.12451C2.57143 3.26694 3.26704 2.57153 4.1244 2.57153H19.8756C20.7332 2.57153 21.4286 3.26714 21.4286 4.12451V19.8757C21.4286 20.7333 20.733 21.4287 19.8756 21.4287ZM8.42274 6.73137C8.42274 7.66541 7.66511 8.42304 6.73106 8.42304C5.79701 8.42304 5.03938 7.66541 5.03938 6.73137C5.03938 5.7969 5.79701 5.03969 6.73106 5.03969C7.66511 5.03969 8.42274 5.79669 8.42274 6.73137ZM12.416 9.78179H9.78148L9.7819 18.6557H12.5549V14.2098C12.5549 13.0357 13.0657 11.9309 14.5194 11.9309C15.5947 11.9309 15.8825 12.7367 15.8825 14.2098V18.6557H18.6556V13.6209C18.6556 10.8216 17.7663 9.64309 15.1586 9.64309C13.798 9.64309 12.7693 10.3997 12.416 11.1079V9.78179ZM8.11767 18.6557H5.34466V9.78179H8.11767V18.6557Z"/>
</mask>
<path fill-rule="evenodd" clip-rule="evenodd" d="M19.8756 21.4287H4.1244C3.26683 21.4287 2.57143 20.7331 2.57143 19.8757V4.12451C2.57143 3.26694 3.26704 2.57153 4.1244 2.57153H19.8756C20.7332 2.57153 21.4286 3.26714 21.4286 4.12451V19.8757C21.4286 20.7333 20.733 21.4287 19.8756 21.4287ZM8.42274 6.73137C8.42274 7.66541 7.66511 8.42304 6.73106 8.42304C5.79701 8.42304 5.03938 7.66541 5.03938 6.73137C5.03938 5.7969 5.79701 5.03969 6.73106 5.03969C7.66511 5.03969 8.42274 5.79669 8.42274 6.73137ZM12.416 9.78179H9.78148L9.7819 18.6557H12.5549V14.2098C12.5549 13.0357 13.0657 11.9309 14.5194 11.9309C15.5947 11.9309 15.8825 12.7367 15.8825 14.2098V18.6557H18.6556V13.6209C18.6556 10.8216 17.7663 9.64309 15.1586 9.64309C13.798 9.64309 12.7693 10.3997 12.416 11.1079V9.78179ZM8.11767 18.6557H5.34466V9.78179H8.11767V18.6557Z" fill="#4B5564"/>
<path d="M9.78148 9.78179V8.78179H8.78144L8.78148 9.78184L9.78148 9.78179ZM12.416 9.78179H13.416V8.78179H12.416V9.78179ZM9.7819 18.6557L8.7819 18.6557L8.78195 19.6557H9.7819V18.6557ZM12.5549 18.6557V19.6557H13.5549V18.6557H12.5549ZM15.8825 18.6557H14.8825V19.6557H15.8825V18.6557ZM18.6556 18.6557V19.6557H19.6556V18.6557H18.6556ZM12.416 11.1079H11.416L13.3109 11.5542L12.416 11.1079ZM5.34466 18.6557H4.34466V19.6557H5.34466V18.6557ZM8.11767 18.6557V19.6557H9.11767V18.6557H8.11767ZM5.34466 9.78179V8.78179H4.34466V9.78179H5.34466ZM8.11767 9.78179H9.11767V8.78179H8.11767V9.78179ZM4.1244 22.4287H19.8756V20.4287H4.1244V22.4287ZM1.57143 19.8757C1.57143 21.2853 2.71446 22.4287 4.1244 22.4287V20.4287C3.8192 20.4287 3.57143 20.1809 3.57143 19.8757H1.57143ZM1.57143 4.12451V19.8757H3.57143V4.12451H1.57143ZM4.1244 1.57153C2.71484 1.57153 1.57143 2.71456 1.57143 4.12451H3.57143C3.57143 3.81931 3.81924 3.57153 4.1244 3.57153V1.57153ZM19.8756 1.57153H4.1244V3.57153H19.8756V1.57153ZM22.4286 4.12451C22.4286 2.71495 21.2855 1.57153 19.8756 1.57153V3.57153C20.1808 3.57153 20.4286 3.81934 20.4286 4.12451H22.4286ZM22.4286 19.8757V4.12451H20.4286V19.8757H22.4286ZM19.8756 22.4287C21.2852 22.4287 22.4286 21.2856 22.4286 19.8757H20.4286C20.4286 20.1809 20.1808 20.4287 19.8756 20.4287V22.4287ZM6.73106 9.42304C8.21739 9.42304 9.42274 8.2177 9.42274 6.73137H7.42274C7.42274 7.11313 7.11282 7.42304 6.73106 7.42304V9.42304ZM4.03938 6.73137C4.03938 8.2177 5.24473 9.42304 6.73106 9.42304V7.42304C6.3493 7.42304 6.03938 7.11313 6.03938 6.73137H4.03938ZM6.73106 4.03969C5.24489 4.03969 4.03938 5.24445 4.03938 6.73137H6.03938C6.03938 6.34935 6.34914 6.03969 6.73106 6.03969V4.03969ZM9.42274 6.73137C9.42274 5.24416 8.21715 4.03969 6.73106 4.03969V6.03969C7.11306 6.03969 7.42274 6.34922 7.42274 6.73137H9.42274ZM9.78148 10.7818H12.416V8.78179H9.78148V10.7818ZM10.7819 18.6556L10.7815 9.78174L8.78148 9.78184L8.7819 18.6557L10.7819 18.6556ZM12.5549 17.6557H9.7819V19.6557H12.5549V17.6557ZM11.5549 14.2098V18.6557H13.5549V14.2098H11.5549ZM14.5194 10.9309C13.5033 10.9309 12.6995 11.3362 12.1849 12.0396C11.7059 12.6945 11.5549 13.5003 11.5549 14.2098H13.5549C13.5549 13.7451 13.6594 13.4115 13.7991 13.2204C13.9034 13.078 14.0818 12.9309 14.5194 12.9309V10.9309ZM16.8825 14.2098C16.8825 13.4581 16.8186 12.6677 16.4859 12.046C16.3048 11.7078 16.0396 11.4091 15.67 11.2047C15.3081 11.0045 14.9116 10.9309 14.5194 10.9309V12.9309C14.6648 12.9309 14.7075 12.9579 14.702 12.9548C14.6888 12.9475 14.6972 12.9424 14.7225 12.9898C14.8025 13.1393 14.8825 13.4883 14.8825 14.2098H16.8825ZM16.8825 18.6557V14.2098H14.8825V18.6557H16.8825ZM18.6556 17.6557H15.8825V19.6557H18.6556V17.6557ZM17.6556 13.6209V18.6557H19.6556V13.6209H17.6556ZM15.1586 10.6431C16.3368 10.6431 16.8518 10.9111 17.1233 11.2302C17.4311 11.5921 17.6556 12.2774 17.6556 13.6209H19.6556C19.6556 12.1651 19.4354 10.8615 18.6467 9.93434C17.8216 8.96437 16.5882 8.64309 15.1586 8.64309V10.6431ZM13.3109 11.5542C13.4799 11.2153 14.1424 10.6431 15.1586 10.6431V8.64309C13.4536 8.64309 12.0586 9.58407 11.5212 10.6615L13.3109 11.5542ZM11.416 9.78179V11.1079H13.416V9.78179H11.416ZM5.34466 19.6557H8.11767V17.6557H5.34466V19.6557ZM4.34466 9.78179V18.6557H6.34466V9.78179H4.34466ZM8.11767 8.78179H5.34466V10.7818H8.11767V8.78179ZM9.11767 18.6557V9.78179H7.11767V18.6557H9.11767Z" fill="#4B5564" mask="url(#path-1-inside-1)"/>
</svg>
