<svg width="24" height="24" viewBox="0 0 24 24" fill="none" xmlns="http://www.w3.org/2000/svg">
<path d="M21.7198 16.5331C21.5892 16.1779 21.3406 15.9878 21.0574 15.8304C21.0041 15.7992 20.9551 15.7742 20.9134 15.755C20.8289 15.7114 20.7425 15.6691 20.6566 15.6245C19.7739 15.1565 19.0846 14.5661 18.6065 13.8662C18.4707 13.6692 18.353 13.4604 18.2547 13.2422C18.2139 13.1256 18.2158 13.0594 18.2451 12.9989C18.2741 12.9523 18.3125 12.9122 18.3579 12.8813C18.5095 12.781 18.666 12.6792 18.7721 12.6106C18.9612 12.4882 19.111 12.3912 19.2075 12.3226C19.5699 12.0691 19.8233 11.7998 19.9817 11.4989C20.0922 11.2909 20.1567 11.0617 20.1707 10.8266C20.1847 10.5915 20.1479 10.3562 20.0628 10.1366C19.8228 9.50496 19.2262 9.1128 18.5033 9.1128C18.3508 9.11265 18.1988 9.12875 18.0497 9.1608C18.0099 9.16944 17.97 9.17856 17.9311 9.18864C17.9379 8.75664 17.9283 8.30064 17.8899 7.85184C17.7535 6.27408 17.2011 5.44704 16.6251 4.78752C16.2562 4.37424 15.8217 4.02459 15.3391 3.75264C14.4651 3.25344 13.4739 3 12.3934 3C11.3129 3 10.3265 3.25344 9.45146 3.75264C8.96767 4.02467 8.53233 4.37502 8.16314 4.78944C7.58714 5.44896 7.03466 6.27744 6.89834 7.85376C6.85994 8.30256 6.85034 8.76096 6.85658 9.19056C6.8177 9.18048 6.77834 9.17136 6.7385 9.16272C6.58943 9.13067 6.43737 9.11457 6.2849 9.11472C5.56154 9.11472 4.96394 9.50688 4.7249 10.1386C4.63945 10.3582 4.6023 10.5937 4.61597 10.829C4.62963 11.0643 4.6938 11.2939 4.8041 11.5022C4.96298 11.8032 5.21642 12.0725 5.57882 12.3259C5.67482 12.3931 5.82506 12.4901 6.01418 12.6139C6.11642 12.6802 6.2657 12.7771 6.4121 12.8741C6.46332 12.9072 6.50685 12.9509 6.53978 13.0022C6.5705 13.0651 6.57146 13.1328 6.52586 13.2576C6.42887 13.4711 6.31305 13.6756 6.17978 13.8686C5.71226 14.5526 5.04314 15.1325 4.18874 15.5966C3.7361 15.8366 3.2657 15.997 3.06698 16.537C2.91722 16.9445 3.01514 17.4082 3.39578 17.7989C3.53547 17.9447 3.6975 18.0674 3.87578 18.1622C4.24672 18.3661 4.64115 18.5239 5.05034 18.6322C5.13478 18.6539 5.21494 18.6898 5.28746 18.7382C5.42618 18.8597 5.4065 19.0426 5.5913 19.3104C5.68406 19.4488 5.80193 19.5686 5.93882 19.6637C6.32666 19.9315 6.7625 19.9483 7.22426 19.9661C7.64138 19.9819 8.11418 20.0002 8.65418 20.1782C8.87786 20.2522 9.11018 20.3952 9.37946 20.5622C10.026 20.9597 10.9111 21.5035 12.3924 21.5035C13.8737 21.5035 14.7651 20.9568 15.4164 20.5579C15.6838 20.3938 15.9147 20.2522 16.1321 20.1802C16.6721 20.0016 17.1449 19.9838 17.562 19.968C18.0238 19.9502 18.4596 19.9334 18.8475 19.6656C19.0096 19.5526 19.1446 19.405 19.243 19.2336C19.3759 19.0075 19.3726 18.8496 19.4974 18.7392C19.5654 18.6931 19.6407 18.6587 19.7201 18.6374C20.1349 18.5288 20.5347 18.3696 20.9105 18.1632C21.0999 18.0616 21.2704 17.9281 21.4145 17.7686L21.4193 17.7629C21.7764 17.3808 21.8662 16.9306 21.7198 16.5331Z" fill="#4B5564"/>
</svg>
