<svg width="24" height="24" viewBox="0 0 24 24" fill="none" xmlns="http://www.w3.org/2000/svg">
<mask id="path-1-inside-1" fill="white">
<path fill-rule="evenodd" clip-rule="evenodd" d="M11.9988 1.99927C17.5217 1.99927 21.9988 6.47642 21.9988 11.9993C21.9988 16.9906 18.342 21.1276 13.5613 21.8778V14.8899H15.8914L16.3348 11.9993H16.3348L16.3348 11.9992H13.5613V10.1234C13.5613 9.33261 13.9487 8.56177 15.191 8.56177H16.452V6.10083C16.452 6.10083 16.452 6.10083 16.452 6.10083V6.1008C16.452 6.1008 15.3076 5.90548 14.2135 5.90548C11.9293 5.90548 10.4363 7.28986 10.4363 9.79611V11.9992H7.89727V14.8899H7.89728V14.8899H10.4363V21.8777L10.4363 21.8778C5.6557 21.1276 1.99884 16.9906 1.99884 11.9993C1.99884 6.47642 6.47599 1.99927 11.9988 1.99927Z"/>
</mask>
<path fill-rule="evenodd" clip-rule="evenodd" d="M11.9988 1.99927C17.5217 1.99927 21.9988 6.47642 21.9988 11.9993C21.9988 16.9906 18.342 21.1276 13.5613 21.8778V14.8899H15.8914L16.3348 11.9993H16.3348L16.3348 11.9992H13.5613V10.1234C13.5613 9.33261 13.9487 8.56177 15.191 8.56177H16.452V6.10083C16.452 6.10083 16.452 6.10083 16.452 6.10083V6.1008C16.452 6.1008 15.3076 5.90548 14.2135 5.90548C11.9293 5.90548 10.4363 7.28986 10.4363 9.79611V11.9992H7.89727V14.8899H7.89728V14.8899H10.4363V21.8777L10.4363 21.8778C5.6557 21.1276 1.99884 16.9906 1.99884 11.9993C1.99884 6.47642 6.47599 1.99927 11.9988 1.99927Z" fill="#4B5564"/>
<path d="M13.5613 21.8778H12.5613V23.0469L13.7164 22.8657L13.5613 21.8778ZM13.5613 14.8899V13.8899H12.5613V14.8899H13.5613ZM15.8914 14.8899V15.8899H16.7497L16.8799 15.0415L15.8914 14.8899ZM16.3348 11.9993L17.3232 12.1509L17.4999 10.9993H16.3348V11.9993ZM16.3348 11.9993L15.3477 11.8392L15.1595 12.9993H16.3348V11.9993ZM16.3348 11.9992L17.3219 12.1593L17.51 10.9992H16.3348V11.9992ZM13.5613 11.9992H12.5613V12.9992H13.5613V11.9992ZM16.452 8.56177V9.56177H17.452V8.56177H16.452ZM16.452 6.10083H17.452V5.2709L16.6363 5.11796L16.452 6.10083ZM16.452 6.10083H15.452V6.94795L16.2876 7.08722L16.452 6.10083ZM16.452 6.1008H17.452V5.257L16.6202 5.11505L16.452 6.1008ZM10.4363 11.9992V12.9992H11.4363V11.9992H10.4363ZM7.89727 11.9992V10.9992H6.89727V11.9992H7.89727ZM7.89727 14.8899H6.89727V15.8899H7.89727V14.8899ZM7.89728 14.8899H8.89728V13.8899H7.89728V14.8899ZM7.89728 14.8899H6.89728V15.8899H7.89728V14.8899ZM10.4363 14.8899H11.4363V13.8899H10.4363V14.8899ZM10.4363 21.8777H9.43633V22.0271L9.47998 22.17L10.4363 21.8777ZM10.4363 21.8778L10.2813 22.8657L11.8595 23.1133L11.3927 21.5856L10.4363 21.8778ZM22.9988 11.9993C22.9988 5.92413 18.074 0.999268 11.9988 0.999268V2.99927C16.9694 2.99927 20.9988 7.0287 20.9988 11.9993H22.9988ZM13.7164 22.8657C18.9759 22.0404 22.9988 17.4907 22.9988 11.9993H20.9988C20.9988 16.4905 17.7081 20.2148 13.4063 20.8899L13.7164 22.8657ZM12.5613 14.8899V21.8778H14.5613V14.8899H12.5613ZM15.8914 13.8899H13.5613V15.8899H15.8914V13.8899ZM15.3463 11.8477L14.903 14.7383L16.8799 15.0415L17.3232 12.1509L15.3463 11.8477ZM16.3348 12.9993H16.3348V10.9993H16.3348V12.9993ZM17.3219 12.1593L17.3219 12.1593L15.3477 11.8392L15.3477 11.8392L17.3219 12.1593ZM16.3348 10.9992H13.5613V12.9992H16.3348V10.9992ZM12.5613 10.1234V11.9992H14.5613V10.1234H12.5613ZM15.191 7.56177C14.3527 7.56177 13.6392 7.83079 13.1539 8.39193C12.6921 8.92598 12.5613 9.58266 12.5613 10.1234H14.5613C14.5613 9.87337 14.6243 9.74922 14.6667 9.70015C14.6857 9.67816 14.787 9.56177 15.191 9.56177V7.56177ZM16.452 7.56177H15.191V9.56177H16.452V7.56177ZM15.452 6.10083V8.56177H17.452V6.10083H15.452ZM16.2876 7.08722C16.2846 7.08673 16.2815 7.08619 16.2782 7.08561C16.2765 7.08532 16.2748 7.08502 16.2731 7.0847C16.2722 7.08454 16.2713 7.08438 16.2704 7.08421C16.27 7.08413 16.2695 7.08404 16.2691 7.08396C16.2688 7.08392 16.2686 7.08387 16.2684 7.08383C16.2683 7.08381 16.2681 7.08379 16.268 7.08377C16.268 7.08376 16.2679 7.08375 16.2679 7.08373C16.2678 7.08373 16.2678 7.08372 16.2678 7.08372C16.2678 7.08372 16.2677 7.08371 16.2677 7.08371C16.2677 7.08371 16.2677 7.0837 16.452 6.10083C16.6363 5.11796 16.6362 5.11795 16.6362 5.11795C16.6362 5.11795 16.6362 5.11794 16.6362 5.11794C16.6361 5.11794 16.6361 5.11793 16.6361 5.11793C16.636 5.11791 16.636 5.1179 16.6359 5.11789C16.6358 5.11787 16.6357 5.11785 16.6356 5.11783C16.6353 5.11779 16.6351 5.11774 16.6349 5.1177C16.6344 5.11761 16.634 5.11753 16.6335 5.11745C16.6326 5.11728 16.6317 5.11712 16.6309 5.11696C16.6291 5.11664 16.6274 5.11634 16.6257 5.11605C16.6225 5.11546 16.6193 5.11493 16.6164 5.11443L16.2876 7.08722ZM17.452 6.10083V6.1008H15.452V6.10083H17.452ZM16.452 6.1008C16.6202 5.11505 16.6201 5.11503 16.62 5.11502C16.62 5.11501 16.6199 5.115 16.6198 5.11499C16.6197 5.11496 16.6195 5.11494 16.6194 5.11491C16.619 5.11485 16.6186 5.11478 16.6181 5.1147C16.6172 5.11453 16.6159 5.11432 16.6144 5.11407C16.6114 5.11356 16.6072 5.11287 16.602 5.11201C16.5916 5.11029 16.577 5.10789 16.5584 5.10493C16.5212 5.09899 16.4682 5.09073 16.4017 5.08094C16.2688 5.06138 16.0811 5.03554 15.8577 5.00974C15.4152 4.95864 14.8138 4.90548 14.2135 4.90548V6.90548C14.7073 6.90548 15.2251 6.94998 15.6283 6.99654C15.8277 7.01957 15.9945 7.04256 16.1104 7.05961C16.1683 7.06813 16.2132 7.07514 16.2429 7.07988C16.2577 7.08225 16.2687 7.08406 16.2757 7.0852C16.2791 7.08577 16.2815 7.08617 16.2829 7.0864C16.2836 7.08652 16.284 7.08659 16.2841 7.08661C16.2842 7.08662 16.2842 7.08662 16.2841 7.08661C16.2841 7.08661 16.284 7.0866 16.284 7.08659C16.2839 7.08658 16.2839 7.08657 16.2839 7.08657C16.2838 7.08655 16.2837 7.08654 16.452 6.1008ZM14.2135 4.90548C12.8693 4.90548 11.6477 5.31656 10.7609 6.20417C9.87309 7.0928 9.43633 8.34342 9.43633 9.79611H11.4363C11.4363 8.74255 11.746 8.04785 12.1758 7.61773C12.6065 7.18659 13.2734 6.90548 14.2135 6.90548V4.90548ZM9.43633 9.79611V11.9992H11.4363V9.79611H9.43633ZM10.4363 10.9992H7.89727V12.9992H10.4363V10.9992ZM6.89727 11.9992V14.8899H8.89727V11.9992H6.89727ZM7.89727 15.8899H7.89728V13.8899H7.89727V15.8899ZM8.89728 14.8899V14.8899H6.89728V14.8899H8.89728ZM10.4363 13.8899H7.89728V15.8899H10.4363V13.8899ZM9.43633 14.8899V21.8777H11.4363V14.8899H9.43633ZM11.3927 21.5856L11.3927 21.5855L9.47998 22.17L9.47999 22.17L11.3927 21.5856ZM0.99884 11.9993C0.99884 17.4907 5.0218 22.0404 10.2813 22.8657L10.5914 20.8899C6.28959 20.2148 2.99884 16.4905 2.99884 11.9993H0.99884ZM11.9988 0.999268C5.9237 0.999268 0.99884 5.92413 0.99884 11.9993H2.99884C2.99884 7.0287 7.02827 2.99927 11.9988 2.99927V0.999268Z" fill="#4B5564" mask="url(#path-1-inside-1)"/>
</svg>
