<?xml version="1.0" encoding="UTF-8" standalone="no"?>
<svg
   xmlns:dc="http://purl.org/dc/elements/1.1/"
   xmlns:cc="http://creativecommons.org/ns#"
   xmlns:rdf="http://www.w3.org/1999/02/22-rdf-syntax-ns#"
   xmlns:svg="http://www.w3.org/2000/svg"
   xmlns="http://www.w3.org/2000/svg"
   xmlns:sodipodi="http://sodipodi.sourceforge.net/DTD/sodipodi-0.dtd"
   xmlns:inkscape="http://www.inkscape.org/namespaces/inkscape"
   inkscape:version="1.0 (4035a4f, 2020-05-01)"
   sodipodi:docname="icon-pinterest-new.svg"
   version="1.1"
   width="512"
   viewBox="0 0 24 24"
   height="512"
   enable-background="new 0 0 24 24"
   id="Bold">
  <metadata
     id="metadata3335">
    <rdf:RDF>
      <cc:Work
         rdf:about="">
        <dc:format>image/svg+xml</dc:format>
        <dc:type
           rdf:resource="http://purl.org/dc/dcmitype/StillImage" />
        <dc:title></dc:title>
      </cc:Work>
    </rdf:RDF>
  </metadata>
  <defs
     id="defs3333" />
  <sodipodi:namedview
     inkscape:current-layer="Bold"
     inkscape:window-maximized="0"
     inkscape:window-y="23"
     inkscape:window-x="0"
     inkscape:cy="400.76563"
     inkscape:cx="67.617072"
     inkscape:zoom="0.37363086"
     showgrid="false"
     id="namedview3331"
     inkscape:window-height="801"
     inkscape:window-width="1438"
     inkscape:pageshadow="2"
     inkscape:pageopacity="0"
     guidetolerance="10"
     gridtolerance="10"
     objecttolerance="10"
     borderopacity="1"
     bordercolor="#666666"
     pagecolor="#ffffff" />
  <path
     id="path3328"
     d="m12.326 0c-6.579.001-10.076 4.216-10.076 8.812 0 2.131 1.191 4.79 3.098 5.633.544.245.472-.054.94-1.844.037-.149.018-.278-.102-.417-2.726-3.153-.532-9.635 5.751-9.635 9.093 0 7.394 12.582 1.582 12.582-1.498 0-2.614-1.176-2.261-2.631.428-1.733 1.266-3.596 1.266-4.845 0-3.148-4.69-2.681-4.69 1.49 0 1.289.456 2.159.456 2.159s-1.509 6.096-1.789 7.235c-.474 1.928.064 5.049.111 5.318.029.148.195.195.288.073.149-.195 1.973-2.797 2.484-4.678.186-.685.949-3.465.949-3.465.503.908 1.953 1.668 3.498 1.668 4.596 0 7.918-4.04 7.918-9.053-.016-4.806-4.129-8.402-9.423-8.402z" />
  <path
     transform="scale(0.046875)"
     id="path3337"
     d="m 142.59687,510.39961 c -1.20901,-1.45677 -3.49762,-15.67353 -5.60969,-34.84724 -2.03354,-18.46076 -2.06052,-57.29137 -0.0477,-68.72318 0.76734,-4.35822 10.1562,-43.38675 20.86412,-86.73006 l 19.46895,-78.806 -1.98249,-4.87893 c -1.09037,-2.68341 -2.88208,-8.35098 -3.98159,-12.59461 -10.81702,-41.7492 2.38717,-81.90925 32.05707,-97.50034 14.25372,-7.49012 31.11853,-8.07181 43.21076,-1.49039 5.09803,2.7747 12.34574,10.33892 15.08413,15.74285 3.94637,7.7878 4.96029,13.67398 4.49197,26.07764 -0.51418,13.61848 -3.16967,24.57154 -14.7103,60.67533 -11.22847,35.12726 -12.78141,41.27739 -12.80237,50.70129 -0.0385,17.29552 8.97759,31.62294 24.81758,39.4376 7.99085,3.94229 14.95152,5.41862 25.61674,5.43324 20.06523,0.0275 37.8746,-6.66941 54.48832,-20.48935 37.5947,-31.27272 55.95596,-94.30584 43.64264,-149.82262 C 381.65871,127.57839 370.87763,107.3764 354.10017,90.551746 334.36099,70.757084 309.17963,59.262818 276.77922,55.2579 c -9.65288,-1.193164 -34.44535,-1.197787 -44.05195,-0.0082 -50.00363,6.191889 -89.84913,33.106668 -110.83688,74.86794 -13.80894,27.47691 -18.06631,55.7397 -12.53794,83.23378 3.29898,16.40668 9.22366,29.71694 19.19538,43.12388 3.12727,4.20459 5.68594,8.16788 5.68594,8.80729 0,2.29909 -9.23746,37.94395 -10.43183,40.2536 -1.95313,3.77694 -3.82289,4.32836 -8.46815,2.49737 C 86.665518,296.73357 60.461916,259.03817 51.448619,216.13103 48.833415,203.68154 47.941697,183.78016 49.376675,169.88935 55.175257,113.7582 83.178723,67.708728 130.90909,35.815792 139.49403,30.07943 160.00779,19.8435 170.89553,15.863409 216.63864,-0.85829265 274.0365,-4.2462965 319.03867,7.1190147 c 21.90121,5.5311563 47.39444,16.5714283 64.54575,27.9526113 45.63542,30.282553 73.67631,75.472944 79.04324,127.385214 1.19113,11.52143 0.53319,36.64249 -1.28107,48.91234 -6.89115,46.60512 -26.22046,86.21494 -56.26806,115.3051 -13.71995,13.28277 -26.32724,22.1604 -42.46223,29.90046 -31.30417,15.01682 -67.45479,19.27538 -95.84715,11.29083 -18.61576,-5.23517 -35.67569,-16.45486 -44.88035,-29.51616 l -1.69561,-2.40605 -10.66937,38.98935 c -5.86815,21.44416 -11.88424,42.3556 -13.36909,46.46989 -7.65376,21.20733 -21.99772,47.87962 -41.55733,77.27494 -4.57143,6.87021 -8.90712,12.60084 -9.63487,12.73473 -0.72776,0.1339 -1.7923,-0.3218 -2.36566,-1.01266 z"
     style="fill:#606369;stroke-width:0.831169;stroke:#606369;stroke-opacity:1" />
</svg>
