<svg width="20" height="20" viewBox="0 0 20 20" fill="none" xmlns="http://www.w3.org/2000/svg">
<g clip-path="url(#clip0_926_3268)">
<path fill-rule="evenodd" clip-rule="evenodd" d="M14.6635 16.4824C14.073 17.062 13.3813 17.5149 12.5876 17.8448C11.7939 18.172 10.9309 18.336 10.0005 18.336C9.06912 18.336 8.20704 18.172 7.41422 17.8448C6.61958 17.5149 5.92701 17.062 5.33649 16.4824C4.74598 15.9047 4.28305 15.2212 3.94951 14.433C3.62692 13.672 3.46107 12.8491 3.44922 11.9661H5.01936C5.03577 12.2377 5.09409 12.4919 5.19524 12.7307C5.31644 13.0177 5.48503 13.2656 5.69827 13.4752C5.91243 13.6857 6.16485 13.8506 6.45282 13.9682C6.74078 14.0885 7.05427 14.1486 7.39235 14.1486C7.73044 14.1486 8.0421 14.0885 8.33098 13.9682C8.61895 13.8506 8.87137 13.6857 9.08552 13.4752C9.29968 13.2656 9.46826 13.0177 9.58855 12.7307C9.66966 12.542 9.72251 12.3416 9.74894 12.132H10.252C10.2784 12.3416 10.3313 12.542 10.4124 12.7307C10.5345 13.0177 10.7012 13.2656 10.9163 13.4752C11.1295 13.6857 11.382 13.8506 11.6699 13.9682C11.9579 14.0885 12.2714 14.1486 12.6086 14.1486C12.9476 14.1486 13.2601 14.0885 13.5481 13.9682C13.8361 13.8506 14.0885 13.6857 14.3026 13.4752C14.5168 13.2656 14.6854 13.0177 14.8066 12.7307C14.9077 12.4919 14.9661 12.2377 14.9834 11.9661H16.5499C16.5408 12.8491 16.374 13.672 16.0514 14.433C15.717 15.2212 15.254 15.9047 14.6635 16.4824ZM8.80485 11.8012C8.80485 11.9998 8.7684 12.1839 8.69732 12.3543C8.62532 12.5229 8.52599 12.6696 8.3975 12.7954C8.26901 12.9211 8.12047 13.0186 7.95006 13.0888C7.77783 13.1599 7.59284 13.1954 7.39235 13.1954C7.19096 13.1954 7.00506 13.1599 6.83374 13.0888C6.66333 13.0186 6.51387 12.9211 6.38629 12.7954C6.2578 12.6696 6.15847 12.5229 6.08739 12.3543C6.0154 12.1839 5.97895 11.9998 5.97895 11.8012C5.97895 11.6043 6.0154 11.4193 6.08739 11.2489C6.15847 11.0794 6.2578 10.9327 6.38629 10.8069C6.51387 10.683 6.66333 10.5846 6.83374 10.5144C7.00506 10.4433 7.19096 10.4078 7.39235 10.4078C7.59284 10.4078 7.77783 10.4433 7.95006 10.5144C8.12047 10.5846 8.26901 10.683 8.3975 10.8069C8.52599 10.9327 8.62532 11.0794 8.69732 11.2489C8.7684 11.4193 8.80485 11.6043 8.80485 11.8012ZM14.022 11.8012C14.022 11.9998 13.9864 12.1839 13.9135 12.3543C13.8424 12.5229 13.7422 12.6696 13.6155 12.7954C13.4879 12.9211 13.3376 13.0186 13.1663 13.0888C12.9959 13.1599 12.81 13.1954 12.6086 13.1954C12.4081 13.1954 12.2222 13.1599 12.0518 13.0888C11.8795 13.0186 11.7301 12.9211 11.6034 12.7954C11.4758 12.6696 11.3765 12.5229 11.3036 12.3543C11.2316 12.1839 11.1961 11.9998 11.1961 11.8012C11.1961 11.6043 11.2316 11.4193 11.3036 11.2489C11.3765 11.0794 11.4758 10.9327 11.6034 10.8069C11.7301 10.683 11.8795 10.5846 12.0518 10.5144C12.2222 10.4433 12.4081 10.4078 12.6086 10.4078C12.81 10.4078 12.9959 10.4433 13.1663 10.5144C13.3376 10.5846 13.4879 10.683 13.6155 10.8069C13.7422 10.9327 13.8424 11.0794 13.9135 11.2489C13.9864 11.4193 14.022 11.6043 14.022 11.8012ZM4.03244 9.14111C5.14694 8.77386 6.62505 8.30546 6.62505 8.30546C9.87652 7.27115 10.3121 6.04821 10.3121 6.04821C10.3121 6.04821 10.9965 7.27115 13.3567 8.07764C13.3567 8.07764 14.6608 8.50686 15.8737 8.94519C15.9348 9.06548 15.9976 9.18577 16.0514 9.31335C16.2646 9.81638 16.4095 10.3467 16.4861 10.9017H14.8175L14.8066 10.8726C14.6854 10.5855 14.5168 10.3385 14.3026 10.128C14.0885 9.91753 13.8361 9.75259 13.5481 9.63321C13.2601 9.51474 12.9476 9.45551 12.6086 9.45551C12.2714 9.45551 11.9579 9.51474 11.6699 9.63321C11.382 9.75259 11.1295 9.91753 10.9163 10.128C10.7012 10.3385 10.5345 10.5855 10.4124 10.8726C10.3741 10.9628 10.3422 11.0548 10.3158 11.1487H9.68515C9.65963 11.0548 9.62774 10.9628 9.58855 10.8726C9.46826 10.5855 9.29968 10.3385 9.08552 10.128C8.87137 9.91753 8.61895 9.75259 8.33098 9.63321C8.0421 9.51474 7.73044 9.45551 7.39235 9.45551C7.05427 9.45551 6.74078 9.51474 6.45282 9.63321C6.16485 9.75259 5.91243 9.91753 5.69827 10.128C5.48503 10.3385 5.31644 10.5855 5.19524 10.8726C5.19069 10.8817 5.18795 10.8917 5.1834 10.9017H3.51574C3.59229 10.3467 3.73627 9.81638 3.94951 9.31335C3.97503 9.25411 4.00601 9.19944 4.03244 9.14111ZM19.2363 5.95617C18.7251 4.75418 18.0207 3.71167 17.1176 2.82863C16.2163 1.94377 15.1602 1.25211 13.9491 0.751811C12.737 0.250604 11.4212 0 10.0005 0C8.57976 0 7.26386 0.250604 6.05185 0.751811C4.84075 1.25211 3.78366 1.94377 2.8824 2.82863C1.98114 3.71167 1.27489 4.75418 0.76548 5.95617C0.254249 7.15906 0 8.4622 0 9.86376C0 11.2671 0.254249 12.5685 0.76548 13.7714C1.27489 14.9743 1.98114 16.0159 2.8824 16.8998C3.78366 17.7838 4.84075 18.4754 6.05185 18.9766C7.26386 19.4769 8.57976 19.7275 10.0005 19.7275C11.4212 19.7275 12.737 19.4769 13.9491 18.9766C15.1602 18.4754 16.2163 17.7838 17.1176 16.8998C18.0207 16.0159 18.7251 14.9743 19.2363 13.7714C19.7448 12.5685 20 11.2671 20 9.86376C20 8.4622 19.7448 7.15906 19.2363 5.95617Z" fill="#303336"/>
</g>
<defs>
<clipPath id="clip0_926_3268">
<rect width="20" height="20" fill="white"/>
</clipPath>
</defs>
</svg>
