<?xml version="1.0" encoding="UTF-8" standalone="no"?>
<svg
   xmlns:dc="http://purl.org/dc/elements/1.1/"
   xmlns:cc="http://creativecommons.org/ns#"
   xmlns:rdf="http://www.w3.org/1999/02/22-rdf-syntax-ns#"
   xmlns:svg="http://www.w3.org/2000/svg"
   xmlns="http://www.w3.org/2000/svg"
   xmlns:sodipodi="http://sodipodi.sourceforge.net/DTD/sodipodi-0.dtd"
   xmlns:inkscape="http://www.inkscape.org/namespaces/inkscape"
   inkscape:version="1.0 (4035a4f, 2020-05-01)"
   sodipodi:docname="icn-linkedin-new.svg"
   id="svg2168"
   version="1.1"
   fill="none"
   viewBox="0 0 28 28"
   height="28"
   width="28">
  <metadata
     id="metadata2174">
    <rdf:RDF>
      <cc:Work
         rdf:about="">
        <dc:format>image/svg+xml</dc:format>
        <dc:type
           rdf:resource="http://purl.org/dc/dcmitype/StillImage" />
        <dc:title></dc:title>
      </cc:Work>
    </rdf:RDF>
  </metadata>
  <defs
     id="defs2172" />
  <sodipodi:namedview
     inkscape:current-layer="svg2168"
     inkscape:window-maximized="0"
     inkscape:window-y="23"
     inkscape:window-x="0"
     inkscape:cy="14"
     inkscape:cx="14"
     inkscape:zoom="22"
     showgrid="false"
     id="namedview2170"
     inkscape:window-height="801"
     inkscape:window-width="1262"
     inkscape:pageshadow="2"
     inkscape:pageopacity="0"
     guidetolerance="10"
     gridtolerance="10"
     objecttolerance="10"
     borderopacity="1"
     bordercolor="#666666"
     pagecolor="#ffffff" />
  <path
     id="path2160"
     fill="black"
     d="M4.8118 25H23.1882C24.1885 25 25 24.1887 25 23.1882V4.8118C25 3.81155 24.1887 3 23.1882 3H4.8118C3.81155 3 3 3.8113 3 4.8118V23.1882C3 24.1885 3.8113 25 4.8118 25Z"
     clip-rule="evenodd"
     fill-rule="evenodd" />
  <path
     id="path2162"
     fill="white"
     d="M14.4853 11.412H11.4117L11.4122 21.7648H14.6474V16.578C14.6474 15.2081 15.2434 13.9192 16.9393 13.9192C18.1938 13.9192 18.5296 14.8593 18.5296 16.578V21.7648H21.7648V15.8909C21.7648 12.6251 20.7274 11.2501 17.6851 11.2501C16.0977 11.2501 14.8975 12.1328 14.4853 12.959V11.412Z" />
  <path
     id="path2164"
     fill="white"
     d="M9.47062 21.7648H6.23543V11.412H9.47062V21.7648Z" />
  <path
     id="path2166"
     fill="white"
     d="M7.8529 9.82676C8.94262 9.82676 9.82653 8.94286 9.82653 7.85314C9.82653 6.76268 8.94262 5.87952 7.8529 5.87952C6.76318 5.87952 5.87928 6.76293 5.87928 7.85314C5.87928 8.94286 6.76318 9.82676 7.8529 9.82676Z" />
  <path
     id="path2176"
     d="M 4.397542,24.92819 C 3.9178011,24.814375 3.4220659,24.410183 3.2084819,23.958704 3.1441524,23.822722 3.0713325,23.57184 3.04666,23.401187 2.985523,22.978321 2.985523,5.0216792 3.04666,4.5988131 3.1378491,3.9680853 3.5098142,3.4606554 4.078397,3.1913311 L 4.3863636,3.0454545 H 14 23.613636 l 0.307967,0.1458766 c 0.568583,0.2693243 0.940548,0.7767542 1.031737,1.407482 0.06114,0.4228661 0.06114,18.3795079 0,18.8023739 -0.09119,0.630728 -0.463154,1.138158 -1.031737,1.407482 l -0.307967,0.145876 -9.522727,0.0071 c -5.4388245,0.004 -9.5959075,-0.0103 -9.693367,-0.03342 z M 9.5,16.590909 V 11.386364 H 7.8636364 6.2272727 v 5.204545 5.204546 H 7.8636364 9.5 Z m 5.181818,2.366608 c 0,-3.150761 0.0054,-3.22112 0.293897,-3.831607 0.08542,-0.18075 0.251325,-0.43129 0.368685,-0.556757 0.526023,-0.562362 1.569831,-0.794854 2.239379,-0.498788 0.401536,0.177554 0.624574,0.4799 0.789269,1.069915 0.09836,0.35236 0.100735,0.424129 0.116236,3.507447 l 0.01582,3.147728 h 1.63381 1.633809 v -3.384036 c 0,-3.669234 -0.018,-4.015521 -0.250378,-4.817419 -0.350159,-1.208323 -1.032261,-1.874956 -2.246448,-2.195502 -0.370959,-0.09793 -0.562123,-0.117807 -1.298628,-0.135005 -0.808627,-0.01888 -0.891525,-0.01297 -1.30147,0.09283 -0.811778,0.209508 -1.546061,0.661247 -1.959894,1.205747 L 14.5,12.846153 v -0.729895 -0.729894 h -1.545455 -1.545454 v 5.204545 5.204546 h 1.636364 1.636363 z M 8.3881773,9.7703636 C 9.5675768,9.4632495 10.179812,8.1090686 9.6489959,6.9816025 9.4935482,6.6514278 9.0531177,6.2109971 8.7229427,6.0555495 8.1704082,5.795414 7.5194332,5.8034904 6.9545455,6.0774892 5.777134,6.6485927 5.4948453,8.2467377 6.4003809,9.2148286 6.9007637,9.7497782 7.6563245,9.9609368 8.3881773,9.7703636 Z"
     style="fill:#000000;fill-opacity:0;stroke-width:0.0454545" />
  <path
     id="path2178"
     d="M 4.397542,24.92819 C 3.9178011,24.814375 3.4220659,24.410183 3.2084819,23.958704 3.1441524,23.822722 3.0713325,23.57184 3.04666,23.401187 2.985523,22.978321 2.985523,5.0216792 3.04666,4.5988131 3.1378491,3.9680853 3.5098142,3.4606554 4.078397,3.1913311 L 4.3863636,3.0454545 H 14 23.613636 l 0.307967,0.1458766 c 0.568583,0.2693243 0.940548,0.7767542 1.031737,1.407482 0.06114,0.4228661 0.06114,18.3795079 0,18.8023739 -0.09119,0.630728 -0.463154,1.138158 -1.031737,1.407482 l -0.307967,0.145876 -9.522727,0.0071 c -5.4388245,0.004 -9.5959075,-0.0103 -9.693367,-0.03342 z M 9.5,16.590909 V 11.386364 H 7.8636364 6.2272727 v 5.204545 5.204546 H 7.8636364 9.5 Z m 5.181818,2.366608 c 0,-3.150761 0.0054,-3.22112 0.293897,-3.831607 0.08542,-0.18075 0.251325,-0.43129 0.368685,-0.556757 0.526023,-0.562362 1.569831,-0.794854 2.239379,-0.498788 0.401536,0.177554 0.624574,0.4799 0.789269,1.069915 0.09836,0.35236 0.100735,0.424129 0.116236,3.507447 l 0.01582,3.147728 h 1.63381 1.633809 v -3.384036 c 0,-3.669234 -0.018,-4.015521 -0.250378,-4.817419 -0.350159,-1.208323 -1.032261,-1.874956 -2.246448,-2.195502 -0.370959,-0.09793 -0.562123,-0.117807 -1.298628,-0.135005 -0.808627,-0.01888 -0.891525,-0.01297 -1.30147,0.09283 -0.811778,0.209508 -1.546061,0.661247 -1.959894,1.205747 L 14.5,12.846153 v -0.729895 -0.729894 h -1.545455 -1.545454 v 5.204545 5.204546 h 1.636364 1.636363 z M 8.3881773,9.7703636 C 9.5675768,9.4632495 10.179812,8.1090686 9.6489959,6.9816025 9.4935482,6.6514278 9.0531177,6.2109971 8.7229427,6.0555495 8.1704082,5.795414 7.5194332,5.8034904 6.9545455,6.0774892 5.777134,6.6485927 5.4948453,8.2467377 6.4003809,9.2148286 6.9007637,9.7497782 7.6563245,9.9609368 8.3881773,9.7703636 Z"
     style="fill:#606369;fill-opacity:1;stroke-width:0.0454545" />
</svg>
