<?xml version="1.0" encoding="UTF-8" standalone="no"?>
<svg
   xmlns:dc="http://purl.org/dc/elements/1.1/"
   xmlns:cc="http://creativecommons.org/ns#"
   xmlns:rdf="http://www.w3.org/1999/02/22-rdf-syntax-ns#"
   xmlns:svg="http://www.w3.org/2000/svg"
   xmlns="http://www.w3.org/2000/svg"
   xmlns:sodipodi="http://sodipodi.sourceforge.net/DTD/sodipodi-0.dtd"
   xmlns:inkscape="http://www.inkscape.org/namespaces/inkscape"
   inkscape:version="1.0 (4035a4f, 2020-05-01)"
   style="fill:#606369ff"
   sodipodi:docname="icn-pinterest-new.svg"
   version="1.1"
   width="512"
   viewBox="0 0 24 24"
   height="512"
   enable-background="new 0 0 24 24"
   id="Bold">
  <metadata
     id="metadata71">
    <rdf:RDF>
      <cc:Work
         rdf:about="">
        <dc:format>image/svg+xml</dc:format>
        <dc:type
           rdf:resource="http://purl.org/dc/dcmitype/StillImage" />
      </cc:Work>
    </rdf:RDF>
  </metadata>
  <defs
     id="defs69" />
  <sodipodi:namedview
     inkscape:current-layer="Bold"
     inkscape:window-maximized="1"
     inkscape:window-y="23"
     inkscape:window-x="1440"
     inkscape:cy="268.50929"
     inkscape:cx="300.69875"
     inkscape:zoom="1.0232983"
     inkscape:snap-page="false"
     inkscape:snap-bbox="false"
     showgrid="false"
     id="namedview67"
     inkscape:window-height="1035"
     inkscape:window-width="1920"
     inkscape:pageshadow="2"
     inkscape:pageopacity="0"
     guidetolerance="10"
     gridtolerance="10"
     objecttolerance="10"
     borderopacity="1"
     bordercolor="#666666"
     pagecolor="#ffffff" />
  <path
     id="path64"
     d="m12.326 0c-6.579.001-10.076 4.216-10.076 8.812 0 2.131 1.191 4.79 3.098 5.633.544.245.472-.054.94-1.844.037-.149.018-.278-.102-.417-2.726-3.153-.532-9.635 5.751-9.635 9.093 0 7.394 12.582 1.582 12.582-1.498 0-2.614-1.176-2.261-2.631.428-1.733 1.266-3.596 1.266-4.845 0-3.148-4.69-2.681-4.69 1.49 0 1.289.456 2.159.456 2.159s-1.509 6.096-1.789 7.235c-.474 1.928.064 5.049.111 5.318.029.148.195.195.288.073.149-.195 1.973-2.797 2.484-4.678.186-.685.949-3.465.949-3.465.503.908 1.953 1.668 3.498 1.668 4.596 0 7.918-4.04 7.918-9.053-.016-4.806-4.129-8.402-9.423-8.402z" />
  <path
     transform="scale(0.046875)"
     id="path950"
     d="m 142.78391,508.84637 c -2.75885,-4.71734 -6.40166,-43.41445 -6.51001,-69.15495 l -0.12443,-29.56243 20.7879,-84.18812 20.78791,-84.18812 -3.68837,-10.83395 c -2.0286,-5.95866 -4.14749,-19.56367 -4.70865,-30.23332 -0.82921,-15.76628 -0.18571,-22.14699 3.436,-34.07072 12.71622,-41.86537 59.77517,-60.05886 83.23431,-32.17926 13.7518,16.34308 12.92936,34.25896 -4.02875,87.76095 -10.30617,32.51546 -12.07508,40.47524 -12.23922,55.07405 -0.17273,15.36243 0.39045,17.90632 5.64406,25.4946 11.1888,16.16103 33.44785,23.90466 56.63024,19.7009 46.63556,-8.45665 82.07307,-54.92928 88.38134,-115.90303 C 398.20706,130.96931 360.24887,72.324419 294.02353,57.683961 276.4145,53.791126 238.83967,53.243977 220.39424,56.611804 193.17579,61.581437 161.13012,78.68765 143.78229,97.507828 102.37304,142.43156 94.529332,209.96931 125.68476,253.33539 c 8.25824,11.49487 8.36021,12.26074 3.96674,29.79272 -6.82669,27.24156 -8.60208,28.60192 -24.31395,18.63015 C 78.020433,284.42104 56.594341,246.45383 50.462757,204.51969 45.787234,172.5436 55.664089,127.1735 74.195748,95.500353 86.293984,74.822811 118.52976,43.341287 139.95988,31.274966 204.48286,-5.054971 294.24033,-8.5067293 360.1662,22.806599 c 37.72473,17.918405 71.16669,51.411266 87.66576,87.799171 11.33928,25.00824 15.11461,46.51814 13.84136,78.86086 -3.05439,77.58588 -40.796,138.94841 -103.16636,167.73389 -48.09609,22.19753 -104.54928,16.54243 -130.62885,-13.08554 l -8.04438,-9.13888 -3.13784,11.18142 c -1.72581,6.14978 -7.47821,26.66116 -12.78312,45.58086 -10.70476,38.17799 -22.42235,63.83747 -44.7997,98.10357 -13.46876,20.6245 -14.60697,21.9492 -16.32916,19.00442 z"
     style="fill:#606369;stroke:none;stroke-width:2.1116;fill-opacity:1" />
  <path
     transform="scale(0.046875)"
     id="path1513"
     d=""
     style="fill:#606369;fill-opacity:1;stroke-width:0.226922" />
  <path
     transform="scale(0.046875)"
     id="path1515"
     d="m 142.81231,511.31083 c -1.26537,-0.85273 -1.51635,-1.572 -2.36025,-6.76432 -2.49494,-15.35069 -4.40053,-33.22366 -5.38168,-50.47602 -0.38281,-6.7312 -0.3844,-26.23934 -0.003,-31.7691 0.80291,-11.62876 0.84063,-11.35288 1.02383,7.48844 0.0934,9.61015 0.26965,19.97482 0.39156,23.03259 0.77932,19.54715 2.79946,41.13912 4.76329,50.91181 1.32687,6.60294 2.51726,7.72575 5.12345,4.83266 2.15103,-2.38786 10.83611,-15.2911 18.04689,-26.8119 17.76448,-28.38263 28.23889,-51.49199 37.49008,-82.71311 0.94304,-3.18259 5.34693,-18.75512 9.78642,-34.60563 4.4395,-15.85051 8.09716,-28.90547 8.12813,-29.01102 0.031,-0.10555 1.83654,1.83464 4.01237,4.31152 5.02601,5.72144 7.26381,8.04653 10.09864,10.49257 13.09201,11.29652 30.95962,18.11092 52.7977,20.13615 4.77402,0.44274 16.28429,0.50499 21.06545,0.11392 21.83471,-1.7859 41.83571,-7.80021 61.10448,-18.37412 23.73135,-13.0228 42.94658,-30.31619 58.4108,-52.56875 4.07384,-5.86213 8.57078,-13.36317 11.66554,-19.45857 1.38965,-2.73699 1.65292,-3.12018 2.14371,-3.12018 0.30773,0 0.55952,0.0618 0.55952,0.13733 0,0.18477 -2.66438,5.22287 -4.56572,8.63333 -12.07575,21.66065 -28.708,40.93324 -47.51291,55.05547 -21.0558,15.81264 -45.65651,26.10401 -71.14008,29.76048 -14.76802,2.11897 -28.30713,2.23998 -39.89481,0.35657 -22.78656,-3.70361 -43.95554,-14.9768 -54.62494,-29.08961 -0.91557,-1.21105 -2.05448,-2.86847 -2.53091,-3.68313 -0.47643,-0.81468 -0.9173,-1.48242 -0.9797,-1.48389 -0.0624,-10e-4 -0.89757,2.88133 -1.85592,6.4062 -5.92169,21.78043 -18.9198,69.08769 -19.5899,71.29839 -6.82657,22.52151 -25.25712,57.39384 -47.37843,89.64445 -3.7855,5.51886 -4.82084,6.86392 -5.69269,7.39555 -0.95288,0.58106 -2.16867,0.55045 -3.10133,-0.0781 z"
     style="fill:#606369;fill-opacity:1;stroke-width:0.226922" />
  <path
     transform="scale(0.046875)"
     id="path1517"
     d="m 142.89096,511.15059 c -1.31903,-0.80425 -1.54545,-1.61447 -2.88791,-10.33414 -1.94935,-12.66151 -3.40713,-26.21224 -4.58948,-42.66136 -0.53405,-7.42972 -0.58407,-31.43827 -0.0792,-38.00946 l 0.33998,-4.42498 0.16026,6.92113 c 0.0881,3.80662 0.26568,12.89485 0.39453,20.19607 0.33304,18.8715 1.37045,34.64579 3.32052,50.49017 1.31647,10.69632 2.61574,16.05848 4.04931,16.71165 0.75917,0.3459 1.96616,-0.28498 3.0436,-1.59086 3.47631,-4.21337 14.98884,-21.69792 22.24067,-33.7778 12.59707,-20.98381 20.8507,-38.64002 28.40576,-60.76573 3.2552,-9.53315 5.40319,-16.89588 16.68292,-57.18438 3.21474,-11.48226 5.88929,-20.92773 5.94345,-20.98994 0.0542,-0.0622 0.24329,0.0849 0.42028,0.327 0.177,0.24206 0.22999,0.49719 0.11775,0.56695 -0.28155,0.175 -0.77548,1.92082 -7.51535,26.56327 -9.85111,36.0179 -13.82494,50.3472 -14.78864,53.3267 -2.89394,8.94733 -6.98665,18.52778 -13.37767,31.31525 -9.02671,18.06108 -19.96014,36.5384 -32.49449,54.91516 -3.84404,5.63579 -5.59612,7.96815 -6.36332,8.47084 -0.77441,0.50741 -2.13156,0.47799 -3.02297,-0.0655 z"
     style="fill:#606369;fill-opacity:1;stroke-width:0.226922" />
  <path
     transform="scale(0.046875)"
     id="path1519"
     d="m 142.89096,511.15059 c -1.29436,-0.78921 -1.57239,-1.74574 -2.77813,-9.55764 -2.49052,-16.13583 -4.41678,-35.50618 -5.03046,-50.58591 -0.30186,-7.41748 -0.1414,-26.15148 0.26968,-31.48598 0.15632,-2.02842 0.31724,-3.655 0.3576,-3.61463 0.0404,0.0404 0.17675,7.36736 0.30308,16.2822 0.22714,16.03009 0.46746,24.25212 0.92147,31.52605 1.44225,23.10682 3.69277,40.97598 5.6769,45.07464 0.85072,1.75736 1.84599,1.81726 3.45468,0.20791 2.89236,-2.89353 17.62258,-25.33782 25.41858,-38.73006 11.56461,-19.86604 19.3492,-37.05961 26.49457,-58.51765 3.33699,-10.02119 4.72785,-14.82131 17.12848,-59.11322 2.58578,-9.23573 4.74162,-16.83722 4.79077,-16.89219 0.0491,-0.055 0.26563,0.0764 0.48107,0.29186 0.27493,0.275 0.31471,0.44011 0.13344,0.5538 -0.34524,0.21654 -0.26629,-0.0613 -7.68711,27.05225 -12.39865,45.30114 -13.8638,50.53792 -15.41006,55.07945 -5.84856,17.17781 -18.30989,41.8065 -33.44294,66.09697 -6.63205,10.64528 -15.53033,23.8356 -17.38653,25.77284 -0.85412,0.89141 -1.07447,1.00388 -1.96529,1.00312 -0.59439,-4.5e-4 -1.29942,-0.18138 -1.7298,-0.44381 z"
     style="fill:#606369;fill-opacity:1;stroke-width:0.226922" />
  <path
     transform="scale(0.046875)"
     id="path1521"
     d="m 142.89096,511.15059 c -0.97573,-0.59493 -1.32,-1.33826 -1.85248,-3.99976 -1.86848,-9.3393 -4.28091,-30.23197 -5.63123,-48.76882 -0.5262,-7.22358 -0.54978,-33.89452 -0.0347,-39.25752 l 0.32691,-3.40384 0.15225,7.14805 c 0.0837,3.93143 0.2598,12.91754 0.39124,19.96915 0.13144,7.0516 0.33852,14.60811 0.46018,16.79223 1.25684,22.56443 3.48493,42.19762 5.44638,47.9917 0.52271,1.54408 0.79703,1.96835 1.52261,2.35484 1.44021,0.76715 3.37124,-1.54956 11.60726,-13.92553 20.68972,-31.08971 32.37013,-53.93356 41.97514,-82.09252 3.21023,-9.4114 5.4336,-17.02931 16.60611,-56.89729 3.27023,-11.66947 5.9866,-21.2622 6.03639,-21.31717 0.0498,-0.055 0.25802,0.0675 0.46274,0.27226 0.29393,0.29393 0.31516,0.44096 0.10097,0.69906 -0.36276,0.4371 -0.65821,1.4866 -9.33681,33.16695 -13.01872,47.5235 -13.15619,47.99301 -16.52534,56.44098 -5.95686,14.93655 -16.1687,34.80088 -27.40809,53.31488 -7.58192,12.48927 -19.21552,29.8841 -20.97851,31.36756 -0.86862,0.73089 -2.26028,0.79157 -3.32102,0.14479 z"
     style="fill:#606369;fill-opacity:1;stroke-width:0.226922" />
  <path
     transform="scale(0.046875)"
     id="path1523"
     d="m 142.8645,511.13451 c -1.12689,-0.68705 -1.51567,-1.86353 -2.39735,-7.25461 -2.58948,-15.83348 -4.7428,-36.91777 -5.38321,-52.70984 -0.31458,-7.75735 -0.14501,-26.60737 0.28726,-31.93211 l 0.30396,-3.74422 0.15729,6.1269 c 0.0865,3.36979 0.26651,12.25379 0.40002,19.74222 0.25345,14.21589 0.40554,18.00089 1.15352,28.70565 1.3575,19.42806 3.49235,35.2093 5.22155,38.59883 1.63561,3.20606 3.10837,1.74485 12.52494,-12.42675 11.60514,-17.46531 18.89415,-29.77244 26.05081,-43.98546 6.2999,-12.51151 10.56235,-22.56158 15.26943,-36.0025 3.73444,-10.66361 5.90176,-18.10365 21.37416,-73.37397 1.08309,-3.86902 2.01233,-7.07957 2.06496,-7.13454 0.0526,-0.055 0.2632,0.0675 0.46792,0.27226 0.27139,0.2714 0.30676,0.45214 0.13057,0.66726 -0.29458,0.35968 -1.00334,2.69126 -2.67644,8.80462 -17.6472,64.48137 -18.65959,68.12085 -20.33031,73.08578 -2.68548,7.98056 -6.6271,17.06079 -12.60122,29.02918 -8.87803,17.786 -18.00579,33.36918 -30.37183,51.85171 -5.10262,7.62647 -7.48328,10.92726 -8.40294,11.65065 -0.8049,0.63314 -2.2312,0.64586 -3.24309,0.0289 z"
     style="fill:#606369;fill-opacity:1;stroke-width:0.226922" />
  <path
     transform="scale(0.046875)"
     id="path1525"
     d="m 142.8645,511.13451 c -1.12564,-0.68628 -1.5149,-1.86049 -2.40496,-7.25461 -2.47635,-15.00775 -4.66724,-36.20053 -5.34864,-51.73825 -0.43576,-9.93636 -0.21178,-28.66027 0.41803,-34.946 0.18036,-1.80015 0.2874,1.58795 0.68821,21.78452 0.15115,7.61674 0.16975,5.61314 0.0884,-9.53073 l -0.10293,-19.17492 16.36966,-66.26126 c 9.00331,-36.44369 16.42248,-66.43996 16.48705,-66.65837 0.11115,-0.376 1.99105,-0.39712 35.34812,-0.39712 h 35.23073 l 0.0183,5.3894 c 0.034,9.98426 0.83091,13.22811 4.69675,19.11819 5.45775,8.31553 13.1997,14.42239 23.16361,18.27148 7.05643,2.72593 13.57283,3.84959 22.23837,3.83471 7.28376,-0.0125 11.57218,-0.57606 18.83453,-2.47507 22.09183,-5.77674 42.41093,-20.93432 56.81154,-42.38006 l 1.1809,-1.75865 h 36.87078 36.87079 l -0.82128,1.63084 c -13.36208,26.53357 -33.74947,49.58638 -58.06209,65.65305 -22.90234,15.13473 -46.36572,23.54085 -72.28332,25.89665 -5.08833,0.46251 -16.80993,0.52598 -21.33068,0.1155 -21.87608,-1.98631 -39.17531,-8.30435 -52.53247,-19.18595 -2.66231,-2.16888 -6.28281,-5.8657 -10.96319,-11.19426 -3.64637,-4.15135 -4.49237,-5.00288 -4.63683,-4.66713 -0.0972,0.22587 -3.75409,13.17351 -8.12646,28.77253 -9.29952,33.1773 -9.33107,33.28805 -11.25008,39.48786 -9.5593,30.88361 -20.51305,53.99146 -39.79987,83.96119 -3.44555,5.35403 -10.77147,16.31002 -12.21337,18.26521 -1.52867,2.07286 -3.16838,3.85193 -3.77905,4.10023 -0.43974,0.17879 -0.44014,0.18499 -0.0128,0.19892 1.04076,0.034 3.7549,-3.48278 10.49695,-13.60094 22.35779,-33.55353 34.80004,-58.57337 44.57471,-89.63424 2.23386,-7.09852 5.02842,-16.83095 13.58547,-47.31326 3.64376,-12.97995 6.66846,-23.64488 6.72157,-23.69986 0.0531,-0.055 0.24936,0.0529 0.43612,0.23961 0.29939,0.29939 0.3002,0.41859 0.007,1.00764 -0.31613,0.6348 -2.49871,8.43061 -8.41434,30.0545 -13.4075,49.00953 -13.79864,50.36026 -16.7894,57.9786 -8.3769,21.33839 -23.47139,48.95228 -41.05783,75.11122 -4.85048,7.21486 -6.92668,10.08442 -7.87153,10.87947 -0.86654,0.72914 -2.25474,0.7788 -3.33637,0.11936 z m 0.52684,-1.71558 c -0.61455,-0.66311 -1.29692,-2.56839 -1.81897,-5.0789 -1.90185,-9.14591 -3.89246,-29.75709 -4.8769,-50.49646 l -0.19388,-4.0846 0.10562,4.97937 c 0.34298,16.16878 3.02718,43.12159 5.10704,51.2813 0.59182,2.32184 1.44428,3.98716 2.04098,3.98716 0.0995,0 -0.0642,-0.26455 -0.36389,-0.58787 z"
     style="fill:#606369;fill-opacity:1;stroke-width:0.226922" />
  <path
     transform="scale(0.046875)"
     id="path1527"
     d=""
     style="fill:#606369;fill-opacity:1;stroke-width:0.226922" />
  <path
     transform="scale(0.046875)"
     id="path1529"
     d=""
     style="fill:#606369;fill-opacity:1;stroke-width:0.226922" />
  <path
     transform="scale(0.046875)"
     id="path1531"
     d="m 136.71423,406.63803 c -0.0417,-1.07108 1.24291,-7.48188 2.7045,-13.49613 0.86443,-3.557 6.87353,-27.91142 13.35356,-54.12093 6.48003,-26.2095 12.58118,-50.89579 13.55811,-54.85842 1.53653,-6.2325 1.83313,-7.20478 2.19783,-7.20478 0.29677,0 0.38545,0.11759 0.2995,0.39712 -0.0672,0.21841 -7.27729,29.39776 -16.02252,64.84299 -8.74523,35.44524 -15.93926,64.548 -15.98674,64.67281 -0.0475,0.12481 -0.0944,0.0201 -0.10424,-0.23266 z"
     style="fill:#606369;fill-opacity:1;stroke-width:0.226922" />
  <path
     transform="scale(0.046875)"
     id="path1533"
     d="m 137.49699,402.67263 c 0.22657,-1.8778 1.69245,-8.09601 6.57446,-27.88862 24.57114,-99.6162 24.0664,-97.59932 24.42494,-97.59932 0.10777,0 0.19594,0.0507 0.19594,0.11262 0,0.22361 -31.09567,125.94832 -31.20569,126.16955 -0.0621,0.12481 -0.0574,-0.2326 0.0104,-0.79423 z"
     style="fill:#606369;fill-opacity:1;stroke-width:0.226922" />
  <path
     transform="scale(0.046875)"
     id="path1535"
     d="m 172.59716,259.06558 4.39755,-17.81407 -1.57875,-3.86286 c -9.36904,-22.92404 -10.70938,-50.83483 -3.49393,-72.75611 7.59255,-23.06692 24.30942,-39.16703 45.57854,-43.89693 2.59487,-0.57706 4.11199,-0.69054 9.40028,-0.70313 6.76703,-0.0161 7.99122,0.14801 13.14525,1.76246 11.4909,3.59941 20.23738,12.30125 24.22662,24.10298 4.05437,11.99441 3.59311,24.89664 -1.61664,45.21989 -2.0144,7.85817 -5.00933,17.75434 -11.16429,36.89021 -2.70525,8.41065 -5.91347,18.69735 -7.12939,22.85932 -2.58986,8.86487 -2.42832,8.36846 -2.45987,7.55931 -0.0731,-1.87596 3.21317,-13.62907 9.12253,-32.62573 11.28035,-36.26268 14.55587,-50.67155 14.58609,-64.16374 0.0217,-9.69475 -1.67455,-15.97159 -6.1497,-22.75631 -9.51767,-14.42962 -24.30152,-20.49112 -41.37567,-16.96435 -12.74473,2.63249 -25.70848,11.24528 -34.43603,22.87844 -8.36423,11.14888 -13.66699,25.79517 -14.60242,40.33214 -0.56603,8.79618 0.47608,24.19295 2.36714,34.97382 1.08355,6.17726 2.02266,9.73998 4.25823,16.15455 l 1.8989,5.44859 -4.34231,17.5878 c -2.42633,9.82742 -4.49396,17.5878 -4.686,17.5878 -0.20021,0 1.49214,-7.43673 4.05387,-17.81408 z"
     style="fill:#606369;fill-opacity:1;stroke-width:0.315301" />
  <path
     transform="scale(0.046875)"
     id="path1537"
     d=""
     style="fill:#606369;fill-opacity:1;stroke-width:0.315301" />
  <path
     transform="scale(0.046875)"
     id="path1539"
     d=""
     style="fill:#606369;fill-opacity:1;stroke-width:0.315301" />
  <path
     transform="scale(0.046875)"
     id="path1541"
     d=""
     style="fill:#606369;fill-opacity:1;stroke-width:0.315301" />
</svg>
