<svg width="28" height="28" viewBox="0 0 28 28" fill="none" xmlns="http://www.w3.org/2000/svg">
<path opacity="0.4" d="M18.2141 17.5165V11.0704L18.2968 11.1294V18.4164C18.2968 21.8672 15.5355 24.6736 12.1004 24.7485C15.57 24.1665 18.2141 21.1504 18.2141 17.5165ZM23.3689 9.29415C23.3964 9.29696 23.4239 9.29957 23.4514 9.30198V12.0061C23.4239 12.0045 23.3963 12.0027 23.3689 12.0008V11.6206V9.29415ZM12.3975 14.8075C12.3702 14.8041 12.3429 14.801 12.3155 14.7983V14.5263V12.0927C12.3428 12.0942 12.3702 12.0959 12.3975 12.0978V14.8075ZM8.32785 18.186C8.26979 17.969 8.23886 17.7409 8.23886 17.5057C8.23886 16.0557 9.41482 14.8799 10.8663 14.8799H10.8668C10.9341 14.8798 11.0013 14.8823 11.0683 14.8874C9.55893 15.2636 8.42357 16.5848 8.32785 18.186Z" fill="#999FAA" stroke="#999FAA"/>
<path d="M17.7141 9.47192H16.1538L17.2142 10.2293V17.5165C17.2142 21.0142 14.3773 23.8501 10.8773 23.8501C9.58908 23.8501 8.39196 23.4666 7.39262 22.8076C6.29579 21.6687 5.62245 20.1218 5.62245 18.4163C5.62245 15.1361 8.11786 12.4377 11.3153 12.1153V13.9076C11.168 13.8893 11.0181 13.88 10.8661 13.88C8.86283 13.88 7.2387 15.5032 7.2387 17.5058C7.2387 18.8815 8.00523 20.077 9.13232 20.6912C9.79684 21.5081 10.8115 22.0316 11.9487 22.0316C13.9478 22.0316 15.5691 20.4149 15.5762 18.418V18.4163V4.15002H17.367C17.7259 5.56401 18.6152 6.76488 19.8098 7.53003C20.4967 8.26205 21.3764 8.81255 22.3689 9.10016V11.1059C20.8365 11.0158 19.4156 10.5141 18.2142 9.70991V9.47192H17.7142H17.7141Z" fill="#999FAA" stroke="#999FAA"/>
<path opacity="0.2" d="M14.4936 3.25H14.5762V3.64998V18.4153C14.5707 19.8609 13.3966 21.0315 11.9487 21.0315C11.8808 21.0315 11.8135 21.0289 11.7469 21.0238C13.3208 20.6314 14.4877 19.2115 14.4936 17.5181V17.5164V3.25ZM4.6237 18.5485C4.56863 18.2126 4.54 17.8678 4.54 17.5164C4.54 14.0667 7.30014 11.2606 10.7345 11.1847C7.26548 11.7675 4.62253 14.7832 4.62253 18.4162C4.62253 18.4604 4.62292 18.5045 4.6237 18.5485Z" fill="#999FAA" stroke="#999FAA"/>
</svg>
