<svg width="24" height="24" viewBox="0 0 24 24" fill="none" xmlns="http://www.w3.org/2000/svg">
<g clip-path="url(#clip0)">
<mask id="path-1-inside-1" fill="white">
<path d="M8.18358 20.3594C15.9464 20.3594 20.1924 13.9279 20.1924 8.35062C20.1924 8.16795 20.1924 7.9861 20.18 7.80507C21.006 7.2076 21.719 6.46782 22.2857 5.62038C21.5154 5.9617 20.6983 6.18554 19.8616 6.28443C20.7426 5.75696 21.4021 4.92735 21.7171 3.94998C20.8886 4.4416 19.9822 4.78807 19.0371 4.97444C18.4007 4.29779 17.5591 3.84973 16.6424 3.6996C15.7258 3.54946 14.7852 3.70562 13.9662 4.14391C13.1473 4.5822 12.4956 5.27819 12.1121 6.12417C11.7285 6.97014 11.6345 7.91895 11.8445 8.82376C10.1665 8.73964 8.5249 8.30358 7.02635 7.54388C5.5278 6.78419 4.20576 5.71784 3.14605 4.41407C2.60633 5.34321 2.44103 6.44312 2.68379 7.48986C2.92656 8.5366 3.55914 9.45146 4.45275 10.0482C3.78108 10.0283 3.12406 9.84708 2.53714 9.5199C2.53714 9.53718 2.53714 9.55528 2.53714 9.57339C2.5374 10.5478 2.87472 11.4922 3.49188 12.2463C4.10904 13.0004 4.96805 13.5178 5.92319 13.7107C5.30183 13.8802 4.64989 13.9049 4.01746 13.7831C4.28715 14.6218 4.81222 15.3551 5.51923 15.8806C6.22623 16.4062 7.07981 16.6976 7.96059 16.7141C6.46606 17.8887 4.61984 18.5263 2.71899 18.5244C2.38318 18.5238 2.0477 18.5034 1.71428 18.4635C3.6444 19.7022 5.89021 20.3592 8.18358 20.3561"/>
</mask>
<path d="M8.18358 20.3594C15.9464 20.3594 20.1924 13.9279 20.1924 8.35062C20.1924 8.16795 20.1924 7.9861 20.18 7.80507C21.006 7.2076 21.719 6.46782 22.2857 5.62038C21.5154 5.9617 20.6983 6.18554 19.8616 6.28443C20.7426 5.75696 21.4021 4.92735 21.7171 3.94998C20.8886 4.4416 19.9822 4.78807 19.0371 4.97444C18.4007 4.29779 17.5591 3.84973 16.6424 3.6996C15.7258 3.54946 14.7852 3.70562 13.9662 4.14391C13.1473 4.5822 12.4956 5.27819 12.1121 6.12417C11.7285 6.97014 11.6345 7.91895 11.8445 8.82376C10.1665 8.73964 8.5249 8.30358 7.02635 7.54388C5.5278 6.78419 4.20576 5.71784 3.14605 4.41407C2.60633 5.34321 2.44103 6.44312 2.68379 7.48986C2.92656 8.5366 3.55914 9.45146 4.45275 10.0482C3.78108 10.0283 3.12406 9.84708 2.53714 9.5199C2.53714 9.53718 2.53714 9.55528 2.53714 9.57339C2.5374 10.5478 2.87472 11.4922 3.49188 12.2463C4.10904 13.0004 4.96805 13.5178 5.92319 13.7107C5.30183 13.8802 4.64989 13.9049 4.01746 13.7831C4.28715 14.6218 4.81222 15.3551 5.51923 15.8806C6.22623 16.4062 7.07981 16.6976 7.96059 16.7141C6.46606 17.8887 4.61984 18.5263 2.71899 18.5244C2.38318 18.5238 2.0477 18.5034 1.71428 18.4635C3.6444 19.7022 5.89021 20.3592 8.18358 20.3561" fill="#999FAA"/>
<path d="M20.18 7.80507L19.5939 6.99481L19.1446 7.31982L19.1823 7.87309L20.18 7.80507ZM22.2857 5.62038L23.117 6.17623L25.0345 3.30861L21.8806 4.70612L22.2857 5.62038ZM19.8616 6.28443L19.3479 5.42643L19.9789 7.27752L19.8616 6.28443ZM21.7171 3.94998L22.6689 4.25678L23.4798 1.74122L21.2068 3.08999L21.7171 3.94998ZM19.0371 4.97444L18.3086 5.65952L18.6877 6.06259L19.2305 5.95555L19.0371 4.97444ZM11.8445 8.82376L11.7944 9.82251L13.1183 9.88888L12.8186 8.59766L11.8445 8.82376ZM3.14605 4.41407L3.92205 3.78334L3.0087 2.65963L2.28135 3.91179L3.14605 4.41407ZM4.45275 10.0482L4.42312 11.0477L7.9049 11.1509L5.00808 9.21654L4.45275 10.0482ZM2.53714 9.5199L3.02404 8.64644L1.53714 7.81758L1.53714 9.5199L2.53714 9.5199ZM2.53714 9.57339L1.53714 9.57339L1.53714 9.57366L2.53714 9.57339ZM5.92319 13.7107L6.1863 14.6755L6.12121 12.7305L5.92319 13.7107ZM4.01746 13.7831L4.2066 12.8012L2.54851 12.4818L3.06547 14.0893L4.01746 13.7831ZM7.96059 16.7141L8.57851 17.5004L10.7841 15.767L7.97937 15.7143L7.96059 16.7141ZM2.71899 18.5244L2.71707 19.5244L2.71798 19.5244L2.71899 18.5244ZM1.71428 18.4635L1.83314 17.4706L1.17419 19.3051L1.71428 18.4635ZM8.18358 21.3594C16.6135 21.3594 21.1924 14.358 21.1924 8.35062H19.1924C19.1924 13.4979 15.2793 19.3594 8.18358 19.3594V21.3594ZM21.1924 8.35062C21.1924 8.17374 21.1927 7.95774 21.1777 7.73704L19.1823 7.87309C19.192 8.01445 19.1924 8.16215 19.1924 8.35062H21.1924ZM20.7661 8.61532C21.6883 7.94828 22.4843 7.12236 23.117 6.17623L21.4544 5.06453C20.9538 5.81329 20.3238 6.46692 19.5939 6.99481L20.7661 8.61532ZM21.8806 4.70612C21.2017 5.00692 20.4816 5.20419 19.7442 5.29134L19.9789 7.27752C20.915 7.16689 21.8291 6.91648 22.6908 6.53465L21.8806 4.70612ZM20.3752 7.14242C21.4643 6.49042 22.2794 5.46492 22.6689 4.25678L20.7653 3.64318C20.5247 4.38978 20.021 5.0235 19.3479 5.42643L20.3752 7.14242ZM21.2068 3.08999C20.4763 3.52349 19.677 3.829 18.8436 3.99333L19.2305 5.95555C20.2874 5.74715 21.301 5.35971 22.2274 4.80997L21.2068 3.08999ZM19.7655 4.28936C18.9786 3.45254 17.9377 2.89842 16.8041 2.71275L16.4808 4.68645C17.1805 4.80104 17.8229 5.14304 18.3086 5.65952L19.7655 4.28936ZM16.8041 2.71275C15.6704 2.52707 14.5072 2.7202 13.4944 3.26224L14.4381 5.02559C15.0632 4.69105 15.7811 4.57185 16.4808 4.68645L16.8041 2.71275ZM13.4944 3.26224C12.4816 3.80427 11.6756 4.66501 11.2013 5.71124L13.0228 6.53709C13.3156 5.89137 13.813 5.36013 14.4381 5.02559L13.4944 3.26224ZM11.2013 5.71124C10.7269 6.75747 10.6106 7.93087 10.8704 9.04986L12.8186 8.59766C12.6583 7.90703 12.7301 7.18282 13.0228 6.53709L11.2013 5.71124ZM11.8945 7.82502C10.3566 7.74792 8.852 7.34825 7.47852 6.65195L6.57418 8.43582C8.19779 9.25891 9.97635 9.73137 11.7944 9.82251L11.8945 7.82502ZM7.47852 6.65195C6.10503 5.95566 4.89332 4.9783 3.92205 3.78334L2.37005 5.04481C3.51819 6.45738 4.95057 7.61272 6.57418 8.43582L7.47852 6.65195ZM2.28135 3.91179C1.61385 5.0609 1.40941 6.42123 1.70965 7.71579L3.65794 7.26393C3.47265 6.46502 3.59882 5.62552 4.01075 4.91636L2.28135 3.91179ZM1.70965 7.71579C2.00989 9.01035 2.79225 10.1418 3.89742 10.8798L5.00808 9.21654C4.32604 8.76111 3.84323 8.06285 3.65794 7.26393L1.70965 7.71579ZM4.48237 9.04861C3.97104 9.03346 3.47086 8.89552 3.02404 8.64644L2.05023 10.3934C2.77727 10.7986 3.59112 11.0231 4.42312 11.0477L4.48237 9.04861ZM1.53714 9.5199C1.53714 9.54085 1.53714 9.55162 1.53714 9.57339H3.53714C3.53714 9.55581 3.53714 9.53666 3.53714 9.5199L1.53714 9.5199ZM1.53714 9.57366C1.53747 10.7789 1.95468 11.9469 2.71801 12.8796L4.26575 11.6129C3.79477 11.0374 3.53734 10.3168 3.53714 9.57311L1.53714 9.57366ZM2.71801 12.8796C3.48135 13.8123 4.54381 14.4523 5.72518 14.6909L6.12121 12.7305C5.39228 12.5833 4.73674 12.1884 4.26575 11.6129L2.71801 12.8796ZM5.66008 12.7459C5.18617 12.8752 4.68895 12.8941 4.2066 12.8012L3.82831 14.7651C4.61083 14.9158 5.41748 14.8852 6.1863 14.6755L5.66008 12.7459ZM3.06547 14.0893C3.399 15.1264 4.04834 16.0333 4.92266 16.6832L6.11579 15.0781C5.57611 14.6769 5.17531 14.1171 4.96944 13.477L3.06547 14.0893ZM4.92266 16.6832C5.79699 17.3331 6.85258 17.6935 7.94181 17.714L7.97937 15.7143C7.30704 15.7017 6.65547 15.4792 6.11579 15.0781L4.92266 16.6832ZM7.34267 15.9279C6.02461 16.9638 4.39639 17.5261 2.72 17.5244L2.71798 19.5244C4.84328 19.5266 6.90751 18.8136 8.57851 17.5004L7.34267 15.9279ZM2.72091 17.5244C2.42419 17.5239 2.12776 17.5059 1.83314 17.4706L1.59542 19.4564C1.96765 19.501 2.34217 19.5237 2.71707 19.5244L2.72091 17.5244ZM1.17419 19.3051C3.26585 20.6474 5.69961 21.3594 8.18491 21.3561L8.18225 19.3561C6.08081 19.3589 4.02296 18.7569 2.25437 17.6219L1.17419 19.3051Z" fill="#999FAA" mask="url(#path-1-inside-1)"/>
</g>
<defs>
<clipPath id="clip0">
<rect width="20.5714" height="20.5714" fill="white" transform="translate(1.71428 1.71436)"/>
</clipPath>
</defs>
</svg>
