<svg width="24" height="24" viewBox="0 0 24 24" fill="none" xmlns="http://www.w3.org/2000/svg">
<mask id="mask0" mask-type="alpha" maskUnits="userSpaceOnUse" x="1" y="4" width="22" height="17">
<path d="M1.71445 4.12891H22.2859V20.211H1.71445V4.12891Z" fill="white"/>
</mask>
<g mask="url(#mask0)">
<path fill-rule="evenodd" clip-rule="evenodd" d="M7.18919 14.7315C3.39522 14.7097 1.69753 12.1896 1.71457 9.38828C1.73099 6.58634 3.45677 4.1067 7.2506 4.12955C11.0445 4.15051 12.7423 6.65048 12.7256 9.45241C12.7088 12.2534 10.9831 14.7534 7.18919 14.7315ZM7.23481 6.93054C5.77516 6.92177 5.57226 8.34125 5.5659 9.41049C5.56011 10.4803 5.74595 11.9216 7.20498 11.9306C8.66372 11.9384 8.86745 10.5007 8.87381 9.42964C8.88003 8.35956 8.69391 6.93847 7.23481 6.93054Z" fill="#999FAA"/>
<path fill-rule="evenodd" clip-rule="evenodd" d="M16.7485 14.732C12.9555 14.7092 11.258 12.1892 11.2747 9.38786C11.2903 6.58676 13.0168 4.10629 16.8102 4.12906C20.6037 4.151 22.3016 6.6509 22.2859 9.45199C22.269 12.2539 20.5423 14.7533 16.7485 14.732ZM16.7941 6.93005C15.3353 6.92128 15.1325 8.34076 15.1265 9.41091C15.1194 10.4808 15.3055 11.9213 16.7652 11.9301C18.223 11.9389 18.427 10.5002 18.4331 9.43012C18.4393 8.35991 18.2528 6.93805 16.7941 6.93005Z" fill="#999FAA"/>
<path fill-rule="evenodd" clip-rule="evenodd" d="M3.15928 14.7322C5.89435 15.9541 8.73247 16.4966 11.8248 16.5143C15.0735 16.5334 17.537 15.9199 20.6557 14.7322L20.6375 18.0976C17.8462 19.4819 14.8193 20.2282 11.8028 20.2108C8.51568 20.1913 6.14643 19.5162 3.13895 18.0976L3.15928 14.7322Z" fill="#999FAA"/>
</g>
</svg>
