<svg width="24" height="24" viewBox="0 0 24 24" fill="none" xmlns="http://www.w3.org/2000/svg">
<g clip-path="url(#clip0)">
<path d="M12 2.57153C6.79294 2.57153 2.57143 6.79305 2.57143 12.0001C2.57143 15.9966 5.05467 19.411 8.56226 20.7846C8.47689 20.0396 8.40705 18.8911 8.5933 18.0763C8.76402 17.3391 9.69524 13.3892 9.69524 13.3892C9.69524 13.3892 9.41587 12.8227 9.41587 11.9923C9.41587 10.6809 10.1764 9.7031 11.1231 9.7031C11.9302 9.7031 12.3182 10.3084 12.3182 11.0301C12.3182 11.8371 11.806 13.0477 11.5344 14.1729C11.3093 15.1119 12.0078 15.8802 12.9312 15.8802C14.6074 15.8802 15.8956 14.1109 15.8956 11.5655C15.8956 9.30734 14.2737 7.73203 11.9534 7.73203C9.26843 7.73203 7.69312 9.7419 7.69312 11.8216C7.69312 12.6287 8.00353 13.4978 8.39153 13.9712C8.46913 14.0643 8.47689 14.1497 8.45361 14.2428C8.38377 14.5377 8.22081 15.1818 8.18977 15.3137C8.15097 15.4844 8.05009 15.5232 7.8716 15.4378C6.69206 14.8869 5.95485 13.1719 5.95485 11.7828C5.95485 8.81069 8.11217 6.07912 12.1862 6.07912C15.4533 6.07912 17.9986 8.40716 17.9986 11.5267C17.9986 14.7782 15.9499 17.3934 13.1097 17.3934C12.1552 17.3934 11.255 16.8968 10.9524 16.307C10.9524 16.307 10.479 18.1073 10.3626 18.5497C10.1531 19.3722 9.57883 20.3966 9.19083 21.0252C10.0755 21.2968 11.0067 21.4442 11.9845 21.4442C17.1915 21.4442 21.4131 17.2227 21.4131 12.0156C21.4286 6.79305 17.2071 2.57153 12 2.57153Z" fill="#999FAA"/>
</g>
<defs>
<clipPath id="clip0">
<rect width="18.8571" height="18.8571" fill="white" transform="translate(2.57143 2.57153)"/>
</clipPath>
</defs>
</svg>
