<svg width="24" height="24" viewBox="0 0 24 24" fill="none" xmlns="http://www.w3.org/2000/svg">
<mask id="path-1-inside-1" fill="white">
<path fill-rule="evenodd" clip-rule="evenodd" d="M20.0371 5.57552C20.9223 5.81361 21.6192 6.51515 21.8558 7.40603C22.2857 9.02065 22.2857 12.3896 22.2857 12.3896C22.2857 12.3896 22.2857 15.7584 21.8558 17.3732C21.6192 18.264 20.9223 18.9655 20.0371 19.2037C18.4329 19.6363 12 19.6363 12 19.6363C12 19.6363 5.5671 19.6363 3.96288 19.2037C3.07785 18.9655 2.38075 18.264 2.14418 17.3732C1.71429 15.7584 1.71429 12.3896 1.71429 12.3896C1.71429 12.3896 1.71429 9.02065 2.14418 7.40603C2.38075 6.51515 3.07785 5.81361 3.96288 5.57552C5.5671 5.14282 12 5.14282 12 5.14282C12 5.14282 18.4329 5.14282 20.0371 5.57552ZM15.2727 12.3896L9.89611 15.4482V9.33081L15.2727 12.3896Z"/>
</mask>
<path fill-rule="evenodd" clip-rule="evenodd" d="M20.0371 5.57552C20.9223 5.81361 21.6192 6.51515 21.8558 7.40603C22.2857 9.02065 22.2857 12.3896 22.2857 12.3896C22.2857 12.3896 22.2857 15.7584 21.8558 17.3732C21.6192 18.264 20.9223 18.9655 20.0371 19.2037C18.4329 19.6363 12 19.6363 12 19.6363C12 19.6363 5.5671 19.6363 3.96288 19.2037C3.07785 18.9655 2.38075 18.264 2.14418 17.3732C1.71429 15.7584 1.71429 12.3896 1.71429 12.3896C1.71429 12.3896 1.71429 9.02065 2.14418 7.40603C2.38075 6.51515 3.07785 5.81361 3.96288 5.57552C5.5671 5.14282 12 5.14282 12 5.14282C12 5.14282 18.4329 5.14282 20.0371 5.57552ZM15.2727 12.3896L9.89611 15.4482V9.33081L15.2727 12.3896Z" fill="#999FAA"/>
<path d="M21.8558 7.40603L20.8893 7.66268L20.8895 7.66332L21.8558 7.40603ZM20.0371 5.57552L19.7767 6.54102L19.7774 6.5412L20.0371 5.57552ZM21.8558 17.3732L20.8895 17.116L20.8893 17.1166L21.8558 17.3732ZM20.0371 19.2037L19.7772 18.2381L19.7768 18.2382L20.0371 19.2037ZM12 19.6363L12 18.6363L12 18.6363L12 19.6363ZM3.96288 19.2037L4.22324 18.2382L4.22278 18.2381L3.96288 19.2037ZM2.14418 17.3732L3.11068 17.1166L3.11053 17.116L2.14418 17.3732ZM2.14418 7.40603L3.11052 7.66332L3.11069 7.66268L2.14418 7.40603ZM3.96288 5.57552L4.22267 6.54119L4.2233 6.54102L3.96288 5.57552ZM9.89611 15.4482H8.89611V17.1676L10.3906 16.3174L9.89611 15.4482ZM15.2727 12.3896L15.7672 13.2588L17.2951 12.3897L15.7672 11.5205L15.2727 12.3896ZM9.89611 9.33081L10.3906 8.46163L8.89611 7.61139V9.33081H9.89611ZM22.8223 7.14938C22.4946 5.9152 21.5299 4.94151 20.2969 4.60985L19.7774 6.5412C20.3146 6.68572 20.7439 7.1151 20.8893 7.66268L22.8223 7.14938ZM22.2857 12.3896C23.2857 12.3896 23.2857 12.3895 23.2857 12.3894C23.2857 12.3894 23.2857 12.3893 23.2857 12.3892C23.2857 12.389 23.2857 12.3887 23.2857 12.3885C23.2857 12.3879 23.2857 12.3871 23.2857 12.3861C23.2857 12.3842 23.2857 12.3814 23.2857 12.3778C23.2857 12.3707 23.2857 12.3604 23.2856 12.3472C23.2855 12.3206 23.2853 12.2821 23.2848 12.2329C23.284 12.1344 23.2822 11.9928 23.2788 11.8183C23.2719 11.4696 23.2582 10.9871 23.2307 10.4519C23.1771 9.41127 23.0672 8.06907 22.8222 7.14874L20.8895 7.66332C21.0743 8.35761 21.1794 9.50719 21.2333 10.5547C21.2595 11.0635 21.2726 11.5242 21.2792 11.8576C21.2825 12.0242 21.2841 12.1584 21.2849 12.2505C21.2853 12.2965 21.2855 12.3319 21.2856 12.3555C21.2857 12.3673 21.2857 12.3762 21.2857 12.3819C21.2857 12.3848 21.2857 12.3869 21.2857 12.3881C21.2857 12.3888 21.2857 12.3892 21.2857 12.3895C21.2857 12.3896 21.2857 12.3897 21.2857 12.3897C21.2857 12.3897 21.2857 12.3897 21.2857 12.3897C21.2857 12.3896 21.2857 12.3896 22.2857 12.3896ZM22.8222 17.6305C23.0672 16.7101 23.1771 15.3679 23.2307 14.3272C23.2582 13.792 23.2719 13.3095 23.2788 12.9609C23.2822 12.7863 23.284 12.6448 23.2848 12.5463C23.2853 12.497 23.2855 12.4585 23.2856 12.432C23.2857 12.4187 23.2857 12.4085 23.2857 12.4013C23.2857 12.3978 23.2857 12.395 23.2857 12.393C23.2857 12.392 23.2857 12.3913 23.2857 12.3907C23.2857 12.3904 23.2857 12.3902 23.2857 12.39C23.2857 12.3899 23.2857 12.3898 23.2857 12.3897C23.2857 12.3897 23.2857 12.3896 22.2857 12.3896C21.2857 12.3896 21.2857 12.3895 21.2857 12.3895C21.2857 12.3895 21.2857 12.3895 21.2857 12.3895C21.2857 12.3895 21.2857 12.3896 21.2857 12.3897C21.2857 12.3899 21.2857 12.3904 21.2857 12.391C21.2857 12.3923 21.2857 12.3944 21.2857 12.3972C21.2857 12.403 21.2857 12.4118 21.2856 12.4236C21.2855 12.4472 21.2853 12.4827 21.2849 12.5287C21.2841 12.6207 21.2825 12.755 21.2792 12.9215C21.2726 13.255 21.2595 13.7156 21.2333 14.2244C21.1794 15.2719 21.0743 16.4216 20.8895 17.116L22.8222 17.6305ZM20.297 20.1694C21.5299 19.8376 22.4946 18.864 22.8223 17.6299L20.8893 17.1166C20.7439 17.664 20.3147 18.0935 19.7772 18.2381L20.297 20.1694ZM12 19.6363C12 20.6363 12.0001 20.6363 12.0001 20.6363C12.0002 20.6363 12.0003 20.6363 12.0004 20.6363C12.0007 20.6363 12.001 20.6363 12.0014 20.6363C12.0023 20.6363 12.0036 20.6363 12.0052 20.6363C12.0085 20.6363 12.0133 20.6363 12.0196 20.6363C12.0322 20.6363 12.0507 20.6363 12.0749 20.6362C12.1231 20.6361 12.1939 20.6359 12.2843 20.6355C12.465 20.6346 12.7246 20.6329 13.041 20.6295C13.6732 20.6227 14.5342 20.6091 15.4469 20.5818C16.3579 20.5546 17.3285 20.5135 18.1777 20.4511C18.9987 20.3909 19.7919 20.3056 20.2975 20.1693L19.7768 18.2382C19.4802 18.3182 18.8677 18.3951 18.0313 18.4565C17.2232 18.5158 16.2848 18.5559 15.3871 18.5827C14.491 18.6095 13.6435 18.6229 13.0194 18.6296C12.7076 18.633 12.4521 18.6347 12.2748 18.6355C12.1862 18.6359 12.1171 18.6361 12.0704 18.6362C12.0471 18.6363 12.0293 18.6363 12.0174 18.6363C12.0115 18.6363 12.0071 18.6363 12.0041 18.6363C12.0027 18.6363 12.0016 18.6363 12.0009 18.6363C12.0006 18.6363 12.0003 18.6363 12.0002 18.6363C12.0001 18.6363 12 18.6363 12 18.6363C12 18.6363 12 18.6363 12 19.6363ZM3.70253 20.1693C4.20809 20.3056 5.00131 20.3909 5.82225 20.4511C6.67146 20.5135 7.6421 20.5546 8.55314 20.5818C9.4658 20.6091 10.3268 20.6227 10.959 20.6295C11.2754 20.6329 11.535 20.6346 11.7157 20.6355C11.8061 20.6359 11.8769 20.6361 11.9251 20.6362C11.9493 20.6363 11.9678 20.6363 11.9804 20.6363C11.9867 20.6363 11.9915 20.6363 11.9948 20.6363C11.9964 20.6363 11.9977 20.6363 11.9986 20.6363C11.999 20.6363 11.9993 20.6363 11.9996 20.6363C11.9997 20.6363 11.9998 20.6363 11.9999 20.6363C11.9999 20.6363 12 20.6363 12 19.6363C12 18.6363 12 18.6363 12 18.6363C12 18.6363 11.9999 18.6363 11.9998 18.6363C11.9997 18.6363 11.9994 18.6363 11.9991 18.6363C11.9984 18.6363 11.9973 18.6363 11.9959 18.6363C11.9929 18.6363 11.9885 18.6363 11.9826 18.6363C11.9707 18.6363 11.9529 18.6363 11.9296 18.6362C11.8829 18.6361 11.8138 18.6359 11.7252 18.6355C11.5479 18.6347 11.2924 18.633 10.9806 18.6296C10.3565 18.6229 9.509 18.6095 8.61291 18.5827C7.7152 18.5559 6.77682 18.5158 5.96868 18.4565C5.13226 18.3951 4.51979 18.3182 4.22324 18.2382L3.70253 20.1693ZM1.17769 17.6299C1.50545 18.864 2.47027 19.8376 3.70298 20.1694L4.22278 18.2381C3.68542 18.0935 3.25606 17.664 3.11068 17.1166L1.17769 17.6299ZM1.71429 12.3896C0.714287 12.3896 0.714287 12.3897 0.714287 12.3897C0.714287 12.3898 0.714287 12.3899 0.714287 12.39C0.714287 12.3902 0.714287 12.3904 0.714287 12.3907C0.714287 12.3913 0.714288 12.392 0.714289 12.393C0.714291 12.395 0.714295 12.3978 0.714302 12.4013C0.714317 12.4085 0.714345 12.4187 0.714401 12.432C0.714512 12.4585 0.714731 12.497 0.715165 12.5463C0.716033 12.6448 0.71776 12.7863 0.721198 12.9609C0.728064 13.3095 0.741799 13.792 0.769346 14.3272C0.822906 15.3679 0.93281 16.7101 1.17784 17.6305L3.11053 17.116C2.92566 16.4216 2.82062 15.2719 2.7667 14.2244C2.74051 13.7156 2.72738 13.255 2.72081 12.9215C2.71753 12.755 2.7159 12.6207 2.71509 12.5287C2.71468 12.4827 2.71448 12.4472 2.71438 12.4236C2.71433 12.4118 2.71431 12.403 2.7143 12.3972C2.71429 12.3944 2.71429 12.3923 2.71429 12.391C2.71429 12.3904 2.71429 12.3899 2.71429 12.3897C2.71429 12.3896 2.71429 12.3895 2.71429 12.3895C2.71429 12.3895 2.71429 12.3895 2.71429 12.3895C2.71429 12.3895 2.71429 12.3896 1.71429 12.3896ZM1.17785 7.14874C0.932809 8.06907 0.822905 9.41127 0.769346 10.4519C0.741799 10.9871 0.728064 11.4696 0.721198 11.8183C0.71776 11.9928 0.716033 12.1344 0.715165 12.2329C0.714731 12.2821 0.714512 12.3206 0.714401 12.3472C0.714345 12.3604 0.714317 12.3707 0.714302 12.3778C0.714295 12.3814 0.714291 12.3842 0.714289 12.3861C0.714288 12.3871 0.714287 12.3879 0.714287 12.3885C0.714287 12.3887 0.714287 12.389 0.714287 12.3892C0.714287 12.3893 0.714287 12.3894 0.714287 12.3894C0.714287 12.3895 0.714287 12.3896 1.71429 12.3896C2.71429 12.3896 2.71429 12.3896 2.71429 12.3897C2.71429 12.3897 2.71429 12.3897 2.71429 12.3897C2.71429 12.3897 2.71429 12.3896 2.71429 12.3895C2.71429 12.3892 2.71429 12.3888 2.71429 12.3881C2.71429 12.3869 2.71429 12.3848 2.7143 12.3819C2.71431 12.3762 2.71433 12.3673 2.71438 12.3555C2.71448 12.3319 2.71468 12.2965 2.71509 12.2505C2.7159 12.1584 2.71753 12.0242 2.72081 11.8576C2.72738 11.5242 2.74051 11.0635 2.7667 10.5547C2.82062 9.50719 2.92566 8.35761 3.11052 7.66332L1.17785 7.14874ZM3.7031 4.60986C2.47026 4.94151 1.50542 5.91515 1.17768 7.14938L3.11069 7.66268C3.25608 7.11514 3.68543 6.68572 4.22267 6.54119L3.7031 4.60986ZM12 5.14282C12 4.14282 11.9999 4.14282 11.9999 4.14282C11.9998 4.14282 11.9997 4.14282 11.9996 4.14282C11.9993 4.14282 11.999 4.14282 11.9986 4.14282C11.9977 4.14282 11.9964 4.14282 11.9948 4.14282C11.9915 4.14283 11.9867 4.14283 11.9804 4.14284C11.9678 4.14285 11.9493 4.14288 11.9251 4.14293C11.8769 4.14304 11.8061 4.14325 11.7157 4.14368C11.535 4.14453 11.2754 4.14624 10.959 4.14964C10.3267 4.15645 9.46579 4.17007 8.55313 4.19736C7.64209 4.2246 6.67145 4.2657 5.82223 4.32805C5.00129 4.38833 4.20805 4.47366 3.70246 4.61003L4.2233 6.54102C4.51983 6.46104 5.13228 6.3841 5.9687 6.32268C6.77684 6.26334 7.71521 6.22331 8.61291 6.19646C9.50901 6.16967 10.3565 6.15624 10.9806 6.14953C11.2924 6.14617 11.5479 6.14449 11.7252 6.14366C11.8138 6.14324 11.8829 6.14303 11.9296 6.14293C11.9529 6.14287 11.9707 6.14285 11.9826 6.14283C11.9885 6.14283 11.9929 6.14283 11.9959 6.14282C11.9973 6.14282 11.9984 6.14282 11.9991 6.14282C11.9994 6.14282 11.9997 6.14282 11.9998 6.14282C11.9999 6.14282 12 6.14282 12 6.14282C12 6.14282 12 6.14282 12 5.14282ZM20.2975 4.61003C19.7919 4.47366 18.9987 4.38833 18.1778 4.32805C17.3286 4.2657 16.3579 4.2246 15.4469 4.19736C14.5342 4.17007 13.6733 4.15645 13.041 4.14964C12.7246 4.14624 12.465 4.14453 12.2843 4.14368C12.1939 4.14325 12.1231 4.14304 12.0749 4.14293C12.0507 4.14288 12.0322 4.14285 12.0196 4.14284C12.0133 4.14283 12.0085 4.14283 12.0052 4.14282C12.0036 4.14282 12.0023 4.14282 12.0014 4.14282C12.001 4.14282 12.0007 4.14282 12.0004 4.14282C12.0003 4.14282 12.0002 4.14282 12.0001 4.14282C12.0001 4.14282 12 4.14282 12 5.14282C12 6.14282 12 6.14282 12 6.14282C12 6.14282 12.0001 6.14282 12.0002 6.14282C12.0003 6.14282 12.0006 6.14282 12.0009 6.14282C12.0016 6.14282 12.0027 6.14282 12.0041 6.14282C12.0071 6.14283 12.0115 6.14283 12.0174 6.14283C12.0293 6.14285 12.0471 6.14287 12.0704 6.14293C12.1171 6.14303 12.1862 6.14324 12.2748 6.14366C12.4521 6.14449 12.7076 6.14617 13.0194 6.14953C13.6435 6.15624 14.491 6.16967 15.3871 6.19646C16.2848 6.22331 17.2232 6.26334 18.0313 6.32268C18.8677 6.3841 19.4802 6.46104 19.7767 6.54102L20.2975 4.61003ZM10.3906 16.3174L15.7672 13.2588L14.7783 11.5204L9.40165 14.579L10.3906 16.3174ZM8.89611 9.33081V15.4482H10.8961V9.33081H8.89611ZM15.7672 11.5205L10.3906 8.46163L9.40162 10.2L14.7782 13.2588L15.7672 11.5205Z" fill="#999FAA" mask="url(#path-1-inside-1)"/>
</svg>
