<?xml version="1.0" encoding="UTF-8" standalone="no"?>
<svg width="15px" height="14px" viewBox="0 0 15 14" version="1.1" xmlns="http://www.w3.org/2000/svg" xmlns:xlink="http://www.w3.org/1999/xlink">
    <!-- Generator: Sketch 3.8.3 (29802) - http://www.bohemiancoding.com/sketch -->
    <title>icn-instgram</title>
    <desc>Created with Sketch.</desc>
    <defs></defs>
    <g id="Symbols" stroke="none" stroke-width="1" fill="none" fill-rule="evenodd">
        <g id="icn-instgram" sketch:type="MSArtboardGroup" fill="#999FAA">
            <path d="M4.66704362,7 C4.66704362,5.71138934 5.71138934,4.66647819 7,4.66647819 C8.28861066,4.66647819 9.33352181,5.71138934 9.33352181,7 C9.33352181,8.28861066 8.28861066,9.33352181 7,9.33352181 C5.71138934,9.33352181 4.66704362,8.28861066 4.66704362,7 M3.40557351,7 C3.40557351,8.98521809 5.01478191,10.5944265 7,10.5944265 C8.98521809,10.5944265 10.5944265,8.98521809 10.5944265,7 C10.5944265,5.01478191 8.98521809,3.40557351 7,3.40557351 C5.01478191,3.40557351 3.40557351,5.01478191 3.40557351,7 M9.89668821,3.26308562 C9.89668821,3.72673667 10.2726979,4.10331179 10.7369144,4.10331179 C11.2005654,4.10331179 11.5771405,3.72673667 11.5771405,3.26308562 C11.5771405,2.79943457 11.2011309,2.42342488 10.7369144,2.42342488 C10.2726979,2.42342488 9.89668821,2.79943457 9.89668821,3.26308562 M4.17172859,12.6978191 C3.48925687,12.6667205 3.11833603,12.5530695 2.87180937,12.4569467 C2.54499192,12.3297254 2.31203554,12.1781906 2.06663974,11.9333603 C1.82180937,11.6885299 1.66970921,11.4555735 1.54305331,11.1287561 C1.44693053,10.8822294 1.33327948,10.5113086 1.30218094,9.82883683 C1.26825525,9.09095315 1.26147011,8.86930533 1.26147011,7 C1.26147011,5.13069467 1.26882068,4.90961228 1.30218094,4.17116317 C1.33327948,3.48869144 1.44749596,3.11833603 1.54305331,2.87124394 C1.67027464,2.54442649 1.82180937,2.31147011 2.06663974,2.06607431 C2.31147011,1.82124394 2.54442649,1.66914378 2.87180937,1.54248788 C3.11833603,1.44636511 3.48925687,1.33271405 4.17172859,1.30161551 C4.90961228,1.26768982 5.1312601,1.26090468 7,1.26090468 C8.86930533,1.26090468 9.09038772,1.26825525 9.82883683,1.30161551 C10.5113086,1.33271405 10.881664,1.44693053 11.1287561,1.54248788 C11.4555735,1.66914378 11.6885299,1.82124394 11.9339257,2.06607431 C12.1787561,2.31090468 12.3302908,2.54442649 12.4575121,2.87124394 C12.5536349,3.1177706 12.6672859,3.48869144 12.6983845,4.17116317 C12.7323102,4.90961228 12.7390953,5.13069467 12.7390953,7 C12.7390953,8.8687399 12.7323102,9.09038772 12.6983845,9.82883683 C12.6672859,10.5113086 12.5530695,10.8822294 12.4575121,11.1287561 C12.3302908,11.4555735 12.1787561,11.6885299 11.9339257,11.9333603 C11.6890953,12.1781906 11.4555735,12.3297254 11.1287561,12.4569467 C10.8822294,12.5530695 10.5113086,12.6667205 9.82883683,12.6978191 C9.09095315,12.7317447 8.86930533,12.7385299 7,12.7385299 C5.1312601,12.7385299 4.90961228,12.7317447 4.17172859,12.6978191 M4.11405493,0.0424071082 C3.36882068,0.0763327948 2.85993538,0.19450727 2.41494346,0.367528271 C1.95468498,0.546203554 1.56453958,0.785945073 1.17495961,1.17495961 C0.785945073,1.56397415 0.546203554,1.95411955 0.367528271,2.41494346 C0.19450727,2.85993538 0.0763327948,3.36882068 0.0424071082,4.11405493 C0.00791599354,4.86042003 0,5.09903069 0,7 C0,8.90096931 0.00791599354,9.13957997 0.0424071082,9.88594507 C0.0763327948,10.6311793 0.19450727,11.1400646 0.367528271,11.5850565 C0.546203554,12.045315 0.785379645,12.4360258 1.17495961,12.8250404 C1.56397415,13.2140549 1.95411955,13.453231 2.41494346,13.6324717 C2.86050081,13.8054927 3.36882068,13.9236672 4.11405493,13.9575929 C4.86098546,13.9915186 5.09903069,14 7,14 C8.90153473,14 9.13957997,13.992084 9.88594507,13.9575929 C10.6311793,13.9236672 11.1400646,13.8054927 11.5850565,13.6324717 C12.045315,13.453231 12.4354604,13.2140549 12.8250404,12.8250404 C13.2140549,12.4360258 13.453231,12.045315 13.6324717,11.5850565 C13.8054927,11.1400646 13.9242326,10.6311793 13.9575929,9.88594507 C13.9915186,9.13901454 13.9994346,8.90096931 13.9994346,7 C13.9994346,5.09903069 13.9915186,4.86042003 13.9575929,4.11405493 C13.9236672,3.36882068 13.8054927,2.85993538 13.6324717,2.41494346 C13.453231,1.95468498 13.2140549,1.56453958 12.8250404,1.17495961 C12.4360258,0.785945073 12.045315,0.546203554 11.585622,0.367528271 C11.1400646,0.19450727 10.6311793,0.0757673667 9.8865105,0.0424071082 C9.1401454,0.00848142165 8.90153473,0 7.00056543,0 C5.09903069,0 4.86098546,0.00791599354 4.11405493,0.0424071082" id="Shape"></path>
        </g>
    </g>
</svg>
