<svg width="28" height="28" viewBox="0 0 28 28" fill="none" xmlns="http://www.w3.org/2000/svg">
<g clip-path="url(#clip0)">
<path d="M11.4875 24.221C12.2864 24.4148 13.1176 24.5181 13.9819 24.5181C19.7806 24.5181 24.4819 19.8169 24.4819 14.0181V14.0166C24.4992 8.20067 19.7985 3.5 14 3.5C8.20125 3.5 3.5 8.20125 3.5 14C3.5 18.1576 5.91329 21.7504 9.41663 23.4524C9.36672 22.6598 9.36772 21.7228 9.53808 20.9775L9.5384 20.9761C9.63825 20.5449 9.95993 19.1767 10.2563 17.9176L10.6516 16.2394L10.7774 15.7056L10.7869 15.665C10.7523 15.5757 10.7095 15.4545 10.6672 15.3059C10.5759 14.9848 10.4852 14.5308 10.4852 13.9909C10.4852 12.3239 11.4752 10.8202 12.977 10.8202C13.5855 10.8202 14.0807 11.0549 14.4139 11.4616C14.7361 11.8549 14.8712 12.364 14.8712 12.8683C14.8712 13.4217 14.6993 14.076 14.512 14.7051C14.4543 14.8991 14.3946 15.0923 14.3351 15.2847C14.1927 15.7451 14.0518 16.2009 13.9429 16.652C13.7646 17.3971 14.2947 18.0267 15.0864 18.0267C15.87 18.0267 16.5933 17.6179 17.1392 16.837C17.6886 16.0509 18.0449 14.8984 18.0449 13.493C18.0449 12.2996 17.6187 11.3145 16.9119 10.6273C16.204 9.93921 15.184 9.52058 13.9457 9.52058C11.1099 9.52058 9.47531 11.6205 9.47531 13.7918C9.47531 14.6321 9.80585 15.5291 10.1758 15.9814C10.2651 16.089 10.3325 16.2156 10.3612 16.362C10.3891 16.505 10.3734 16.633 10.3485 16.7343C10.3069 16.9098 10.2386 17.1851 10.1769 17.4332C10.1661 17.4764 10.1556 17.5187 10.1454 17.5594C10.0961 17.7577 10.0557 17.92 10.0414 17.9804L11.4875 24.221ZM11.4875 24.221C11.8992 23.5012 12.3685 22.5709 12.5738 21.7665C12.5739 21.7658 12.5741 21.7652 12.5742 21.7646L12.9682 20.2666L13.0256 20.0483C13.1794 20.1655 13.3465 20.2701 13.5211 20.3605C14.0345 20.6263 14.6539 20.7922 15.2947 20.7922C18.9736 20.7922 21.4984 17.4186 21.4984 13.4477C21.4984 9.49871 18.2703 6.59218 14.2173 6.59218C11.7239 6.59218 9.77347 7.43099 8.44537 8.76646C7.12108 10.0981 6.44732 11.8921 6.44732 13.7465C6.44732 14.6377 6.68192 15.6186 7.10114 16.4668C7.51723 17.3087 8.14409 18.0762 8.96986 18.4627L11.4875 24.221Z" fill="#999FAA" stroke="#999FAA"/>
</g>
<defs>
<clipPath id="clip0">
<rect width="22" height="22" fill="white" transform="translate(3 3)"/>
</clipPath>
</defs>
</svg>
