<svg width="28" height="28" viewBox="0 0 28 28" fill="none" xmlns="http://www.w3.org/2000/svg">
<path d="M23.4041 19.0798C20.0099 17.4368 19.469 14.9 19.4449 14.7118C19.4158 14.4839 19.3827 14.3047 19.6342 14.0728C19.8767 13.8488 20.9524 13.183 21.2509 12.9747C21.7443 12.6297 21.9615 12.2853 21.8014 11.862C21.6894 11.5691 21.4167 11.4588 21.1294 11.4588C21.0388 11.459 20.9484 11.4692 20.86 11.489C20.3179 11.6066 19.7915 11.8782 19.4869 11.9516C19.4503 11.961 19.4127 11.9661 19.3749 11.9667C19.2125 11.9667 19.1509 11.8944 19.1666 11.699C19.2047 11.1065 19.2853 9.95012 19.1918 8.86988C19.0635 7.38364 18.5842 6.64724 18.0158 5.99596C17.7408 5.68012 16.464 4.32324 14 4.32324C11.536 4.32324 10.2609 5.68012 9.98763 5.99204C9.41755 6.64332 8.93875 7.37972 8.81163 8.86596C8.71811 9.9462 8.80211 11.102 8.83683 11.6951C8.84803 11.881 8.79091 11.9628 8.62851 11.9628C8.59071 11.9621 8.55312 11.957 8.51651 11.9476C8.21243 11.8743 7.68603 11.6027 7.14395 11.4851C7.05552 11.4653 6.9652 11.4551 6.87459 11.4548C6.58619 11.4548 6.31459 11.5668 6.20259 11.858C6.04243 12.2814 6.25859 12.6258 6.75363 12.9708C7.05211 13.1791 8.12787 13.8444 8.37035 14.0689C8.62123 14.3008 8.58875 14.48 8.55963 14.7079C8.53555 14.8988 7.99403 17.4356 4.60043 19.0759C4.40163 19.1722 4.06339 19.376 4.65979 19.7053C5.59611 20.2228 6.21939 20.1673 6.70379 20.4792C7.11483 20.7441 6.87179 21.3153 7.17083 21.5214C7.53819 21.7751 8.62403 21.5035 10.0268 21.9666C11.2028 22.3541 11.9174 23.4489 14.0028 23.4489C16.0883 23.4489 16.8235 22.3491 17.9788 21.9666C19.3788 21.5035 20.4669 21.7751 20.8348 21.5214C21.1333 21.3153 20.8908 20.7441 21.3019 20.4792C21.7863 20.1673 22.409 20.2228 23.3459 19.7053C23.9411 19.38 23.6029 19.1761 23.4041 19.0798Z" fill="#999FAA"/>
<path d="M24.8808 18.8867C24.7285 18.4723 24.4384 18.2505 24.108 18.0668C24.0459 18.0304 23.9887 18.0013 23.94 17.9789C23.8415 17.9279 23.7407 17.8787 23.6404 17.8266C22.6106 17.2806 21.8064 16.5918 21.2487 15.7753C21.0903 15.5454 20.9529 15.3018 20.8382 15.0473C20.7906 14.9112 20.7928 14.8339 20.827 14.7634C20.8609 14.709 20.9057 14.6623 20.9586 14.6262C21.1355 14.5091 21.3181 14.3904 21.4419 14.3103C21.6625 14.1675 21.8372 14.0544 21.9498 13.9743C22.3726 13.6787 22.6683 13.3645 22.8531 13.0134C22.982 12.7708 23.0572 12.5033 23.0735 12.2291C23.0898 11.9548 23.0469 11.6803 22.9477 11.4241C22.6677 10.6871 21.9716 10.2296 21.1283 10.2296C20.9504 10.2295 20.773 10.2482 20.5991 10.2856C20.5526 10.2957 20.5061 10.3063 20.4607 10.3181C20.4686 9.8141 20.4574 9.2821 20.4126 8.7585C20.2535 6.91778 19.609 5.9529 18.937 5.18346C18.5066 4.7013 17.9998 4.29338 17.4367 3.9761C16.417 3.3937 15.2606 3.09802 14 3.09802C12.7395 3.09802 11.5887 3.3937 10.5678 3.9761C10.0034 4.29347 9.49546 4.70221 9.06473 5.1857C8.39273 5.95514 7.74818 6.9217 7.58914 8.76074C7.54434 9.28434 7.53313 9.81914 7.54041 10.3203C7.49505 10.3086 7.44914 10.2979 7.40266 10.2879C7.22874 10.2505 7.05134 10.2317 6.87345 10.2319C6.02954 10.2319 5.33233 10.6894 5.05345 11.4263C4.95377 11.6826 4.91043 11.9574 4.92637 12.2319C4.94232 12.5064 5.01717 12.7743 5.14585 13.0173C5.33121 13.3684 5.62689 13.6826 6.04969 13.9783C6.16169 14.0567 6.33697 14.1698 6.55761 14.3143C6.67689 14.3915 6.85106 14.5047 7.02186 14.6178C7.08161 14.6564 7.13241 14.7074 7.17082 14.7673C7.20666 14.8407 7.20778 14.9196 7.15458 15.0652C7.04142 15.3144 6.9063 15.5529 6.75082 15.7781C6.20538 16.5761 5.42473 17.2526 4.42794 17.7941C3.89986 18.0741 3.35106 18.2611 3.11922 18.8911C2.9445 19.3666 3.05874 19.9075 3.50282 20.3634C3.6658 20.5335 3.85483 20.6766 4.06282 20.7873C4.49558 21.0251 4.95575 21.2092 5.43313 21.3355C5.53165 21.3609 5.62517 21.4028 5.70977 21.4593C5.87161 21.601 5.84865 21.8143 6.06425 22.1268C6.17248 22.2883 6.31 22.4281 6.46969 22.539C6.92217 22.8515 7.43065 22.8711 7.96937 22.8918C8.45601 22.9103 9.00762 22.9315 9.63762 23.1393C9.89858 23.2255 10.1696 23.3924 10.4838 23.5873C11.2381 24.051 12.2707 24.6855 13.9989 24.6855C15.7271 24.6855 16.767 24.0476 17.5269 23.5823C17.8388 23.3907 18.1082 23.2255 18.3619 23.1415C18.9919 22.9332 19.5435 22.9125 20.0301 22.894C20.5688 22.8733 21.0773 22.8537 21.5298 22.5412C21.7189 22.4093 21.8765 22.2372 21.9912 22.0372C22.1463 21.7735 22.1424 21.5892 22.288 21.4604C22.3674 21.4066 22.4552 21.3665 22.5479 21.3417C23.0318 21.215 23.4982 21.0292 23.9367 20.7884C24.1576 20.6699 24.3565 20.5142 24.5247 20.3281L24.5303 20.3214C24.9469 19.8756 25.0516 19.3503 24.8808 18.8867ZM23.3447 19.7121C22.4079 20.2295 21.7851 20.1741 21.3007 20.486C20.8891 20.7509 21.1327 21.3221 20.8337 21.5282C20.4663 21.7819 19.3805 21.5103 17.9777 21.9734C16.8207 22.3559 16.0827 23.4557 14.0017 23.4557C11.9207 23.4557 11.2 22.3581 10.024 21.9706C8.62401 21.5075 7.53593 21.7791 7.16802 21.5254C6.86954 21.3193 7.11202 20.7481 6.70098 20.4832C6.21602 20.1713 5.5933 20.2267 4.65698 19.7121C4.06058 19.3828 4.39882 19.179 4.59761 19.0827C7.99121 17.4396 8.53274 14.9028 8.55682 14.7147C8.58594 14.4867 8.61841 14.3075 8.36753 14.0757C8.12505 13.8517 7.0493 13.1859 6.75082 12.9775C6.2569 12.6326 6.03961 12.2882 6.19977 11.8648C6.31177 11.5719 6.58506 11.4616 6.87177 11.4616C6.96239 11.4619 7.05271 11.472 7.14113 11.4919C7.68321 11.6095 8.20961 11.8811 8.51369 11.9544C8.55031 11.9638 8.5879 11.9689 8.62569 11.9695C8.78809 11.9695 8.84521 11.8878 8.83401 11.7019C8.79929 11.1088 8.7153 9.95298 8.80882 8.87274C8.93706 7.3865 9.41585 6.6501 9.98481 5.99882C10.2581 5.68578 11.5422 4.3289 13.9978 4.3289C16.4534 4.3289 17.7408 5.68018 18.0141 5.9921C18.5836 6.64338 19.063 7.37978 19.1901 8.86602C19.2836 9.94626 19.203 11.1027 19.1649 11.6951C19.152 11.8906 19.2108 11.9628 19.3732 11.9628C19.411 11.9622 19.4486 11.9571 19.4852 11.9477C19.7899 11.8743 20.3163 11.6027 20.8583 11.4851C20.9468 11.4653 21.0371 11.4552 21.1277 11.4549C21.4161 11.4549 21.6877 11.5669 21.7997 11.8581C21.9599 12.2815 21.7437 12.6259 21.2492 12.9708C20.9507 13.1791 19.875 13.8444 19.6325 14.069C19.3811 14.3008 19.4141 14.48 19.4432 14.7079C19.4673 14.8989 20.0083 17.4357 23.4024 19.0759C23.6029 19.1762 23.9411 19.38 23.3447 19.7121Z" fill="#999FAA"/>
</svg>
