<svg width="28" height="28" viewBox="0 0 28 28" fill="none" xmlns="http://www.w3.org/2000/svg">
<mask id="path-1-inside-1" fill="white">
<path fill-rule="evenodd" clip-rule="evenodd" d="M13.9986 2.33252C20.442 2.33252 25.6653 7.55586 25.6653 13.9992C25.6653 19.8224 21.399 24.6489 15.8216 25.5241V17.3716H18.54L19.0572 13.9992H19.0572L19.0572 13.9991H15.8216V11.8107C15.8216 10.8881 16.2735 9.98877 17.7228 9.98877H19.194V7.11768L19.1939 7.11764C19.1939 7.11764 17.8588 6.88977 16.5824 6.88977C13.9175 6.88977 12.1757 8.50487 12.1757 11.4288V13.9991H9.21347V17.3715H9.21348V17.3716H12.1757V25.5241L12.1757 25.5241C6.5983 24.6489 2.33197 19.8224 2.33197 13.9992C2.33197 7.55586 7.55531 2.33252 13.9986 2.33252Z"/>
</mask>
<path fill-rule="evenodd" clip-rule="evenodd" d="M13.9986 2.33252C20.442 2.33252 25.6653 7.55586 25.6653 13.9992C25.6653 19.8224 21.399 24.6489 15.8216 25.5241V17.3716H18.54L19.0572 13.9992H19.0572L19.0572 13.9991H15.8216V11.8107C15.8216 10.8881 16.2735 9.98877 17.7228 9.98877H19.194V7.11768L19.1939 7.11764C19.1939 7.11764 17.8588 6.88977 16.5824 6.88977C13.9175 6.88977 12.1757 8.50487 12.1757 11.4288V13.9991H9.21347V17.3715H9.21348V17.3716H12.1757V25.5241L12.1757 25.5241C6.5983 24.6489 2.33197 19.8224 2.33197 13.9992C2.33197 7.55586 7.55531 2.33252 13.9986 2.33252Z" fill="#999FAA"/>
<path d="M15.8216 25.5241H14.8216V26.6933L15.9766 26.512L15.8216 25.5241ZM15.8216 17.3716V16.3716H14.8216V17.3716H15.8216ZM18.54 17.3716V18.3716H19.3983L19.5284 17.5232L18.54 17.3716ZM19.0572 13.9992L20.0457 14.1508L20.2223 12.9992H19.0572V13.9992ZM19.0572 13.9992L18.0673 13.8578L17.9042 14.9992H19.0572V13.9992ZM19.0572 13.9991L20.0472 14.1406L20.2102 12.9991H19.0572V13.9991ZM15.8216 13.9991H14.8216V14.9991H15.8216V13.9991ZM19.194 9.98877V10.9888H20.194V9.98877H19.194ZM19.194 7.11768H20.194V6.95721L20.1437 6.8048L19.194 7.11768ZM19.1939 7.11764L20.1437 6.80476L19.9554 6.23314L19.3622 6.13189L19.1939 7.11764ZM12.1757 13.9991V14.9991H13.1757V13.9991H12.1757ZM9.21347 13.9991V12.9991H8.21347V13.9991H9.21347ZM9.21347 17.3715H8.21347V18.3715H9.21347V17.3715ZM9.21348 17.3715H10.2135V16.3715H9.21348V17.3715ZM9.21348 17.3716H8.21348V18.3716H9.21348V17.3716ZM12.1757 17.3716H13.1757V16.3716H12.1757V17.3716ZM12.1757 25.5241H11.1757V25.6641L11.2142 25.7988L12.1757 25.5241ZM12.1757 25.5241L12.0207 26.512L13.5673 26.7547L13.1372 25.2494L12.1757 25.5241ZM26.6653 13.9992C26.6653 7.00357 20.9942 1.33252 13.9986 1.33252V3.33252C19.8897 3.33252 24.6653 8.10814 24.6653 13.9992H26.6653ZM15.9766 26.512C22.0329 25.5617 26.6653 20.3225 26.6653 13.9992H24.6653C24.6653 19.3223 20.7651 23.7361 15.6665 24.5362L15.9766 26.512ZM14.8216 17.3716V25.5241H16.8216V17.3716H14.8216ZM18.54 16.3716H15.8216V18.3716H18.54V16.3716ZM18.0688 13.8476L17.5515 17.22L19.5284 17.5232L20.0457 14.1508L18.0688 13.8476ZM19.0572 14.9992H19.0572V12.9992H19.0572V14.9992ZM20.0472 14.1406L20.0472 14.1406L18.0673 13.8577L18.0673 13.8578L20.0472 14.1406ZM19.0572 12.9991H15.8216V14.9991H19.0572V12.9991ZM14.8216 11.8107V13.9991H16.8216V11.8107H14.8216ZM17.7228 8.98877C16.781 8.98877 15.9996 9.28991 15.4723 9.89965C14.9685 10.4823 14.8216 11.204 14.8216 11.8107H16.8216C16.8216 11.4948 16.9006 11.3055 16.9851 11.2079C17.0461 11.1373 17.2153 10.9888 17.7228 10.9888V8.98877ZM19.194 8.98877H17.7228V10.9888H19.194V8.98877ZM18.194 7.11768V9.98877H20.194V7.11768H18.194ZM20.1437 6.8048L20.1437 6.80476L18.2441 7.43051L18.2442 7.43055L20.1437 6.8048ZM19.1939 7.11764C19.3622 6.13189 19.3621 6.13187 19.362 6.13186C19.362 6.13185 19.3619 6.13184 19.3618 6.13183C19.3617 6.1318 19.3615 6.13177 19.3613 6.13174C19.3609 6.13168 19.3605 6.1316 19.36 6.13151C19.3589 6.13133 19.3575 6.1311 19.3558 6.13081C19.3524 6.13024 19.3477 6.12946 19.3418 6.12848C19.33 6.12652 19.3132 6.12378 19.2918 6.12037C19.2491 6.11354 19.1879 6.10401 19.111 6.09269C18.9574 6.07008 18.7402 6.04017 18.4815 6.0103C17.9685 5.95107 17.2738 5.88977 16.5824 5.88977V7.88977C17.1674 7.88977 17.7784 7.94241 18.2521 7.9971C18.4868 8.0242 18.6831 8.05126 18.8197 8.07137C18.888 8.08141 18.941 8.08969 18.9763 8.09532C18.9939 8.09814 19.0071 8.10029 19.0155 8.10167C19.0196 8.10236 19.0226 8.10286 19.0243 8.10315C19.0252 8.10329 19.0257 8.10339 19.026 8.10343C19.0261 8.10345 19.0261 8.10345 19.0261 8.10344C19.026 8.10344 19.026 8.10343 19.0259 8.10342C19.0259 8.10342 19.0259 8.10341 19.0258 8.10341C19.0258 8.10339 19.0257 8.10338 19.1939 7.11764ZM16.5824 5.88977C15.0479 5.88977 13.6688 6.35853 12.6723 7.35604C11.6747 8.35456 11.1757 9.76729 11.1757 11.4288H13.1757C13.1757 10.1664 13.5476 9.30962 14.0871 8.76959C14.6277 8.22856 15.452 7.88977 16.5824 7.88977V5.88977ZM11.1757 11.4288V13.9991H13.1757V11.4288H11.1757ZM12.1757 12.9991H9.21347V14.9991H12.1757V12.9991ZM8.21347 13.9991V17.3715H10.2135V13.9991H8.21347ZM9.21347 18.3715H9.21348V16.3715H9.21347V18.3715ZM10.2135 17.3716V17.3715H8.21348V17.3716H10.2135ZM12.1757 16.3716H9.21348V18.3716H12.1757V16.3716ZM11.1757 17.3716V25.5241H13.1757V17.3716H11.1757ZM13.1372 25.2494L13.1372 25.2494L11.2142 25.7988L11.2142 25.7988L13.1372 25.2494ZM1.33197 13.9992C1.33197 20.3225 5.96441 25.5617 12.0207 26.512L12.3307 24.5362C7.2322 23.7361 3.33197 19.3223 3.33197 13.9992H1.33197ZM13.9986 1.33252C7.00303 1.33252 1.33197 7.00357 1.33197 13.9992H3.33197C3.33197 8.10814 8.1076 3.33252 13.9986 3.33252V1.33252Z" fill="#999FAA" mask="url(#path-1-inside-1)"/>
</svg>
